<?xml version="1.0" standalone="no"?>
<!DOCTYPE svg PUBLIC "-//W3C//DTD SVG 1.1//EN" "http://www.w3.org/Graphics/SVG/1.1/DTD/svg11.dtd" >
<svg xmlns="http://www.w3.org/2000/svg" xmlns:xlink="http://www.w3.org/1999/xlink" version="1.1">
<metadata>
Created by FontForge 20170731 at Wed Jul  7 20:01:13 2021
 By Aleksey,,,
Copyright  2010 by Ryoichi Tsunekawa. All rights reserved.
</metadata>
<defs>
<font id="BebasNeueBook" horiz-adv-x="770" >
  <font-face 
    font-family="Bebas Neue Book"
    font-weight="400"
    font-stretch="normal"
    units-per-em="2048"
    panose-1="0 0 5 0 0 0 0 0 0 0"
    ascent="1536"
    descent="-512"
    x-height="1434"
    cap-height="1434"
    bbox="-92 -367 1667 1802"
    underline-thickness="102"
    underline-position="-327"
    unicode-range="U+0020-F6C3"
  />
<missing-glyph horiz-adv-x="1122" 
d="M102 0v1434h918v-1434h-918zM270 1290l244 -553l-260 -596h70l233 537l236 -537h77l-260 596l242 553h-68l-219 -495l-219 495h-76z" />
    <glyph glyph-name=".notdef" horiz-adv-x="1122" 
d="M102 0v1434h918v-1434h-918zM270 1290l244 -553l-260 -596h70l233 537l236 -537h77l-260 596l242 553h-68l-219 -495l-219 495h-76z" />
    <glyph glyph-name=".null" horiz-adv-x="0" 
 />
    <glyph glyph-name="nonmarkingreturn" horiz-adv-x="682" 
 />
    <glyph glyph-name="space" unicode=" " horiz-adv-x="317" 
 />
    <glyph glyph-name="exclam" unicode="!" horiz-adv-x="258" 
d="M94 317l-12 369v750h94v-750l-12 -369h-70zM84 178h90v-178h-90v178z" />
    <glyph glyph-name="quotedbl" unicode="&#x22;" horiz-adv-x="421" 
d="M82 1436h92l-12 -357h-70zM248 1436h92l-12 -357h-68z" />
    <glyph glyph-name="numbersign" unicode="#" horiz-adv-x="847" 
d="M778 989h-125l-49 -465h125l-6 -69h-125l-49 -455h-80l49 455h-242l-47 -455h-79l49 455h-136l7 69h135l49 465h-137l6 70h137l39 377h80l-39 -377h240l38 377h80l-39 -377h125zM524 524l49 465h-241l-47 -465h239z" />
    <glyph glyph-name="dollar" unicode="$" horiz-adv-x="772" 
d="M428 1559v-123q92 -8 153 -57.5t87 -124t26 -173.5v-32h-90v36q0 124 -51 195.5t-162 71.5t-162 -71.5t-51 -193.5q0 -70 28.5 -128.5t74.5 -100.5t101 -81t110 -80t101 -87t74.5 -112t28.5 -146q0 -151 -66 -247t-202 -107v-115h-80v115q-138 10 -204 105t-66 249v80h90
v-84q0 -266 217 -266t217 266q0 69 -28.5 127t-74.5 99.5t-101 80t-110 79.5t-101 87t-74.5 113t-28.5 147q0 156 65 249t199 106v123h80z" />
    <glyph glyph-name="percent" unicode="%" horiz-adv-x="1239" 
d="M270 1438q99 0 147 -64t48 -168v-436q0 -104 -48 -167.5t-147 -63.5q-98 0 -145 63.5t-47 167.5v436q0 104 47 168t145 64zM868 1436h62l-565 -1436h-62zM270 1378q-129 0 -129 -170v-442q0 -75 30 -121.5t99 -46.5q67 0 98 47t31 121v442q0 76 -30.5 123t-98.5 47z
M969 893q99 0 145.5 -64.5t46.5 -169.5v-430q0 -105 -46.5 -169t-145.5 -64t-147 64.5t-48 168.5v430q0 104 48 169t147 65zM969 831q-68 0 -98.5 -46t-30.5 -121v-439q0 -75 31 -122.5t98 -47.5q68 0 98.5 47.5t30.5 122.5v439q0 167 -129 167z" />
    <glyph glyph-name="ampersand" unicode="&#x26;" horiz-adv-x="825" 
d="M629 1348h-203q-250 0 -250 -267v-57q0 -99 52.5 -164t144.5 -69h221v159h94v-159h78v-86h-78v-517q0 -46 1.5 -69.5t10 -57t25.5 -61.5h-98q-31 55 -31 137q-32 -73 -95 -111t-147 -38q-136 0 -204 88.5t-68 242.5v136q0 106 47.5 186t140.5 111q-93 27 -140.5 104.5
t-47.5 185.5v35q0 174 86.5 265.5t257.5 91.5h203v-86zM594 705h-209q-100 -6 -154.5 -72.5t-54.5 -175.5v-131q0 -117 52.5 -184.5t158.5 -67.5q91 0 148.5 53.5t58.5 146.5v431z" />
    <glyph glyph-name="quotesingle" unicode="'" horiz-adv-x="249" 
d="M80 1436h90l-10 -357h-70z" />
    <glyph glyph-name="parenleft" unicode="(" horiz-adv-x="473" 
d="M410 1356h-41q-106 0 -146.5 -60t-40.5 -178v-801q0 -120 40 -178.5t147 -58.5h41v-80h-45q-154 0 -215.5 78.5t-61.5 238.5v801q0 160 62 239t215 79h45v-80z" />
    <glyph glyph-name="parenright" unicode=")" horiz-adv-x="473" 
d="M63 1436h46q153 0 215.5 -79.5t62.5 -238.5v-801q0 -160 -62 -238.5t-216 -78.5h-46v80h41q108 0 148.5 59t40.5 178v801q0 118 -41.5 178t-147.5 60h-41v80z" />
    <glyph glyph-name="asterisk" unicode="*" horiz-adv-x="806" 
d="M739 1139l-303 -68l195 -242l-64 -47l-164 265l-163 -263l-66 45l197 242l-303 72l24 76l291 -109l-21 313h80l-18 -313l291 104z" />
    <glyph glyph-name="plus" unicode="+" horiz-adv-x="794" 
d="M725 682h-293v-299h-70v299h-290v70h290v295h70v-295h293v-70z" />
    <glyph glyph-name="comma" unicode="," horiz-adv-x="274" 
d="M92 -156l41 156h-31v180h91v-172l-60 -164h-41z" />
    <glyph glyph-name="hyphen" unicode="-" horiz-adv-x="532" 
d="M78 674v86h377v-86h-377z" />
    <glyph glyph-name="period" unicode="." horiz-adv-x="256" 
d="M82 180h92v-180h-92v180z" />
    <glyph glyph-name="slash" unicode="/" horiz-adv-x="759" 
d="M621 1434h84l-566 -1434h-84z" />
    <glyph glyph-name="zero" unicode="0" horiz-adv-x="780" 
d="M76 350v733q0 166 78.5 264.5t236.5 98.5t237 -98.5t79 -264.5v-733q0 -165 -79 -263.5t-237 -98.5t-236.5 98.5t-78.5 263.5zM170 1090v-744q0 -126 54 -199t167 -73t167 73t54 199v744q0 124 -54 197t-167 73t-167 -73t-54 -197z" />
    <glyph glyph-name="one" unicode="1" horiz-adv-x="575" 
d="M354 0v1274q-82 -109 -223 -121v82q99 7 156 60t88 141h74v-1436h-95z" />
    <glyph glyph-name="two" unicode="2" horiz-adv-x="772" 
d="M391 1446q159 0 234 -99t75 -266q0 -84 -28.5 -162t-74.5 -140.5t-101.5 -123t-111 -122t-102 -124.5t-76 -142.5t-30.5 -164.5v-16h512v-86h-606v70q0 103 29 194t75 159t102 131t112 121.5t102 117.5t75 132t29 152q0 283 -219 283q-112 0 -163.5 -76t-51.5 -201v-98
h-90v92q0 166 76 267.5t233 101.5z" />
    <glyph glyph-name="three" unicode="3" horiz-adv-x="774" 
d="M387 1446q157 0 233 -98.5t76 -264.5v-34q0 -107 -49.5 -186t-140.5 -111q94 -28 142 -105t48 -186v-111q0 -166 -76 -264t-233 -98t-233 98t-76 264v82h90v-86q0 -125 52 -198.5t165 -73.5q217 0 217 278v111q0 113 -54.5 175.5t-158.5 66.5h-96v86h100q96 6 152.5 71
t56.5 168v51q0 279 -217 279q-113 0 -165 -72.5t-52 -197.5v-58h-90v51q0 166 76 264.5t233 98.5z" />
    <glyph glyph-name="four" unicode="4" horiz-adv-x="825" 
d="M766 317h-121v-317h-92v317h-490v89l476 1030h106v-1033h121v-86zM553 1260l-403 -857h403v857z" />
    <glyph glyph-name="five" unicode="5" horiz-adv-x="774" 
d="M215 1348l-27 -512q69 110 232 110q142 0 210 -95.5t68 -254.5v-246q0 -164 -77 -263t-234 -99q-156 0 -232.5 99t-76.5 263v78h90v-82q0 -123 53 -196.5t164 -73.5q113 0 166 73.5t53 196.5v242q0 123 -53 196.5t-166 73.5q-78 0 -130.5 -42t-74.5 -122v-24h-88l37 766
h539v-88h-453z" />
    <glyph glyph-name="six" unicode="6" horiz-adv-x="782" 
d="M393 1446q158 0 233.5 -95.5t75.5 -260.5v-17h-90v23q0 123 -52 193.5t-165 70.5q-116 0 -170.5 -75t-54.5 -208v-332q78 132 256 132q144 0 213.5 -95.5t69.5 -255.5v-176q0 -165 -79 -263.5t-237 -98.5q-159 0 -238 98.5t-79 263.5v729q0 170 78 268.5t239 98.5z
M393 788q-114 0 -168.5 -72.5t-54.5 -195.5v-174q0 -125 54 -197.5t169 -72.5q113 0 167 72.5t54 197.5v174q0 123 -54 195.5t-167 72.5z" />
    <glyph glyph-name="seven" unicode="7" horiz-adv-x="774" 
d="M199 0l403 1348h-526v88h622v-86l-403 -1350h-96z" />
    <glyph glyph-name="eight" unicode="8" horiz-adv-x="794" 
d="M397 1446q158 0 242 -92.5t84 -255.5v-45q0 -116 -47 -195t-144 -106q191 -56 191 -308v-102q0 -163 -83 -258.5t-243 -95.5q-161 0 -243 95t-82 259v102q0 250 192 308q-192 54 -192 301v45q0 163 83 255.5t242 92.5zM397 1360q-114 0 -172.5 -68t-58.5 -196v-60
q0 -245 231 -245q114 0 173 62t59 183v60q0 127 -59.5 195.5t-172.5 68.5zM397 705q-118 0 -174.5 -62.5t-56.5 -189.5v-109q0 -128 58.5 -199t172.5 -71t172 71t60 199v109q0 252 -232 252z" />
    <glyph glyph-name="nine" unicode="9" horiz-adv-x="782" 
d="M389 1448q159 0 237.5 -99t78.5 -266v-729q0 -168 -78 -267t-238 -99q-158 0 -235.5 96.5t-77.5 261.5v19h90v-23q0 -124 54 -196t167 -72q223 0 223 284v353q-33 -79 -95.5 -115.5t-158.5 -36.5q-144 0 -213 94.5t-69 255.5v174q0 166 78.5 265.5t236.5 99.5zM389 1360
q-113 0 -167 -73t-54 -197v-175q0 -124 54 -197t167 -73t167 73t54 197v175q0 124 -54 197t-167 73z" />
    <glyph glyph-name="colon" unicode=":" horiz-adv-x="256" 
d="M82 961h92v-181h-92v181zM82 180h92v-180h-92v180z" />
    <glyph glyph-name="semicolon" unicode=";" horiz-adv-x="274" 
d="M102 961h91v-181h-91v181zM92 -156l41 156h-31v180h91v-172l-60 -164h-41z" />
    <glyph glyph-name="less" unicode="&#x3c;" horiz-adv-x="757" 
d="M676 481v-73l-602 274v70l602 274v-74l-510 -235z" />
    <glyph glyph-name="equal" unicode="=" horiz-adv-x="624" 
d="M78 905h469v-69h-469v69zM78 655h469v-69h-469v69z" />
    <glyph glyph-name="greater" unicode="&#x3e;" horiz-adv-x="757" 
d="M82 408v73l512 236l-512 235v74l602 -274v-70z" />
    <glyph glyph-name="question" unicode="?" horiz-adv-x="743" 
d="M373 1446q81 0 141 -27.5t95.5 -78t52 -115t16.5 -144.5q0 -89 -31 -165.5t-75 -133.5t-87.5 -112t-74.5 -125.5t-31 -149.5q0 -34 10 -76h-86q-10 42 -10 80q0 63 16 119.5t41.5 99.5t56.5 84.5t62.5 82.5t57 84t41.5 98.5t16 117.5q0 275 -213 275q-58 0 -100.5 -21.5
t-66.5 -60.5t-35 -87t-11 -108v-100h-90v94q0 167 74 268t231 101zM299 178h90v-178h-90v178z" />
    <glyph glyph-name="at" unicode="@" horiz-adv-x="1409" 
d="M799 1495q143 0 248.5 -41.5t169.5 -120t95 -182.5t31 -236q0 -159 -39.5 -298t-121 -231t-189.5 -93q-67 0 -102.5 38.5t-38.5 104.5q-66 -158 -221 -155q-79 1 -127.5 45.5t-62.5 112t-5 155.5l21 203q14 135 78.5 215.5t179.5 79.5q148 -3 186 -146l14 135h84
l-61 -585q-5 -50 13 -86.5t65 -36.5q58 1 103.5 39t73.5 95.5t46 132t25 142.5t6 131q0 241 -117 373.5t-358 132.5q-132 0 -240 -44t-182 -121t-124.5 -183.5t-73.5 -228.5t-23 -260q0 -292 138 -447t421 -155q229 0 383 118l-7 -86q-158 -108 -380 -108q-322 0 -479.5 178
t-157.5 504q0 144 26 275.5t83.5 248t141 201.5t206.5 134.5t272 49.5zM737 1008q-89 0 -138 -60.5t-60 -161.5l-19 -192q-6 -45 0 -86.5t21 -74t47.5 -52t79.5 -19.5q89 -1 137.5 64t58.5 168l23 199q10 94 -26.5 154.5t-123.5 60.5z" />
    <glyph glyph-name="A" unicode="A" horiz-adv-x="892" 
d="M666 317h-447l-72 -317h-86l314 1436h137l319 -1436h-94zM440 1327l-207 -928h418z" />
    <glyph glyph-name="B" unicode="B" horiz-adv-x="774" 
d="M82 1434h301q157 0 225 -76t68 -230v-81q0 -123 -42.5 -192t-146.5 -91q215 -43 215 -307v-125q0 -332 -313 -332h-307v1434zM176 801h160q132 0 189 48t57 179v92q0 118 -45 173t-156 55h-205v-547zM176 86h213q115 0 167 62t52 186v129q0 136 -61.5 194t-192.5 58h-178
v-629z" />
    <glyph glyph-name="C" unicode="C" horiz-adv-x="765" 
d="M385 1446q157 0 233 -99t76 -264v-118h-90v125q0 124 -52 197t-165 73t-165 -73t-52 -197v-746q0 -124 52 -196t165 -72t165 72t52 196v170h90v-164q0 -165 -76 -263.5t-233 -98.5t-233 98.5t-76 263.5v733q0 165 76 264t233 99z" />
    <glyph glyph-name="D" unicode="D" horiz-adv-x="788" 
d="M82 1434h315q160 0 239 -96t79 -261v-721q0 -165 -79 -260.5t-239 -95.5h-315v1434zM176 86h219q115 0 170.5 71t55.5 195v729q0 124 -56 195.5t-170 71.5h-219v-1262z" />
    <glyph glyph-name="E" unicode="E" horiz-adv-x="718" 
d="M176 770h391v-86h-391v-598h471v-86h-565v1434h565v-86h-471v-578z" />
    <glyph glyph-name="F" unicode="F" horiz-adv-x="688" 
d="M176 735h371v-86h-371v-649h-94v1434h545v-86h-451v-613z" />
    <glyph glyph-name="G" unicode="G" 
d="M385 1446q157 0 233 -99t76 -264v-106h-90v113q0 124 -52 197t-165 73t-165 -73t-52 -197v-746q0 -124 52 -196t165 -72t165 72t52 196v309h-190v86h280v-389q0 -165 -76 -263.5t-233 -98.5t-233 98.5t-76 263.5v733q0 165 76 264t233 99z" />
    <glyph glyph-name="H" unicode="H" horiz-adv-x="800" 
d="M623 674h-447v-674h-94v1434h94v-674h447v674h96v-1434h-96v674z" />
    <glyph glyph-name="I" unicode="I" horiz-adv-x="258" 
d="M82 1434h94v-1434h-94v1434z" />
    <glyph glyph-name="J" unicode="J" horiz-adv-x="518" 
d="M59 0v86q30 -2 84 2q104 8 153.5 68.5t49.5 189.5v1088h94v-1082q0 -181 -74 -263.5t-212 -88.5q-46 -3 -95 0z" />
    <glyph glyph-name="K" unicode="K" horiz-adv-x="827" 
d="M670 0l-396 674l-98 -156v-518h-94v1434h94v-758l467 758h98l-409 -668l436 -766h-98z" />
    <glyph glyph-name="L" unicode="L" horiz-adv-x="686" 
d="M627 0h-545v1434h94v-1348h451v-86z" />
    <glyph glyph-name="M" unicode="M" horiz-adv-x="1034" 
d="M862 1274l-299 -1272h-94l-303 1268v-1270h-84v1434h135l301 -1268l299 1268h135v-1434h-90v1274z" />
    <glyph glyph-name="N" unicode="N" horiz-adv-x="800" 
d="M168 1278v-1278h-86v1434h123l430 -1211v1211h86v-1434h-105z" />
    <glyph glyph-name="O" unicode="O" horiz-adv-x="780" 
d="M76 350v733q0 165 78.5 264t234.5 99q159 0 238.5 -99t79.5 -264v-733q0 -165 -79.5 -263.5t-238.5 -98.5q-156 0 -234.5 98.5t-78.5 263.5zM170 1090v-746q0 -125 53 -197.5t166 -72.5q115 0 169 73t54 197v746q0 124 -54 197t-169 73q-113 0 -166 -72.5t-53 -197.5z
" />
    <glyph glyph-name="P" unicode="P" horiz-adv-x="749" 
d="M82 1434h297q159 0 233 -92t74 -257v-155q0 -171 -81.5 -255.5t-250.5 -84.5h-178v-590h-94v1434zM176 676h178q125 0 181.5 59t56.5 189v168q0 124 -49 190t-164 66h-203v-672z" />
    <glyph glyph-name="Q" unicode="Q" horiz-adv-x="835" 
d="M391 1446q158 0 237 -99t79 -264v-733q0 -157 -68 -248q33 -57 113 -57h22v-84h-24q-118 0 -170 84q-77 -57 -189 -57q-158 0 -236.5 98.5t-78.5 263.5v733q0 165 78.5 264t236.5 99zM391 1360q-113 0 -167 -73t-54 -197v-746q0 -124 54 -197t167 -73t167 73t54 197v746
q0 124 -54 197t-167 73z" />
    <glyph glyph-name="R" unicode="R" horiz-adv-x="790" 
d="M82 1434h299q307 0 307 -324v-125q0 -249 -207 -297q207 -46 207 -293v-223q0 -119 35 -172h-98q-31 53 -31 172v225q0 135 -68 189.5t-200 54.5h-150v-641h-94v1434zM176 727h152q136 0 201 51.5t65 188.5v135q0 120 -51 183t-164 63h-203v-621z" />
    <glyph glyph-name="S" unicode="S" horiz-adv-x="757" 
d="M381 1446q105 0 175 -47.5t100 -126t30 -185.5v-30h-90v37q0 122 -51 194t-162 72t-162 -71t-51 -193q0 -70 28.5 -129.5t74.5 -103t101 -84t110 -83t101 -89.5t74.5 -114t28.5 -147q0 -164 -76 -261t-233 -97t-233 97t-76 261v74h90v-80q0 -123 52 -193.5t165 -70.5
t165 70.5t52 193.5q0 70 -28.5 128.5t-74.5 101.5t-101 83.5t-110 83t-101 90t-74.5 115t-28.5 148.5q0 167 75.5 261t229.5 95z" />
    <glyph glyph-name="T" unicode="T" horiz-adv-x="755" 
d="M424 0h-94v1348h-293v86h678v-86h-291v-1348z" />
    <glyph glyph-name="U" unicode="U" 
d="M172 1434v-1088q0 -125 51.5 -198.5t163.5 -73.5t163.5 73.5t51.5 198.5v1088h88v-1084q0 -164 -74.5 -263t-230.5 -99t-231.5 99t-75.5 263v1084h94z" />
    <glyph glyph-name="V" unicode="V" horiz-adv-x="888" 
d="M61 1434h97l291 -1325l290 1325h88l-311 -1434h-139z" />
    <glyph glyph-name="W" unicode="W" horiz-adv-x="1234" 
d="M627 1174l-201 -1174h-131l-232 1434h93l215 -1307l209 1300h100l201 -1296l206 1303h84l-229 -1434h-123z" />
    <glyph glyph-name="X" unicode="X" horiz-adv-x="901" 
d="M737 0l-291 668l-290 -668h-93l324 743l-301 691h98l271 -617l272 617h90l-301 -691l322 -743h-101z" />
    <glyph glyph-name="Y" unicode="Y" horiz-adv-x="849" 
d="M377 0v551l-322 883h99l274 -754l274 754h93l-324 -883v-551h-94z" />
    <glyph glyph-name="Z" unicode="Z" horiz-adv-x="794" 
d="M715 86v-86h-645v86l555 1262h-529v86h627v-88l-555 -1260h547z" />
    <glyph glyph-name="bracketleft" unicode="[" horiz-adv-x="475" 
d="M182 80h226v-80h-320v1436h320v-80h-226v-1276z" />
    <glyph glyph-name="backslash" unicode="\" horiz-adv-x="759" 
d="M55 1434h84l566 -1434h-84z" />
    <glyph glyph-name="bracketright" unicode="]" horiz-adv-x="475" 
d="M70 80h225v1276h-225v80h319v-1436h-319v80z" />
    <glyph glyph-name="asciicircum" unicode="^" horiz-adv-x="837" 
d="M418 1346l-271 -545h-79l315 633h72l315 -633h-80z" />
    <glyph glyph-name="underscore" unicode="_" horiz-adv-x="1050" 
d="M53 -20h932v-72h-932v72z" />
    <glyph glyph-name="grave" unicode="`" horiz-adv-x="403" 
d="M84 1737h102l146 -195h-74z" />
    <glyph glyph-name="a" unicode="a" horiz-adv-x="892" 
d="M666 317h-447l-72 -317h-86l314 1436h137l319 -1436h-94zM440 1327l-207 -928h418z" />
    <glyph glyph-name="b" unicode="b" horiz-adv-x="774" 
d="M82 1434h301q157 0 225 -76t68 -230v-81q0 -123 -42.5 -192t-146.5 -91q215 -43 215 -307v-125q0 -332 -313 -332h-307v1434zM176 801h160q132 0 189 48t57 179v92q0 118 -45 173t-156 55h-205v-547zM176 86h213q115 0 167 62t52 186v129q0 136 -61.5 194t-192.5 58h-178
v-629z" />
    <glyph glyph-name="c" unicode="c" horiz-adv-x="765" 
d="M385 1446q157 0 233 -99t76 -264v-118h-90v125q0 124 -52 197t-165 73t-165 -73t-52 -197v-746q0 -124 52 -196t165 -72t165 72t52 196v170h90v-164q0 -165 -76 -263.5t-233 -98.5t-233 98.5t-76 263.5v733q0 165 76 264t233 99z" />
    <glyph glyph-name="d" unicode="d" horiz-adv-x="788" 
d="M82 1434h315q160 0 239 -96t79 -261v-721q0 -165 -79 -260.5t-239 -95.5h-315v1434zM176 86h219q115 0 170.5 71t55.5 195v729q0 124 -56 195.5t-170 71.5h-219v-1262z" />
    <glyph glyph-name="e" unicode="e" horiz-adv-x="718" 
d="M176 770h391v-86h-391v-598h471v-86h-565v1434h565v-86h-471v-578z" />
    <glyph glyph-name="f" unicode="f" horiz-adv-x="688" 
d="M176 735h371v-86h-371v-649h-94v1434h545v-86h-451v-613z" />
    <glyph glyph-name="g" unicode="g" 
d="M385 1446q157 0 233 -99t76 -264v-106h-90v113q0 124 -52 197t-165 73t-165 -73t-52 -197v-746q0 -124 52 -196t165 -72t165 72t52 196v309h-190v86h280v-389q0 -165 -76 -263.5t-233 -98.5t-233 98.5t-76 263.5v733q0 165 76 264t233 99z" />
    <glyph glyph-name="h" unicode="h" horiz-adv-x="800" 
d="M623 674h-447v-674h-94v1434h94v-674h447v674h96v-1434h-96v674z" />
    <glyph glyph-name="i" unicode="i" horiz-adv-x="258" 
d="M82 1434h94v-1434h-94v1434z" />
    <glyph glyph-name="j" unicode="j" horiz-adv-x="518" 
d="M59 0v86q30 -2 84 2q104 8 153.5 68.5t49.5 189.5v1088h94v-1082q0 -181 -74 -263.5t-212 -88.5q-46 -3 -95 0z" />
    <glyph glyph-name="k" unicode="k" horiz-adv-x="827" 
d="M670 0l-396 674l-98 -156v-518h-94v1434h94v-758l467 758h98l-409 -668l436 -766h-98z" />
    <glyph glyph-name="l" unicode="l" horiz-adv-x="686" 
d="M627 0h-545v1434h94v-1348h451v-86z" />
    <glyph glyph-name="m" unicode="m" horiz-adv-x="1034" 
d="M862 1274l-299 -1272h-94l-303 1268v-1270h-84v1434h135l301 -1268l299 1268h135v-1434h-90v1274z" />
    <glyph glyph-name="n" unicode="n" horiz-adv-x="800" 
d="M168 1278v-1278h-86v1434h123l430 -1211v1211h86v-1434h-105z" />
    <glyph glyph-name="o" unicode="o" horiz-adv-x="780" 
d="M76 350v733q0 165 78.5 264t234.5 99q159 0 238.5 -99t79.5 -264v-733q0 -165 -79.5 -263.5t-238.5 -98.5q-156 0 -234.5 98.5t-78.5 263.5zM170 1090v-746q0 -125 53 -197.5t166 -72.5q115 0 169 73t54 197v746q0 124 -54 197t-169 73q-113 0 -166 -72.5t-53 -197.5z
" />
    <glyph glyph-name="p" unicode="p" horiz-adv-x="745" 
d="M82 1434h297q159 0 233 -92t74 -257v-155q0 -171 -81.5 -255.5t-250.5 -84.5h-178v-590h-94v1434zM176 676h178q125 0 181.5 59t56.5 189v168q0 124 -49 190t-164 66h-203v-672z" />
    <glyph glyph-name="q" unicode="q" horiz-adv-x="796" 
d="M391 1446q158 0 237 -99t79 -264v-733q0 -157 -68 -248q33 -57 113 -57h22v-84h-24q-118 0 -170 84q-77 -57 -189 -57q-158 0 -236.5 98.5t-78.5 263.5v733q0 165 78.5 264t236.5 99zM391 1360q-113 0 -167 -73t-54 -197v-746q0 -124 54 -197t167 -73t167 73t54 197v746
q0 124 -54 197t-167 73z" />
    <glyph glyph-name="r" unicode="r" horiz-adv-x="790" 
d="M82 1434h299q307 0 307 -324v-125q0 -249 -207 -297q207 -46 207 -293v-223q0 -119 35 -172h-98q-31 53 -31 172v225q0 135 -68 189.5t-200 54.5h-150v-641h-94v1434zM176 727h152q136 0 201 51.5t65 188.5v135q0 120 -51 183t-164 63h-203v-621z" />
    <glyph glyph-name="s" unicode="s" horiz-adv-x="757" 
d="M381 1446q105 0 175 -47.5t100 -126t30 -185.5v-30h-90v37q0 122 -51 194t-162 72t-162 -71t-51 -193q0 -70 28.5 -129.5t74.5 -103t101 -84t110 -83t101 -89.5t74.5 -114t28.5 -147q0 -164 -76 -261t-233 -97t-233 97t-76 261v74h90v-80q0 -123 52 -193.5t165 -70.5
t165 70.5t52 193.5q0 70 -28.5 128.5t-74.5 101.5t-101 83.5t-110 83t-101 90t-74.5 115t-28.5 148.5q0 167 75.5 261t229.5 95z" />
    <glyph glyph-name="t" unicode="t" horiz-adv-x="745" 
d="M418 0h-94v1348h-291v86h678v-86h-293v-1348z" />
    <glyph glyph-name="u" unicode="u" 
d="M172 1434v-1088q0 -125 51.5 -198.5t163.5 -73.5t163.5 73.5t51.5 198.5v1088h88v-1084q0 -164 -74.5 -263t-230.5 -99t-231.5 99t-75.5 263v1084h94z" />
    <glyph glyph-name="v" unicode="v" horiz-adv-x="888" 
d="M61 1434h97l291 -1325l290 1325h88l-311 -1434h-139z" />
    <glyph glyph-name="w" unicode="w" horiz-adv-x="1234" 
d="M627 1174l-201 -1174h-131l-232 1434h93l215 -1307l209 1300h100l201 -1296l206 1303h84l-229 -1434h-123z" />
    <glyph glyph-name="x" unicode="x" horiz-adv-x="901" 
d="M737 0l-291 668l-290 -668h-93l324 743l-301 691h98l271 -617l272 617h90l-301 -691l322 -743h-101z" />
    <glyph glyph-name="y" unicode="y" horiz-adv-x="849" 
d="M377 0v551l-322 883h99l274 -754l274 754h93l-324 -883v-551h-94z" />
    <glyph glyph-name="z" unicode="z" horiz-adv-x="794" 
d="M715 86v-86h-645v86l555 1262h-529v86h627v-88l-555 -1260h547z" />
    <glyph glyph-name="braceleft" unicode="{" horiz-adv-x="524" 
d="M461 1356h-45q-69 0 -94.5 -41.5t-30.5 -128.5l-12 -258q-2 -41 -7 -69.5t-18.5 -58.5t-40.5 -50.5t-68 -32.5q77 -21 103.5 -72.5t30.5 -138.5l12 -256q5 -88 30 -129t95 -41h45v-80h-76q-90 0 -132 55.5t-48 157.5l-15 281q-3 91 -26.5 130t-102.5 50v86
q79 13 102.5 51t26.5 129l15 283q6 101 48 157t132 56h76v-80z" />
    <glyph glyph-name="bar" unicode="|" horiz-adv-x="512" 
d="M221 1483h78v-1530h-78v1530z" />
    <glyph glyph-name="braceright" unicode="}" horiz-adv-x="524" 
d="M63 1436h76q91 0 132 -55.5t48 -157.5l15 -283q5 -92 28 -129.5t103 -50.5v-86q-42 -6 -68 -18.5t-39 -37.5t-17 -51t-7 -73l-15 -281q-6 -103 -47.5 -158t-132.5 -55h-76v80h48q68 0 92.5 41t29.5 129l15 256q2 43 6.5 71t18 58.5t40.5 50.5t68 31q-41 12 -68 32.5
t-40.5 50.5t-18 58t-6.5 70l-15 258q-5 87 -29.5 128.5t-92.5 41.5h-48v80z" />
    <glyph glyph-name="asciitilde" unicode="~" horiz-adv-x="813" 
d="M254 815q51 2 110 -30.5t113.5 -64.5t95.5 -30q39 1 67 28t65 83l49 -47q-43 -69 -85 -103t-94 -37q-40 -1 -85.5 18.5t-80 44t-78 45t-79.5 19.5q-44 0 -78 -27t-68 -83l-49 43q45 72 92.5 106.5t104.5 34.5z" />
    <glyph glyph-name="uni00A0" unicode="&#xa0;" horiz-adv-x="317" 
 />
    <glyph glyph-name="exclamdown" unicode="&#xa1;" horiz-adv-x="258" 
d="M84 1436h90v-181h-90v181zM82 0v668l12 450h70l12 -450v-668h-94z" />
    <glyph glyph-name="cent" unicode="&#xa2;" horiz-adv-x="772" 
d="M426 1444v-96q139 -10 204.5 -103t65.5 -246v-65h-90v70q0 260 -217 260q-111 0 -163 -72.5t-52 -196.5v-553q0 -124 52 -197t163 -73q113 0 165 71.5t52 194.5v113h90v-107q0 -155 -66 -250.5t-204 -105.5v-98h-80v98q-92 8 -153 58.5t-87 125.5t-26 174v543
q0 99 26 174.5t87 126t153 58.5v96h80z" />
    <glyph glyph-name="sterling" unicode="&#xa3;" horiz-adv-x="790" 
d="M406 1446q155 0 228 -101.5t73 -267.5v-88h-89v92q0 81 -18.5 140.5t-67 99t-124.5 39.5q-215 0 -215 -275q0 -85 19 -160.5t43 -123t54 -113t45 -121.5h301v-75h-293q11 -96 -25.5 -191t-143.5 -215h518v-86h-637v84q99 76 159 182t43 226h-176v75h162q-16 54 -47.5 119
t-55 112t-42.5 122t-19 161q0 166 74.5 265.5t233.5 99.5z" />
    <glyph glyph-name="currency" unicode="&#xa4;" horiz-adv-x="714" 
d="M639 956l-98 -96q51 -60 51 -143q0 -84 -51 -144l98 -96l-41 -41l-96 94q-59 -47 -146 -47q-81 0 -143 47l-96 -94l-41 41l96 94q-49 65 -49 146t49 143l-96 96l41 41l98 -96q62 49 141 49q81 0 146 -49l96 96zM356 889q-71 0 -121.5 -50t-50.5 -122t50.5 -122t121.5 -50
q72 0 123 50t51 122t-51 122t-123 50z" />
    <glyph glyph-name="yen" unicode="&#xa5;" horiz-adv-x="882" 
d="M711 508h-224v-150h224v-53h-224v-305h-94v305h-221v53h221v150h-221v53h213l-328 873h101l286 -766l289 766h90l-329 -873h217v-53z" />
    <glyph glyph-name="brokenbar" unicode="&#xa6;" horiz-adv-x="514" 
d="M221 838v643h80v-643h-80zM221 -47v643h80v-643h-80z" />
    <glyph glyph-name="section" unicode="&#xa7;" horiz-adv-x="774" 
d="M391 1446q132 -2 215.5 -73t83.5 -189v-39h-90v26q0 88 -59 140.5t-148 54.5q-92 0 -154 -44.5t-65 -133.5q-1 -50 27.5 -88.5t74 -65.5t101 -51.5t111.5 -53.5t102 -64t75 -91t29 -127q0 -94 -54 -162.5t-144 -109.5q46 -22 78.5 -44t62.5 -53.5t45 -73t14 -93.5
q-3 -112 -91.5 -180t-215.5 -68q-137 0 -223 69.5t-86 192.5v68h88v-58q0 -91 63 -141.5t156 -50.5q85 0 148.5 45.5t66.5 126.5q1 52 -27 91.5t-74 66t-101.5 51t-111.5 52.5t-102.5 62.5t-75 90t-28.5 126.5q0 95 61.5 164.5t155.5 102.5q-50 25 -84 47t-68 54t-51 74.5
t-16 94.5q3 119 90 186.5t221 67.5zM387 881q-87 -14 -151 -75t-64 -147q0 -29 8.5 -55t19 -45t33.5 -39t38 -31.5t47.5 -28t46.5 -22.5t49 -22q83 25 136.5 84t53.5 143q0 46 -17 83t-51 65.5t-67 47.5t-82 42z" />
    <glyph glyph-name="dieresis" unicode="&#xa8;" horiz-adv-x="389" 
d="M139 1526v174h111v-174h-111z" />
    <glyph glyph-name="copyright" unicode="&#xa9;" horiz-adv-x="1531" 
d="M766 1434q149 0 279 -54.5t221.5 -149.5t144.5 -228t53 -285t-53 -285t-144.5 -228t-221.5 -149.5t-279 -54.5q-200 0 -360 93.5t-249 257t-89 366.5t89 366.5t249 257t360 93.5zM766 1370q-181 0 -326.5 -85.5t-226 -234.5t-80.5 -333t80.5 -333t226 -235t326.5 -86
t326 86t225 235t80 333t-80 333t-225 234.5t-326 85.5zM758 1165q108 0 160.5 -68.5t52.5 -183.5v-49h-66v54q0 184 -147 184q-76 0 -112 -50.5t-36 -133.5v-402q0 -83 36 -133.5t112 -50.5q147 0 147 184v76h66v-74q0 -114 -53 -183t-160 -69q-110 0 -163.5 69t-53.5 183
v395q0 115 53.5 183.5t163.5 68.5z" />
    <glyph glyph-name="ordfeminine" unicode="&#xaa;" horiz-adv-x="559" 
d="M299 1444q180 0 180 -223v-533h-55l-4 127q-45 -137 -174 -137q-85 0 -128.5 51t-43.5 145v7q0 233 342 237v111q0 73 -26.5 114t-92.5 41q-131 0 -131 -161v-25h-62v23q0 105 47.5 164t147.5 59zM416 907v160q-55 -1 -101.5 -10t-87.5 -28t-64.5 -55t-23.5 -85v-10
q0 -68 32 -105t95 -37q66 0 104 48.5t46 121.5zM78 549h401v-64h-401v64z" />
    <glyph glyph-name="guillemotleft" unicode="&#xab;" horiz-adv-x="583" 
d="M199 207l-136 512l136 502h86l-133 -502l133 -512h-86zM434 207l-133 512l133 502h86l-133 -502l133 -512h-86z" />
    <glyph glyph-name="logicalnot" unicode="&#xac;" horiz-adv-x="778" 
d="M637 682h-565v70h635v-344h-70v274z" />
    <glyph glyph-name="uni00AD" unicode="&#xad;" horiz-adv-x="532" 
d="M78 674v86h377v-86h-377z" />
    <glyph glyph-name="registered" unicode="&#xae;" horiz-adv-x="1531" 
d="M766 1434q149 0 279 -54.5t221.5 -149.5t144.5 -228t53 -285t-53 -285t-144.5 -228t-221.5 -149.5t-279 -54.5q-200 0 -360 93.5t-249 257t-89 366.5t89 366.5t249 257t360 93.5zM766 1370q-181 0 -326.5 -85.5t-226 -234.5t-80.5 -333t80.5 -333t226 -235t326.5 -86
t326 86t225 235t80 333t-80 333t-225 234.5t-326 85.5zM563 1155h211q215 0 215 -227v-27q0 -167 -131 -207q131 -40 131 -202v-95q0 -84 25 -118h-72q-22 40 -22 120v95q0 94 -48 129.5t-141 35.5h-98v-380h-70v876zM633 725h117q88 0 129 37t41 127v31q0 85 -34.5 127.5
t-115.5 42.5h-137v-365z" />
    <glyph glyph-name="macron" unicode="&#xaf;" horiz-adv-x="518" 
d="M59 1599h398v-69h-398v69z" />
    <glyph glyph-name="degree" unicode="&#xb0;" horiz-adv-x="430" 
d="M215 1450q63 0 107.5 -43.5t44.5 -106.5t-44.5 -106t-107.5 -43t-107.5 43t-44.5 106t44.5 106.5t107.5 43.5zM215 1401q-43 0 -72.5 -29t-29.5 -72t29.5 -71.5t72.5 -28.5q42 0 72 29t30 71t-30 71.5t-72 29.5z" />
    <glyph glyph-name="plusminus" unicode="&#xb1;" horiz-adv-x="794" 
d="M78 455h284v241h-284v72h284v279h70v-279h285v-72h-285v-241h285v-72h-639v72z" />
    <glyph glyph-name="twosuperior" unicode="&#xb2;" horiz-adv-x="555" 
d="M283 1638q102 0 150 -63t48 -170q0 -73 -34 -138.5t-82.5 -117.5l-97 -104t-83.5 -118.5t-37 -140.5v-8h324v-59h-387v47q0 65 18.5 122.5t47.5 100.5t64.5 82.5t71 76.5t64.5 74.5t47.5 84t18.5 96.5q0 176 -135 176q-71 0 -103.5 -47.5t-32.5 -126.5v-62h-61v60
q0 107 48.5 171t150.5 64z" />
    <glyph glyph-name="threesuperior" unicode="&#xb3;" horiz-adv-x="555" 
d="M279 1638q100 0 148 -62.5t48 -168.5v-23q0 -68 -29 -117.5t-86 -70.5q115 -42 115 -184v-72q0 -106 -48 -168.5t-148 -62.5q-101 0 -150 62.5t-49 168.5v51h61v-55q0 -77 32.5 -122.5t102.5 -45.5q136 0 136 174v70q0 69 -35 109t-98 40h-62v60h64q59 0 96 44t35 107v33
q0 174 -136 174q-70 0 -102.5 -46t-32.5 -122v-37h-61v33q0 106 49 168.5t150 62.5z" />
    <glyph glyph-name="acute" unicode="&#xb4;" horiz-adv-x="403" 
d="M219 1737h96l-172 -195h-71z" />
    <glyph glyph-name="uni00B5" unicode="&#xb5;" horiz-adv-x="817" 
d="M629 0v186q-27 -91 -88.5 -142.5t-149.5 -51.5q-80 0 -130.5 42t-70.5 113l3 -335h-95v1212h95v-674q0 -125 51.5 -197.5t161.5 -72.5t162.5 73t52.5 197v674h94v-1024h-86z" />
    <glyph glyph-name="paragraph" unicode="&#xb6;" horiz-adv-x="811" 
d="M635 1362h-256v-1489h-72v719q-137 6 -197.5 91t-60.5 249v162q0 166 64 252.5t221 87.5h373v-1561h-72v1489z" />
    <glyph glyph-name="periodcentered" unicode="&#xb7;" horiz-adv-x="256" 
d="M82 827h92v-180h-92v180z" />
    <glyph glyph-name="cedilla" unicode="&#xb8;" horiz-adv-x="505" 
d="M281 10v-90q73 -2 113 -24.5t40 -79.5q0 -67 -52 -96t-130 -27q-75 0 -127.5 29.5t-52.5 91.5v12h67v-10q0 -40 34.5 -60t78.5 -22q45 0 79 21t34 63q0 78 -117 78h-15v114h48z" />
    <glyph glyph-name="onesuperior" unicode="&#xb9;" horiz-adv-x="364" 
d="M72 1454v51q108 5 151 123h51v-909h-65v805q-55 -61 -137 -70z" />
    <glyph glyph-name="ordmasculine" unicode="&#xba;" horiz-adv-x="561" 
d="M281 1444q101 0 151.5 -63.5t50.5 -168.5v-309q0 -105 -50.5 -168t-151.5 -63q-102 0 -152.5 63t-50.5 168v309q0 105 51 168.5t152 63.5zM281 1384q-72 0 -106 -45t-34 -122v-318q0 -77 34.5 -122.5t105.5 -45.5q70 0 103.5 45.5t33.5 122.5v318q0 77 -33.5 122
t-103.5 45zM80 551h403v-64h-403v64z" />
    <glyph glyph-name="guillemotright" unicode="&#xbb;" horiz-adv-x="583" 
d="M63 207l134 512l-134 502h87l135 -502l-135 -512h-87zM301 207l131 512l-131 502h86l133 -502l-133 -512h-86z" />
    <glyph glyph-name="onequarter" unicode="&#xbc;" horiz-adv-x="1081" 
d="M238 524v805q-54 -60 -136 -69l-2 51q112 5 152 123h51v-910h-65zM856 1434l-565 -1434h-60l566 1434h59zM940 197v-197h-63v197h-312v59l301 653h74v-653h74v-59h-74zM627 256h250v530z" />
    <glyph glyph-name="onehalf" unicode="&#xbd;" horiz-adv-x="1173" 
d="M238 524v805q-54 -60 -136 -69l-2 51q112 5 152 123h51v-910h-65zM774 1434h62l-566 -1434h-61zM899 920q103 0 151 -63.5t48 -170.5q0 -53 -18 -102t-47 -88.5t-64 -77.5l-70 -76t-64.5 -78t-48.5 -90t-20 -104v-11h321v-59h-387v47q0 65 18.5 122.5t48 100.5t65 82.5
t71 76.5t65 74.5t48 84t18.5 96.5q0 176 -135 176q-71 0 -104 -47.5t-33 -126.5v-61h-62v59q0 106 49 171t150 65z" />
    <glyph glyph-name="threequarters" unicode="&#xbe;" horiz-adv-x="1183" 
d="M279 1444q100 0 148 -63t48 -169v-22q0 -68 -29 -118t-86 -71q115 -42 115 -184v-72q0 -106 -48 -168.5t-148 -62.5q-101 0 -150 62.5t-49 168.5v52h61v-56q0 -77 32.5 -122.5t102.5 -45.5t103 47t33 128v69q0 69 -35 109.5t-98 40.5h-62v59h64q59 0 96 44.5t35 107.5v32
q0 174 -136 174q-70 0 -102.5 -45.5t-32.5 -121.5v-37h-61v32q0 106 49 169t150 63zM340 0l565 1434h62l-566 -1434h-61zM977 0v197h-309v59l301 653h73v-653h74v-59h-74v-197h-65zM977 786l-248 -530h248v530z" />
    <glyph glyph-name="questiondown" unicode="&#xbf;" horiz-adv-x="743" 
d="M352 1434h92v-179h-92v179zM354 1114h84q13 -41 13 -80q0 -63 -16.5 -119.5t-42.5 -99.5t-57 -84.5t-62 -82.5t-57 -84t-42 -98.5t-16 -117.5q0 -274 215 -274q77 0 126 38.5t68 97.5t19 140v101h90v-95q0 -166 -74.5 -267t-230.5 -101q-159 0 -233.5 99t-74.5 265
q0 89 31 165.5t74.5 133.5t87.5 112t75 125.5t31 149.5q0 43 -8 76z" />
    <glyph glyph-name="Agrave" unicode="&#xc0;" horiz-adv-x="892" 
d="M276 1704h103l145 -195h-73zM666 317h-447l-72 -317h-86l314 1436h137l319 -1436h-94zM440 1327l-207 -928h418z" />
    <glyph glyph-name="Aacute" unicode="&#xc1;" horiz-adv-x="892" 
d="M496 1706h98l-172 -195h-72zM666 317h-447l-72 -317h-86l314 1436h137l319 -1436h-94zM440 1327l-207 -928h418z" />
    <glyph glyph-name="Acircumflex" unicode="&#xc2;" horiz-adv-x="892" 
d="M442 1638l-125 -129h-88l172 185h82l174 -185h-90zM666 317h-447l-72 -317h-86l314 1436h137l319 -1436h-94zM440 1327l-207 -928h418z" />
    <glyph glyph-name="Atilde" unicode="&#xc3;" horiz-adv-x="892" 
d="M348 1667q41 0 101.5 -35.5t89.5 -34.5q45 3 75 64l52 -35q-44 -96 -119 -96q-40 -2 -100 33t-91 34q-55 0 -86 -61l-51 33q44 95 129 98zM666 317h-447l-72 -317h-86l314 1436h137l319 -1436h-94zM440 1327l-207 -928h418z" />
    <glyph glyph-name="Adieresis" unicode="&#xc4;" horiz-adv-x="892" 
d="M301 1681h84v-172h-84v172zM500 1681h84v-172h-84v172zM666 317h-447l-72 -317h-86l314 1436h137l319 -1436h-94zM440 1327l-207 -928h418z" />
    <glyph glyph-name="Aring" unicode="&#xc5;" horiz-adv-x="892" 
d="M442 1786q57 0 97.5 -39t40.5 -96q0 -58 -40.5 -98t-97.5 -40q-58 0 -97.5 39.5t-39.5 98.5q0 57 39.5 96t97.5 39zM442 1735q-37 0 -62.5 -24t-25.5 -60q0 -38 25.5 -62t62.5 -24q36 0 62 24.5t26 61.5q0 36 -26 60t-62 24zM666 317h-447l-72 -317h-86l314 1436h137
l319 -1436h-94zM440 1327l-207 -928h418z" />
    <glyph glyph-name="AE" unicode="&#xc6;" horiz-adv-x="1206" 
d="M715 770h346v-86h-346v-598h418v-86h-512v322h-359l-117 -322h-90l510 1434h568v-86h-418v-578zM621 1317l-334 -911h334v911z" />
    <glyph glyph-name="Ccedilla" unicode="&#xc7;" horiz-adv-x="765" 
d="M385 1446q157 0 233 -99t76 -264v-118h-90v125q0 124 -52 197t-165 73t-165 -73t-52 -197v-746q0 -124 52 -196t165 -72t165 72t52 196v170h90v-164q0 -159 -70.5 -257t-215.5 -105v-58q72 -2 112.5 -32t40.5 -82q0 -63 -48 -97.5t-134 -33.5q-85 0 -132.5 34t-47.5 95
v12h65v-10q0 -34 30.5 -55.5t84.5 -24.5q55 0 86 22t31 60q0 35 -32.5 55.5t-90.5 20.5h-15v96q-144 7 -213 104.5t-69 255.5v733q0 165 76 264t233 99z" />
    <glyph glyph-name="Egrave" unicode="&#xc8;" horiz-adv-x="718" 
d="M211 1724h102l146 -194h-76zM176 770h391v-86h-391v-598h471v-86h-565v1434h565v-86h-471v-578z" />
    <glyph glyph-name="Eacute" unicode="&#xc9;" horiz-adv-x="718" 
d="M434 1710h98l-172 -194h-71zM176 770h391v-86h-391v-598h471v-86h-565v1434h565v-86h-471v-578z" />
    <glyph glyph-name="Ecircumflex" unicode="&#xca;" horiz-adv-x="718" 
d="M362 1649l-124 -131h-88l172 184h81l175 -184h-91zM176 770h391v-86h-391v-598h471v-86h-565v1434h565v-86h-471v-578z" />
    <glyph glyph-name="Edieresis" unicode="&#xcb;" horiz-adv-x="718" 
d="M223 1690h82v-174h-82v174zM420 1690h84v-174h-84v174zM176 770h391v-86h-391v-598h471v-86h-565v1434h565v-86h-471v-578z" />
    <glyph glyph-name="Igrave" unicode="&#xcc;" horiz-adv-x="258" 
d="M123 1516l-172 194h100l146 -194h-74zM82 0v1434h94v-1434h-94z" />
    <glyph glyph-name="Iacute" unicode="&#xcd;" horiz-adv-x="258" 
d="M51 1518l146 194h98l-172 -194h-72zM82 0v1434h94v-1434h-94z" />
    <glyph glyph-name="Icircumflex" unicode="&#xce;" horiz-adv-x="258" 
d="M88 1700h82l172 -184h-88l-125 131l-125 -131h-88zM82 0v1434h94v-1434h-94z" />
    <glyph glyph-name="Idieresis" unicode="&#xcf;" horiz-adv-x="258" 
d="M-12 1690h84v-172h-84v172zM186 1690h84v-172h-84v172zM82 1434h94v-1434h-94v1434z" />
    <glyph glyph-name="Eth" unicode="&#xd0;" horiz-adv-x="788" 
d="M82 1434h315q160 0 239 -96t79 -261v-721q0 -165 -79 -260.5t-239 -95.5h-315v678h-94v78h94v678zM358 756v-78h-182v-592h219q115 0 170.5 71t55.5 195v729q0 124 -56 195.5t-170 71.5h-219v-592h182z" />
    <glyph glyph-name="Ntilde" unicode="&#xd1;" horiz-adv-x="800" 
d="M575 1677l50 -35q-39 -93 -119 -96q-39 -1 -99 34t-92 34q-49 0 -86 -62l-49 33q41 95 127 98q41 1 101.5 -34t89.5 -33q46 0 77 61zM168 1278v-1278h-86v1434h123l430 -1211v1211h86v-1434h-105z" />
    <glyph glyph-name="Ograve" unicode="&#xd2;" horiz-adv-x="780" 
d="M221 1724h103l145 -194h-76zM389 1446q159 0 238.5 -99t79.5 -264v-733q0 -165 -79.5 -263.5t-238.5 -98.5q-156 0 -234.5 98.5t-78.5 263.5v733q0 165 78.5 264t234.5 99zM389 1360q-113 0 -166 -72.5t-53 -197.5v-746q0 -125 53 -197.5t166 -72.5q115 0 169 73t54 197
v746q0 124 -54 197t-169 73z" />
    <glyph glyph-name="Oacute" unicode="&#xd3;" horiz-adv-x="780" 
d="M457 1724h98l-172 -194h-72zM389 1446q159 0 238.5 -99t79.5 -264v-733q0 -165 -79.5 -263.5t-238.5 -98.5q-156 0 -234.5 98.5t-78.5 263.5v733q0 165 78.5 264t234.5 99zM389 1360q-113 0 -166 -72.5t-53 -197.5v-746q0 -125 53 -197.5t166 -72.5q115 0 169 73t54 197
v746q0 124 -54 197t-169 73z" />
    <glyph glyph-name="Ocircumflex" unicode="&#xd4;" horiz-adv-x="780" 
d="M389 1657l-125 -131h-88l172 184h82l172 -184h-88zM389 1446q159 0 238.5 -99t79.5 -264v-733q0 -165 -79.5 -263.5t-238.5 -98.5q-156 0 -234.5 98.5t-78.5 263.5v733q0 165 78.5 264t234.5 99zM389 1360q-113 0 -166 -72.5t-53 -197.5v-746q0 -125 53 -197.5t166 -72.5
q115 0 169 73t54 197v746q0 124 -54 197t-169 73z" />
    <glyph glyph-name="Otilde" unicode="&#xd5;" horiz-adv-x="780" 
d="M569 1671l52 -33q-40 -95 -119 -98q-40 -1 -100 34.5t-91 35.5q-55 0 -86 -64l-51 35q46 96 129 96q41 1 102 -33.5t89 -33.5q48 3 75 61zM389 1446q159 0 238.5 -99t79.5 -264v-733q0 -165 -79.5 -263.5t-238.5 -98.5q-156 0 -234.5 98.5t-78.5 263.5v733
q0 165 78.5 264t234.5 99zM389 1360q-113 0 -166 -72.5t-53 -197.5v-746q0 -125 53 -197.5t166 -72.5q115 0 169 73t54 197v746q0 124 -54 197t-169 73z" />
    <glyph glyph-name="Odieresis" unicode="&#xd6;" horiz-adv-x="780" 
d="M248 1700h84v-174h-84v174zM446 1700h84v-174h-84v174zM389 1446q159 0 238.5 -99t79.5 -264v-733q0 -165 -79.5 -263.5t-238.5 -98.5q-156 0 -234.5 98.5t-78.5 263.5v733q0 165 78.5 264t234.5 99zM389 1360q-113 0 -166 -72.5t-53 -197.5v-746q0 -125 53 -197.5
t166 -72.5q115 0 169 73t54 197v746q0 124 -54 197t-169 73z" />
    <glyph glyph-name="multiply" unicode="&#xd7;" horiz-adv-x="690" 
d="M608 500l-47 -49l-215 217l-217 -217l-49 49l217 215l-215 215l47 49l217 -215l215 215l47 -47l-215 -217z" />
    <glyph glyph-name="Oslash" unicode="&#xd8;" horiz-adv-x="780" 
d="M694 1448l-47 -127q60 -89 60 -238v-733q0 -165 -79.5 -263.5t-238.5 -98.5q-140 0 -219 82l-41 -105l-47 17l51 135q-57 89 -57 233v733q0 165 78.5 264t234.5 99q139 0 221 -82l39 100zM170 1090v-746q0 -49 10 -104l393 1026q-58 94 -184 94q-113 0 -166 -72.5
t-53 -197.5zM612 344v746q0 58 -12 110l-393 -1030q57 -96 182 -96q115 0 169 73t54 197z" />
    <glyph glyph-name="Ugrave" unicode="&#xd9;" 
d="M215 1712h102l146 -194h-76zM690 1434v-1084q0 -164 -74.5 -263t-230.5 -99t-231.5 99t-75.5 263v1084h94v-1088q0 -125 51.5 -198.5t163.5 -73.5t163.5 73.5t51.5 198.5v1088h88z" />
    <glyph glyph-name="Uacute" unicode="&#xda;" 
d="M465 1724h98l-172 -194h-72zM690 1434v-1084q0 -164 -74.5 -263t-230.5 -99t-231.5 99t-75.5 263v1084h94v-1088q0 -125 51.5 -198.5t163.5 -73.5t163.5 73.5t51.5 198.5v1088h88z" />
    <glyph glyph-name="Ucircumflex" unicode="&#xdb;" 
d="M387 1657l-125 -131h-88l172 184h82l174 -184h-90zM690 1434v-1084q0 -164 -74.5 -263t-230.5 -99t-231.5 99t-75.5 263v1084h94v-1088q0 -125 51.5 -198.5t163.5 -73.5t163.5 73.5t51.5 198.5v1088h88z" />
    <glyph glyph-name="Udieresis" unicode="&#xdc;" 
d="M244 1696h84v-174h-84v174zM442 1696h84v-174h-84v174zM690 1434v-1084q0 -164 -74.5 -263t-230.5 -99t-231.5 99t-75.5 263v1084h94v-1088q0 -125 51.5 -198.5t163.5 -73.5t163.5 73.5t51.5 198.5v1088h88z" />
    <glyph glyph-name="Yacute" unicode="&#xdd;" horiz-adv-x="849" 
d="M506 1710h96l-172 -194h-72zM377 0v551l-322 883h99l274 -754l274 754h93l-324 -883v-551h-94z" />
    <glyph glyph-name="Thorn" unicode="&#xde;" horiz-adv-x="772" 
d="M176 1184h203q307 0 307 -348v-156q0 -171 -81.5 -255.5t-250.5 -84.5h-178v-340h-94v1434h94v-250zM176 426h178q125 0 181.5 59t56.5 189v166q0 125 -49 190.5t-164 65.5h-203v-670z" />
    <glyph glyph-name="germandbls" unicode="&#xdf;" horiz-adv-x="1458" 
d="M375 1446q105 0 175 -47.5t100 -126t30 -185.5v-30h-90v37q0 122 -51 194t-162 72t-162 -71t-51 -193q0 -70 28.5 -129.5t74.5 -103t101 -84t110 -83t101 -89.5t74.5 -114t28.5 -147q0 -164 -76 -261t-233 -97t-233.5 97t-76.5 261v74h91v-80q0 -123 52 -193.5t165 -70.5
q112 0 164.5 71t52.5 193q0 70 -28.5 128.5t-74.5 101.5t-101 83.5t-110 83t-101 90t-74.5 115t-28.5 148.5q0 167 75.5 261t229.5 95zM1085 1446q156 0 231 -97.5t75 -261.5v-30h-91v37q0 122 -51 194t-162 72t-162 -71t-51 -193q0 -70 28.5 -129.5t74.5 -103t101.5 -84
t110.5 -83t101 -89.5t74.5 -114t28.5 -147q0 -164 -76.5 -261t-233.5 -97t-233 97t-76 261v74h90v-80q0 -123 52 -193.5t165 -70.5t165 70.5t52 193.5q0 70 -28.5 128.5t-74.5 101.5t-101 83.5t-110 83t-101 90t-74.5 115t-28.5 148.5q0 167 75.5 261t229.5 95z" />
    <glyph glyph-name="agrave" unicode="&#xe0;" horiz-adv-x="892" 
d="M276 1704h103l145 -195h-73zM666 317h-447l-72 -317h-86l314 1436h137l319 -1436h-94zM440 1327l-207 -928h418z" />
    <glyph glyph-name="aacute" unicode="&#xe1;" horiz-adv-x="892" 
d="M496 1706h98l-172 -195h-72zM666 317h-447l-72 -317h-86l314 1436h137l319 -1436h-94zM440 1327l-207 -928h418z" />
    <glyph glyph-name="acircumflex" unicode="&#xe2;" horiz-adv-x="892" 
d="M442 1638l-125 -129h-88l172 185h82l174 -185h-90zM666 317h-447l-72 -317h-86l314 1436h137l319 -1436h-94zM440 1327l-207 -928h418z" />
    <glyph glyph-name="atilde" unicode="&#xe3;" horiz-adv-x="892" 
d="M348 1667q41 0 101.5 -35.5t89.5 -34.5q45 3 75 64l52 -35q-44 -96 -119 -96q-40 -2 -100 33t-91 34q-55 0 -86 -61l-51 33q44 95 129 98zM666 317h-447l-72 -317h-86l314 1436h137l319 -1436h-94zM440 1327l-207 -928h418z" />
    <glyph glyph-name="adieresis" unicode="&#xe4;" horiz-adv-x="892" 
d="M301 1681h84v-172h-84v172zM500 1681h84v-172h-84v172zM666 317h-447l-72 -317h-86l314 1436h137l319 -1436h-94zM440 1327l-207 -928h418z" />
    <glyph glyph-name="aring" unicode="&#xe5;" horiz-adv-x="892" 
d="M442 1786q57 0 97.5 -39t40.5 -96q0 -58 -40.5 -98t-97.5 -40q-58 0 -97.5 39.5t-39.5 98.5q0 57 39.5 96t97.5 39zM442 1735q-37 0 -62.5 -24t-25.5 -60q0 -38 25.5 -62t62.5 -24q36 0 62 24.5t26 61.5q0 36 -26 60t-62 24zM666 317h-447l-72 -317h-86l314 1436h137
l319 -1436h-94zM440 1327l-207 -928h418z" />
    <glyph glyph-name="ae" unicode="&#xe6;" horiz-adv-x="1206" 
d="M715 770h346v-86h-346v-598h418v-86h-512v322h-359l-117 -322h-90l510 1434h568v-86h-418v-578zM621 1317l-334 -911h334v911z" />
    <glyph glyph-name="ccedilla" unicode="&#xe7;" horiz-adv-x="765" 
d="M385 1446q157 0 233 -99t76 -264v-118h-90v125q0 124 -52 197t-165 73t-165 -73t-52 -197v-746q0 -124 52 -196t165 -72t165 72t52 196v170h90v-164q0 -159 -70.5 -257t-215.5 -105v-58q72 -2 112.5 -32t40.5 -82q0 -63 -48 -97.5t-134 -33.5q-85 0 -132.5 34t-47.5 95
v12h65v-10q0 -34 30.5 -55.5t84.5 -24.5q55 0 86 22t31 60q0 35 -32.5 55.5t-90.5 20.5h-15v96q-144 7 -213 104.5t-69 255.5v733q0 165 76 264t233 99z" />
    <glyph glyph-name="egrave" unicode="&#xe8;" horiz-adv-x="718" 
d="M211 1724h102l146 -194h-76zM176 770h391v-86h-391v-598h471v-86h-565v1434h565v-86h-471v-578z" />
    <glyph glyph-name="eacute" unicode="&#xe9;" horiz-adv-x="718" 
d="M434 1710h98l-172 -194h-71zM176 770h391v-86h-391v-598h471v-86h-565v1434h565v-86h-471v-578z" />
    <glyph glyph-name="ecircumflex" unicode="&#xea;" horiz-adv-x="718" 
d="M362 1649l-124 -131h-88l172 184h81l175 -184h-91zM176 770h391v-86h-391v-598h471v-86h-565v1434h565v-86h-471v-578z" />
    <glyph glyph-name="edieresis" unicode="&#xeb;" horiz-adv-x="718" 
d="M223 1690h82v-174h-82v174zM420 1690h84v-174h-84v174zM176 770h391v-86h-391v-598h471v-86h-565v1434h565v-86h-471v-578z" />
    <glyph glyph-name="igrave" unicode="&#xec;" horiz-adv-x="258" 
d="M123 1516l-172 194h100l146 -194h-74zM82 0v1434h94v-1434h-94z" />
    <glyph glyph-name="iacute" unicode="&#xed;" horiz-adv-x="258" 
d="M51 1518l146 194h98l-172 -194h-72zM82 0v1434h94v-1434h-94z" />
    <glyph glyph-name="icircumflex" unicode="&#xee;" horiz-adv-x="258" 
d="M88 1700h82l172 -184h-88l-125 131l-125 -131h-88zM82 0v1434h94v-1434h-94z" />
    <glyph glyph-name="idieresis" unicode="&#xef;" horiz-adv-x="258" 
d="M-12 1690h84v-172h-84v172zM186 1690h84v-172h-84v172zM82 1434h94v-1434h-94v1434z" />
    <glyph glyph-name="eth" unicode="&#xf0;" horiz-adv-x="788" 
d="M82 1434h315q160 0 239 -96t79 -261v-721q0 -165 -79 -260.5t-239 -95.5h-315v676h-86v78h86v680zM360 754v-78h-184v-590h219q115 0 170.5 71t55.5 195v729q0 124 -56 195.5t-170 71.5h-219v-594h184z" />
    <glyph glyph-name="ntilde" unicode="&#xf1;" horiz-adv-x="800" 
d="M575 1677l50 -35q-39 -93 -119 -96q-39 -1 -99 34t-92 34q-49 0 -86 -62l-49 33q41 95 127 98q41 1 101.5 -34t89.5 -33q46 0 77 61zM168 1278v-1278h-86v1434h123l430 -1211v1211h86v-1434h-105z" />
    <glyph glyph-name="ograve" unicode="&#xf2;" horiz-adv-x="780" 
d="M221 1724h103l145 -194h-76zM389 1446q159 0 238.5 -99t79.5 -264v-733q0 -165 -79.5 -263.5t-238.5 -98.5q-156 0 -234.5 98.5t-78.5 263.5v733q0 165 78.5 264t234.5 99zM389 1360q-113 0 -166 -72.5t-53 -197.5v-746q0 -125 53 -197.5t166 -72.5q115 0 169 73t54 197
v746q0 124 -54 197t-169 73z" />
    <glyph glyph-name="oacute" unicode="&#xf3;" horiz-adv-x="780" 
d="M457 1724h98l-172 -194h-72zM389 1446q159 0 238.5 -99t79.5 -264v-733q0 -165 -79.5 -263.5t-238.5 -98.5q-156 0 -234.5 98.5t-78.5 263.5v733q0 165 78.5 264t234.5 99zM389 1360q-113 0 -166 -72.5t-53 -197.5v-746q0 -125 53 -197.5t166 -72.5q115 0 169 73t54 197
v746q0 124 -54 197t-169 73z" />
    <glyph glyph-name="ocircumflex" unicode="&#xf4;" horiz-adv-x="780" 
d="M389 1657l-125 -131h-88l172 184h82l172 -184h-88zM389 1446q159 0 238.5 -99t79.5 -264v-733q0 -165 -79.5 -263.5t-238.5 -98.5q-156 0 -234.5 98.5t-78.5 263.5v733q0 165 78.5 264t234.5 99zM389 1360q-113 0 -166 -72.5t-53 -197.5v-746q0 -125 53 -197.5t166 -72.5
q115 0 169 73t54 197v746q0 124 -54 197t-169 73z" />
    <glyph glyph-name="otilde" unicode="&#xf5;" horiz-adv-x="780" 
d="M569 1671l52 -33q-40 -95 -119 -98q-40 -1 -100 34.5t-91 35.5q-55 0 -86 -64l-51 35q46 96 129 96q41 1 102 -33.5t89 -33.5q48 3 75 61zM389 1446q159 0 238.5 -99t79.5 -264v-733q0 -165 -79.5 -263.5t-238.5 -98.5q-156 0 -234.5 98.5t-78.5 263.5v733
q0 165 78.5 264t234.5 99zM389 1360q-113 0 -166 -72.5t-53 -197.5v-746q0 -125 53 -197.5t166 -72.5q115 0 169 73t54 197v746q0 124 -54 197t-169 73z" />
    <glyph glyph-name="odieresis" unicode="&#xf6;" horiz-adv-x="780" 
d="M248 1700h84v-174h-84v174zM446 1700h84v-174h-84v174zM389 1446q159 0 238.5 -99t79.5 -264v-733q0 -165 -79.5 -263.5t-238.5 -98.5q-156 0 -234.5 98.5t-78.5 263.5v733q0 165 78.5 264t234.5 99zM389 1360q-113 0 -166 -72.5t-53 -197.5v-746q0 -125 53 -197.5
t166 -72.5q115 0 169 73t54 197v746q0 124 -54 197t-169 73z" />
    <glyph glyph-name="divide" unicode="&#xf7;" horiz-adv-x="624" 
d="M266 1022h90v-180h-90v180zM72 752h483v-70h-483v70zM266 592h90v-180h-90v180z" />
    <glyph glyph-name="oslash" unicode="&#xf8;" horiz-adv-x="780" 
d="M694 1448l-47 -127q60 -89 60 -238v-733q0 -165 -79.5 -263.5t-238.5 -98.5q-140 0 -219 82l-41 -105l-47 17l51 135q-57 89 -57 233v733q0 165 78.5 264t234.5 99q139 0 221 -82l39 100zM170 1090v-746q0 -49 10 -104l393 1026q-58 94 -184 94q-113 0 -166 -72.5
t-53 -197.5zM612 344v746q0 58 -12 110l-393 -1030q57 -96 182 -96q115 0 169 73t54 197z" />
    <glyph glyph-name="ugrave" unicode="&#xf9;" 
d="M215 1712h102l146 -194h-76zM690 1434v-1084q0 -164 -74.5 -263t-230.5 -99t-231.5 99t-75.5 263v1084h94v-1088q0 -125 51.5 -198.5t163.5 -73.5t163.5 73.5t51.5 198.5v1088h88z" />
    <glyph glyph-name="uacute" unicode="&#xfa;" 
d="M465 1724h98l-172 -194h-72zM690 1434v-1084q0 -164 -74.5 -263t-230.5 -99t-231.5 99t-75.5 263v1084h94v-1088q0 -125 51.5 -198.5t163.5 -73.5t163.5 73.5t51.5 198.5v1088h88z" />
    <glyph glyph-name="ucircumflex" unicode="&#xfb;" 
d="M387 1657l-125 -131h-88l172 184h82l174 -184h-90zM690 1434v-1084q0 -164 -74.5 -263t-230.5 -99t-231.5 99t-75.5 263v1084h94v-1088q0 -125 51.5 -198.5t163.5 -73.5t163.5 73.5t51.5 198.5v1088h88z" />
    <glyph glyph-name="udieresis" unicode="&#xfc;" 
d="M244 1696h84v-174h-84v174zM442 1696h84v-174h-84v174zM690 1434v-1084q0 -164 -74.5 -263t-230.5 -99t-231.5 99t-75.5 263v1084h94v-1088q0 -125 51.5 -198.5t163.5 -73.5t163.5 73.5t51.5 198.5v1088h88z" />
    <glyph glyph-name="yacute" unicode="&#xfd;" horiz-adv-x="849" 
d="M506 1710h96l-172 -194h-72zM377 0v551l-322 883h99l274 -754l274 754h93l-324 -883v-551h-94z" />
    <glyph glyph-name="thorn" unicode="&#xfe;" horiz-adv-x="772" 
d="M176 1184h203q307 0 307 -348v-156q0 -171 -81.5 -255.5t-250.5 -84.5h-178v-340h-94v1434h94v-250zM176 426h178q125 0 181.5 59t56.5 189v166q0 125 -49 190.5t-164 65.5h-203v-670z" />
    <glyph glyph-name="ydieresis" unicode="&#xff;" horiz-adv-x="849" 
d="M285 1690h84v-172h-84v172zM483 1690h84v-172h-84v172zM377 0v551l-322 883h99l274 -754l274 754h93l-324 -883v-551h-94z" />
    <glyph glyph-name="Amacron" unicode="&#x100;" horiz-adv-x="892" 
d="M244 1624h399v-68h-399v68zM666 317h-447l-72 -317h-86l314 1436h137l319 -1436h-94zM440 1327l-207 -928h418z" />
    <glyph glyph-name="amacron" unicode="&#x101;" horiz-adv-x="892" 
d="M244 1624h399v-68h-399v68zM666 317h-447l-72 -317h-86l314 1436h137l319 -1436h-94zM440 1327l-207 -928h418z" />
    <glyph glyph-name="Abreve" unicode="&#x102;" horiz-adv-x="892" 
d="M582 1681h61q-3 -84 -58 -132t-143 -48q-87 0 -141 47.5t-55 132.5h61q1 -58 39 -87t96 -29t97.5 29t42.5 87zM666 317h-447l-72 -317h-86l314 1436h137l319 -1436h-94zM440 1327l-207 -928h418z" />
    <glyph glyph-name="abreve" unicode="&#x103;" horiz-adv-x="892" 
d="M582 1681h61q-3 -84 -58 -132t-143 -48q-87 0 -141 47.5t-55 132.5h61q1 -58 39 -87t96 -29t97.5 29t42.5 87zM666 317h-447l-72 -317h-86l314 1436h137l319 -1436h-94zM440 1327l-207 -928h418z" />
    <glyph glyph-name="Aogonek" unicode="&#x104;" horiz-adv-x="892" 
d="M831 0h-18q-47 -38 -75 -83.5t-25 -82.5q3 -59 82 -59q49 0 90 26v-61q-53 -27 -115 -27q-59 2 -94.5 27.5t-36.5 77.5q-1 45 26 92.5t72 85.5l-71 321h-447l-72 -317h-86l314 1436h137zM440 1327l-207 -928h418z" />
    <glyph glyph-name="aogonek" unicode="&#x105;" horiz-adv-x="892" 
d="M831 0h-30q-39 -31 -64 -78.5t-22 -85.5q1 -32 24 -48.5t56 -16.5q49 0 90 26v-57q-53 -27 -115 -27q-59 2 -94.5 27.5t-36.5 77.5q-1 45 26 92.5t72 85.5l-71 321h-447l-72 -317h-86l314 1436h137zM440 1327l-207 -928h418z" />
    <glyph glyph-name="Cacute" unicode="&#x106;" horiz-adv-x="765" 
d="M461 1724h98l-172 -194h-72zM385 1446q157 0 233 -99t76 -264v-118h-90v125q0 124 -52 197t-165 73t-165 -73t-52 -197v-746q0 -124 52 -196t165 -72t165 72t52 196v170h90v-164q0 -165 -76 -263.5t-233 -98.5t-233 98.5t-76 263.5v733q0 165 76 264t233 99z" />
    <glyph glyph-name="cacute" unicode="&#x107;" horiz-adv-x="765" 
d="M461 1724h98l-172 -194h-72zM385 1446q157 0 233 -99t76 -264v-118h-90v125q0 124 -52 197t-165 73t-165 -73t-52 -197v-746q0 -124 52 -196t165 -72t165 72t52 196v170h90v-164q0 -165 -76 -263.5t-233 -98.5t-233 98.5t-76 263.5v733q0 165 76 264t233 99z" />
    <glyph glyph-name="Ccircumflex" unicode="&#x108;" horiz-adv-x="765" 
d="M391 1653l-125 -131h-88l172 184h82l174 -184h-90zM385 1446q157 0 233 -99t76 -264v-118h-90v125q0 124 -52 197t-165 73t-165 -73t-52 -197v-746q0 -124 52 -196t165 -72t165 72t52 196v170h90v-164q0 -165 -76 -263.5t-233 -98.5t-233 98.5t-76 263.5v733
q0 165 76 264t233 99z" />
    <glyph glyph-name="ccircumflex" unicode="&#x109;" horiz-adv-x="765" 
d="M391 1653l-125 -131h-88l172 184h82l174 -184h-90zM385 1446q157 0 233 -99t76 -264v-118h-90v125q0 124 -52 197t-165 73t-165 -73t-52 -197v-746q0 -124 52 -196t165 -72t165 72t52 196v170h90v-164q0 -165 -76 -263.5t-233 -98.5t-233 98.5t-76 263.5v733
q0 165 76 264t233 99z" />
    <glyph glyph-name="Cdotaccent" unicode="&#x10a;" horiz-adv-x="765" 
d="M342 1688h84v-172h-84v172zM385 1446q157 0 233 -99t76 -264v-118h-90v125q0 124 -52 197t-165 73t-165 -73t-52 -197v-746q0 -124 52 -196t165 -72t165 72t52 196v170h90v-164q0 -165 -76 -263.5t-233 -98.5t-233 98.5t-76 263.5v733q0 165 76 264t233 99z" />
    <glyph glyph-name="cdotaccent" unicode="&#x10b;" horiz-adv-x="765" 
d="M342 1688h84v-172h-84v172zM385 1446q157 0 233 -99t76 -264v-118h-90v125q0 124 -52 197t-165 73t-165 -73t-52 -197v-746q0 -124 52 -196t165 -72t165 72t52 196v170h90v-164q0 -165 -76 -263.5t-233 -98.5t-233 98.5t-76 263.5v733q0 165 76 264t233 99z" />
    <glyph glyph-name="Ccaron" unicode="&#x10c;" horiz-adv-x="765" 
d="M182 1708h86l127 -131l125 131h88l-172 -184h-82zM385 1446q157 0 233 -99t76 -264v-118h-90v125q0 124 -52 197t-165 73t-165 -73t-52 -197v-746q0 -124 52 -196t165 -72t165 72t52 196v170h90v-164q0 -165 -76 -263.5t-233 -98.5t-233 98.5t-76 263.5v733q0 165 76 264
t233 99z" />
    <glyph glyph-name="ccaron" unicode="&#x10d;" horiz-adv-x="765" 
d="M182 1708h86l127 -131l125 131h88l-172 -184h-82zM385 1446q157 0 233 -99t76 -264v-118h-90v125q0 124 -52 197t-165 73t-165 -73t-52 -197v-746q0 -124 52 -196t165 -72t165 72t52 196v170h90v-164q0 -165 -76 -263.5t-233 -98.5t-233 98.5t-76 263.5v733q0 165 76 264
t233 99z" />
    <glyph glyph-name="Dcaron" unicode="&#x10e;" horiz-adv-x="788" 
d="M160 1700h88l125 -131l125 131h90l-174 -184h-82zM82 1434h315q160 0 239 -96t79 -261v-721q0 -165 -79 -260.5t-239 -95.5h-315v1434zM176 86h219q115 0 170.5 71t55.5 195v729q0 124 -56 195.5t-170 71.5h-219v-1262z" />
    <glyph glyph-name="dcaron" unicode="&#x10f;" horiz-adv-x="788" 
d="M160 1700h88l125 -131l125 131h90l-174 -184h-82zM82 1434h315q160 0 239 -96t79 -261v-721q0 -165 -79 -260.5t-239 -95.5h-315v1434zM176 86h219q115 0 170.5 71t55.5 195v729q0 124 -56 195.5t-170 71.5h-219v-1262z" />
    <glyph glyph-name="Dcroat" unicode="&#x110;" horiz-adv-x="788" 
d="M82 1434h315q160 0 239 -96t79 -261v-721q0 -165 -79 -260.5t-239 -95.5h-315v676h-86v78h86v680zM360 754v-78h-184v-590h219q115 0 170.5 71t55.5 195v729q0 124 -56 195.5t-170 71.5h-219v-594h184z" />
    <glyph glyph-name="dcroat" unicode="&#x111;" horiz-adv-x="788" 
d="M82 1434h315q160 0 239 -96t79 -261v-721q0 -165 -79 -260.5t-239 -95.5h-315v676h-86v78h86v680zM360 754v-78h-184v-590h219q115 0 170.5 71t55.5 195v729q0 124 -56 195.5t-170 71.5h-219v-594h184z" />
    <glyph glyph-name="Emacron" unicode="&#x112;" horiz-adv-x="718" 
d="M166 1630h385v-69h-385v69zM176 770h391v-86h-391v-598h471v-86h-565v1434h565v-86h-471v-578z" />
    <glyph glyph-name="emacron" unicode="&#x113;" horiz-adv-x="718" 
d="M166 1630h385v-69h-385v69zM176 770h391v-86h-391v-598h471v-86h-565v1434h565v-86h-471v-578z" />
    <glyph glyph-name="Ebreve" unicode="&#x114;" horiz-adv-x="718" 
d="M500 1704h61q-3 -84 -58 -132t-143 -48q-87 0 -141 47.5t-55 132.5h61q1 -60 39 -88.5t96 -28.5q60 0 98.5 28.5t41.5 88.5zM176 770h391v-86h-391v-598h471v-86h-565v1434h565v-86h-471v-578z" />
    <glyph glyph-name="ebreve" unicode="&#x115;" horiz-adv-x="718" 
d="M500 1704h61q-3 -84 -58 -132t-143 -48q-87 0 -141 47.5t-55 132.5h61q1 -60 39 -88.5t96 -28.5q60 0 98.5 28.5t41.5 88.5zM176 770h391v-86h-391v-598h471v-86h-565v1434h565v-86h-471v-578z" />
    <glyph glyph-name="Edotaccent" unicode="&#x116;" horiz-adv-x="718" 
d="M326 1694h84v-174h-84v174zM176 770h391v-86h-391v-598h471v-86h-565v1434h565v-86h-471v-578z" />
    <glyph glyph-name="edotaccent" unicode="&#x117;" horiz-adv-x="718" 
d="M326 1694h84v-174h-84v174zM176 770h391v-86h-391v-598h471v-86h-565v1434h565v-86h-471v-578z" />
    <glyph glyph-name="Eogonek" unicode="&#x118;" horiz-adv-x="718" 
d="M176 770h391v-86h-391v-598h471v-86h-45q-39 -32 -67 -79.5t-27 -84.5q1 -32 24 -48.5t56 -16.5q49 0 90 26v-61q-52 -27 -117 -27q-57 2 -91.5 29.5t-37.5 79.5q-1 47 30 96.5t79 85.5h-459v1434h565v-86h-471v-578z" />
    <glyph glyph-name="eogonek" unicode="&#x119;" horiz-adv-x="718" 
d="M176 770h391v-86h-391v-598h471v-86h-47q-39 -31 -66 -78.5t-26 -85.5q1 -32 24 -48.5t56 -16.5q49 0 90 26v-57q-52 -27 -115 -27q-125 3 -131 105q-1 47 30 96.5t79 85.5h-459v1434h565v-86h-471v-578z" />
    <glyph glyph-name="Ecaron" unicode="&#x11a;" horiz-adv-x="718" 
d="M156 1702h88l125 -131l125 131h88l-172 -184h-82zM176 770h391v-86h-391v-598h471v-86h-565v1434h565v-86h-471v-578z" />
    <glyph glyph-name="ecaron" unicode="&#x11b;" horiz-adv-x="718" 
d="M156 1702h88l125 -131l125 131h88l-172 -184h-82zM176 770h391v-86h-391v-598h471v-86h-565v1434h565v-86h-471v-578z" />
    <glyph glyph-name="Gcircumflex" unicode="&#x11c;" 
d="M387 1661l-125 -131h-88l172 184h82l172 -184h-88zM385 1446q157 0 233 -99t76 -264v-106h-90v113q0 124 -52 197t-165 73t-165 -73t-52 -197v-746q0 -124 52 -196t165 -72t165 72t52 196v309h-190v86h280v-389q0 -165 -76 -263.5t-233 -98.5t-233 98.5t-76 263.5v733
q0 165 76 264t233 99z" />
    <glyph glyph-name="gcircumflex" unicode="&#x11d;" 
d="M387 1661l-125 -131h-88l172 184h82l172 -184h-88zM385 1446q157 0 233 -99t76 -264v-106h-90v113q0 124 -52 197t-165 73t-165 -73t-52 -197v-746q0 -124 52 -196t165 -72t165 72t52 196v309h-190v86h280v-389q0 -165 -76 -263.5t-233 -98.5t-233 98.5t-76 263.5v733
q0 165 76 264t233 99z" />
    <glyph glyph-name="Gbreve" unicode="&#x11e;" 
d="M524 1708h62q-1 -83 -56.5 -131.5t-142.5 -48.5q-88 0 -143 47.5t-56 132.5h62q3 -60 40.5 -88.5t96.5 -28.5q58 0 96 28.5t41 88.5zM385 1446q157 0 233 -99t76 -264v-106h-90v113q0 124 -52 197t-165 73t-165 -73t-52 -197v-746q0 -124 52 -196t165 -72t165 72t52 196
v309h-190v86h280v-389q0 -165 -76 -263.5t-233 -98.5t-233 98.5t-76 263.5v733q0 165 76 264t233 99z" />
    <glyph glyph-name="gbreve" unicode="&#x11f;" 
d="M524 1708h62q-1 -83 -56.5 -131.5t-142.5 -48.5q-88 0 -143 47.5t-56 132.5h62q3 -60 40.5 -88.5t96.5 -28.5q58 0 96 28.5t41 88.5zM385 1446q157 0 233 -99t76 -264v-106h-90v113q0 124 -52 197t-165 73t-165 -73t-52 -197v-746q0 -124 52 -196t165 -72t165 72t52 196
v309h-190v86h280v-389q0 -165 -76 -263.5t-233 -98.5t-233 98.5t-76 263.5v733q0 165 76 264t233 99z" />
    <glyph glyph-name="Gdotaccent" unicode="&#x120;" 
d="M356 1696h82v-174h-82v174zM385 1446q157 0 233 -99t76 -264v-106h-90v113q0 124 -52 197t-165 73t-165 -73t-52 -197v-746q0 -124 52 -196t165 -72t165 72t52 196v309h-190v86h280v-389q0 -165 -76 -263.5t-233 -98.5t-233 98.5t-76 263.5v733q0 165 76 264t233 99z" />
    <glyph glyph-name="gdotaccent" unicode="&#x121;" 
d="M356 1696h82v-174h-82v174zM385 1446q157 0 233 -99t76 -264v-106h-90v113q0 124 -52 197t-165 73t-165 -73t-52 -197v-746q0 -124 52 -196t165 -72t165 72t52 196v309h-190v86h280v-389q0 -165 -76 -263.5t-233 -98.5t-233 98.5t-76 263.5v733q0 165 76 264t233 99z" />
    <glyph glyph-name="uni0122" unicode="&#x122;" 
d="M385 1446q157 0 233 -99t76 -264v-106h-90v113q0 124 -52 197t-165 73t-165 -73t-52 -197v-746q0 -124 52 -196t165 -72t165 72t52 196v309h-190v86h280v-389q0 -165 -76 -263.5t-233 -98.5t-233 98.5t-76 263.5v733q0 165 76 264t233 99zM332 -360l39 120h-27v170h80
v-161l-55 -129h-37z" />
    <glyph glyph-name="uni0123" unicode="&#x123;" 
d="M385 1446q157 0 233 -99t76 -264v-106h-90v113q0 124 -52 197t-165 73t-165 -73t-52 -197v-746q0 -124 52 -196t165 -72t165 72t52 196v309h-190v86h280v-389q0 -165 -76 -263.5t-233 -98.5t-233 98.5t-76 263.5v733q0 165 76 264t233 99zM332 -360l41 120h-29v170h82
v-161l-55 -129h-39z" />
    <glyph glyph-name="Hcircumflex" unicode="&#x124;" horiz-adv-x="800" 
d="M399 1657l-125 -131h-88l172 184h82l174 -184h-90zM623 674h-447v-674h-94v1434h94v-674h447v674h96v-1434h-96v674z" />
    <glyph glyph-name="hcircumflex" unicode="&#x125;" horiz-adv-x="800" 
d="M399 1657l-125 -131h-88l172 184h82l174 -184h-90zM623 674h-447v-674h-94v1434h94v-674h447v674h96v-1434h-96v674z" />
    <glyph glyph-name="Hbar" unicode="&#x126;" horiz-adv-x="806" 
d="M797 1075h-76v-1075h-94v674h-447v-674h-94v1075h-78v72h78v287h94v-287h447v287h94v-287h76v-72zM627 760v315h-447v-315h447z" />
    <glyph glyph-name="hbar" unicode="&#x127;" horiz-adv-x="806" 
d="M797 1075h-76v-1075h-94v674h-447v-674h-94v1075h-78v72h78v287h94v-287h447v287h94v-287h76v-72zM627 760v315h-447v-315h447z" />
    <glyph glyph-name="Itilde" unicode="&#x128;" horiz-adv-x="258" 
d="M303 1669l51 -33q-42 -95 -118 -98q-39 -1 -100 34t-93 34q-52 0 -84 -62l-51 35q46 96 127 96q42 1 103 -33.5t89 -33.5q45 0 76 61zM82 1434h94v-1434h-94v1434z" />
    <glyph glyph-name="itilde" unicode="&#x129;" horiz-adv-x="258" 
d="M303 1669l51 -33q-42 -95 -118 -98q-39 -1 -100 34t-93 34q-52 0 -84 -62l-51 35q46 96 127 96q42 1 103 -33.5t89 -33.5q45 0 76 61zM82 1434h94v-1434h-94v1434z" />
    <glyph glyph-name="Imacron" unicode="&#x12a;" horiz-adv-x="258" 
d="M-43 1624h344v-68h-344v68zM82 1434h94v-1434h-94v1434z" />
    <glyph glyph-name="imacron" unicode="&#x12b;" horiz-adv-x="258" 
d="M-43 1624h344v-68h-344v68zM82 1434h94v-1434h-94v1434z" />
    <glyph glyph-name="Ibreve" unicode="&#x12c;" horiz-adv-x="258" 
d="M266 1696h62q-1 -85 -56.5 -134t-142.5 -49q-88 0 -143 49t-56 134h62q3 -60 41 -89.5t96 -29.5t96 29.5t41 89.5zM82 0v1434h94v-1434h-94z" />
    <glyph glyph-name="ibreve" unicode="&#x12d;" horiz-adv-x="258" 
d="M266 1696h62q-1 -85 -56.5 -134t-142.5 -49q-88 0 -143 49t-56 134h62q3 -60 41 -89.5t96 -29.5t96 29.5t41 89.5zM82 0v1434h94v-1434h-94z" />
    <glyph glyph-name="Iogonek" unicode="&#x12e;" horiz-adv-x="258" 
d="M176 0h-12q-41 -34 -66.5 -80t-23.5 -84q1 -32 24 -48.5t56 -16.5q53 0 90 26v-61q-53 -27 -115 -27q-57 2 -92.5 29.5t-38.5 79.5q-2 48 23.5 96t74.5 86h-16l2 1434h94v-1434z" />
    <glyph glyph-name="iogonek" unicode="&#x12f;" horiz-adv-x="258" 
d="M176 0h-14q-38 -31 -63.5 -78.5t-24.5 -85.5q1 -32 24 -48.5t56 -16.5q53 0 90 26v-57q-53 -27 -115 -27q-57 2 -92.5 27.5t-38.5 77.5q-2 47 27 95.5t81 86.5h-26l2 1434h94v-1434z" />
    <glyph glyph-name="Idotaccent" unicode="&#x130;" horiz-adv-x="258" 
d="M88 1690h82v-172h-82v172zM82 1434h94v-1434h-94v1434z" />
    <glyph glyph-name="dotlessi" unicode="&#x131;" horiz-adv-x="258" 
d="M82 1434h94v-1434h-94v1434z" />
    <glyph glyph-name="IJ" unicode="&#x132;" horiz-adv-x="776" 
d="M82 1434h94v-1434h-94v1434zM698 1434v-1082q0 -183 -75.5 -264.5t-219.5 -89.5q-55 0 -86 2v86h76q110 8 160.5 68.5t50.5 191.5v1088h94z" />
    <glyph glyph-name="ij" unicode="&#x133;" horiz-adv-x="776" 
d="M82 1434h94v-1434h-94v1434zM698 1434v-1082q0 -183 -75.5 -264.5t-219.5 -89.5q-55 0 -86 2v86h76q110 8 160.5 68.5t50.5 191.5v1088h94z" />
    <glyph glyph-name="Jcircumflex" unicode="&#x134;" horiz-adv-x="518" 
d="M379 1649l-125 -131h-88l172 184h82l174 -184h-90zM440 1434v-1082q0 -181 -74 -263.5t-212 -88.5q-46 -3 -95 0v86q30 -2 84 2q104 8 153.5 68.5t49.5 189.5v1088h94z" />
    <glyph glyph-name="jcircumflex" unicode="&#x135;" horiz-adv-x="518" 
d="M379 1649l-125 -131h-88l172 184h82l174 -184h-90zM440 1434v-1082q0 -181 -74 -263.5t-212 -88.5q-46 -3 -95 0v86q30 -2 84 2q104 8 153.5 68.5t49.5 189.5v1088h94z" />
    <glyph glyph-name="uni0136" unicode="&#x136;" horiz-adv-x="827" 
d="M670 0l-396 674l-98 -156v-518h-94v1434h94v-758l467 758h98l-409 -668l436 -766h-98zM346 -360l41 120h-29v170h82v-161l-55 -129h-39z" />
    <glyph glyph-name="uni0137" unicode="&#x137;" horiz-adv-x="827" 
d="M670 0l-396 674l-98 -156v-518h-94v1434h94v-758l467 758h98l-409 -668l436 -766h-98zM346 -360l41 120h-29v170h82v-161l-55 -129h-39z" />
    <glyph glyph-name="kgreenlandic" unicode="&#x138;" horiz-adv-x="827" 
d="M670 0l-396 674l-98 -156v-518h-94v1434h94v-758l467 758h98l-409 -668l436 -766h-98z" />
    <glyph glyph-name="Lacute" unicode="&#x139;" horiz-adv-x="686" 
d="M242 1710h96l-172 -194h-72zM627 0h-545v1434h94v-1348h451v-86z" />
    <glyph glyph-name="lacute" unicode="&#x13a;" horiz-adv-x="686" 
d="M227 1712h99l-172 -194h-72zM627 0h-545v1434h94v-1348h451v-86z" />
    <glyph glyph-name="uni013B" unicode="&#x13b;" horiz-adv-x="686" 
d="M627 0h-545v1434h94v-1348h451v-86zM313 -367l39 121h-26v170h80v-162l-56 -129h-37z" />
    <glyph glyph-name="uni013C" unicode="&#x13c;" horiz-adv-x="686" 
d="M627 0h-545v1434h94v-1348h451v-86zM326 -360l41 120h-29v170h80v-161l-56 -129h-36z" />
    <glyph glyph-name="Lcaron" unicode="&#x13d;" horiz-adv-x="686" 
d="M627 0h-545v1434h94v-1348h451v-86zM432 1098l41 155h-33v181h92v-172l-59 -164h-41z" />
    <glyph glyph-name="lcaron" unicode="&#x13e;" horiz-adv-x="686" 
d="M627 0h-545v1434h94v-1348h451v-86zM432 1098l41 155h-33v181h92v-172l-59 -164h-41z" />
    <glyph glyph-name="Ldot" unicode="&#x13f;" horiz-adv-x="686" 
d="M627 0h-545v1434h94v-1348h451v-86zM379 813h92v-180h-92v180z" />
    <glyph glyph-name="ldot" unicode="&#x140;" horiz-adv-x="686" 
d="M627 0h-545v1434h94v-1348h451v-86zM379 813h92v-180h-92v180z" />
    <glyph glyph-name="Lslash" unicode="&#x141;" horiz-adv-x="710" 
d="M399 844l-196 -195v-563h450v-86h-544v549l-109 -100v90l109 100v795h94v-695l196 197v-92z" />
    <glyph glyph-name="lslash" unicode="&#x142;" horiz-adv-x="710" 
d="M399 844l-196 -195v-563h450v-86h-544v549l-109 -100v90l109 100v795h94v-695l196 197v-92z" />
    <glyph glyph-name="Nacute" unicode="&#x143;" horiz-adv-x="800" 
d="M481 1714h97l-172 -194h-72zM168 1280v-1278h-86v1434h123l430 -1211v1211h86v-1434h-105z" />
    <glyph glyph-name="nacute" unicode="&#x144;" horiz-adv-x="800" 
d="M481 1714h97l-172 -194h-72zM168 1280v-1278h-86v1434h123l430 -1211v1211h86v-1434h-105z" />
    <glyph glyph-name="uni0145" unicode="&#x145;" horiz-adv-x="800" 
d="M168 1278v-1278h-86v1434h123l430 -1211v1211h86v-1434h-105zM346 -360l39 120h-27v170h80v-161l-55 -129h-37z" />
    <glyph glyph-name="uni0146" unicode="&#x146;" horiz-adv-x="800" 
d="M168 1278v-1278h-86v1434h123l430 -1211v1211h86v-1434h-105zM346 -360l39 120h-27v170h80v-161l-55 -129h-37z" />
    <glyph glyph-name="Ncaron" unicode="&#x147;" horiz-adv-x="800" 
d="M190 1710h89l124 -129l125 129h88l-172 -184h-82zM168 1278v-1278h-86v1434h123l430 -1211v1211h86v-1434h-105z" />
    <glyph glyph-name="ncaron" unicode="&#x148;" horiz-adv-x="800" 
d="M190 1710h89l124 -129l125 129h88l-172 -184h-82zM168 1278v-1278h-86v1434h123l430 -1211v1211h86v-1434h-105z" />
    <glyph glyph-name="napostrophe" unicode="&#x149;" horiz-adv-x="952" 
d="M27 1098l43 155h-33v181h90v-172l-57 -164h-43zM317 1278v-1278h-86v1434h125l430 -1211v1211h84v-1434h-102z" />
    <glyph glyph-name="Omacron" unicode="&#x14c;" horiz-adv-x="780" 
d="M201 1626h383v-70h-383v70zM389 1446q159 0 238.5 -99t79.5 -264v-733q0 -165 -79.5 -263.5t-238.5 -98.5q-156 0 -234.5 98.5t-78.5 263.5v733q0 165 78.5 264t234.5 99zM389 1360q-113 0 -166 -72.5t-53 -197.5v-746q0 -125 53 -197.5t166 -72.5q115 0 169 73t54 197
v746q0 124 -54 197t-169 73z" />
    <glyph glyph-name="omacron" unicode="&#x14d;" horiz-adv-x="780" 
d="M201 1626h383v-70h-383v70zM389 1446q159 0 238.5 -99t79.5 -264v-733q0 -165 -79.5 -263.5t-238.5 -98.5q-156 0 -234.5 98.5t-78.5 263.5v733q0 165 78.5 264t234.5 99zM389 1360q-113 0 -166 -72.5t-53 -197.5v-746q0 -125 53 -197.5t166 -72.5q115 0 169 73t54 197
v746q0 124 -54 197t-169 73z" />
    <glyph glyph-name="Obreve" unicode="&#x14e;" horiz-adv-x="780" 
d="M528 1708h62q-3 -84 -58 -132t-143 -48q-87 0 -141 47.5t-55 132.5h59q3 -60 41 -88.5t96 -28.5t96.5 28.5t42.5 88.5zM389 1446q159 0 238.5 -99t79.5 -264v-733q0 -165 -79.5 -263.5t-238.5 -98.5q-156 0 -234.5 98.5t-78.5 263.5v733q0 165 78.5 264t234.5 99z
M389 1360q-113 0 -166 -72.5t-53 -197.5v-746q0 -125 53 -197.5t166 -72.5q115 0 169 73t54 197v746q0 124 -54 197t-169 73z" />
    <glyph glyph-name="obreve" unicode="&#x14f;" horiz-adv-x="780" 
d="M528 1708h62q-3 -84 -58 -132t-143 -48q-87 0 -141 47.5t-55 132.5h59q3 -60 41 -88.5t96 -28.5t96.5 28.5t42.5 88.5zM389 1446q159 0 238.5 -99t79.5 -264v-733q0 -165 -79.5 -263.5t-238.5 -98.5q-156 0 -234.5 98.5t-78.5 263.5v733q0 165 78.5 264t234.5 99z
M389 1360q-113 0 -166 -72.5t-53 -197.5v-746q0 -125 53 -197.5t166 -72.5q115 0 169 73t54 197v746q0 124 -54 197t-169 73z" />
    <glyph glyph-name="Ohungarumlaut" unicode="&#x150;" horiz-adv-x="780" 
d="M375 1724h92l-158 -194h-67zM549 1724h92l-160 -194h-65zM389 1446q159 0 238.5 -99t79.5 -264v-733q0 -165 -79.5 -263.5t-238.5 -98.5q-156 0 -234.5 98.5t-78.5 263.5v733q0 165 78.5 264t234.5 99zM389 1360q-113 0 -166 -72.5t-53 -197.5v-746q0 -125 53 -197.5
t166 -72.5q115 0 169 73t54 197v746q0 124 -54 197t-169 73z" />
    <glyph glyph-name="ohungarumlaut" unicode="&#x151;" horiz-adv-x="780" 
d="M375 1724h92l-158 -194h-67zM549 1724h92l-160 -194h-65zM389 1446q159 0 238.5 -99t79.5 -264v-733q0 -165 -79.5 -263.5t-238.5 -98.5q-156 0 -234.5 98.5t-78.5 263.5v733q0 165 78.5 264t234.5 99zM389 1360q-113 0 -166 -72.5t-53 -197.5v-746q0 -125 53 -197.5
t166 -72.5q115 0 169 73t54 197v746q0 124 -54 197t-169 73z" />
    <glyph glyph-name="OE" unicode="&#x152;" horiz-adv-x="1163" 
d="M670 770h348v-86h-348v-598h420v-86h-717q-153 0 -226 98t-73 258v721q0 77 17 140t51.5 112.5t93.5 77t137 27.5h717v-86h-420v-578zM575 1348h-200q-107 0 -157 -74t-50 -193v-729q0 -119 50 -192.5t157 -73.5h200v1262z" />
    <glyph glyph-name="oe" unicode="&#x153;" horiz-adv-x="1163" 
d="M670 770h348v-86h-348v-598h420v-86h-717q-153 0 -226 98t-73 258v721q0 77 17 140t51.5 112.5t93.5 77t137 27.5h717v-86h-420v-578zM575 1348h-200q-107 0 -157 -74t-50 -193v-729q0 -119 50 -192.5t157 -73.5h200v1262z" />
    <glyph glyph-name="Racute" unicode="&#x154;" horiz-adv-x="790" 
d="M436 1724h99l-173 -194h-71zM82 1434h299q307 0 307 -324v-125q0 -249 -207 -297q207 -46 207 -293v-223q0 -119 35 -172h-98q-31 53 -31 172v225q0 135 -68 189.5t-200 54.5h-150v-641h-94v1434zM176 727h152q136 0 201 51.5t65 188.5v135q0 120 -51 183t-164 63h-203
v-621z" />
    <glyph glyph-name="racute" unicode="&#x155;" horiz-adv-x="790" 
d="M436 1724h99l-173 -194h-71zM82 1434h299q307 0 307 -324v-125q0 -249 -207 -297q207 -46 207 -293v-223q0 -119 35 -172h-98q-31 53 -31 172v225q0 135 -68 189.5t-200 54.5h-150v-641h-94v1434zM176 727h152q136 0 201 51.5t65 188.5v135q0 120 -51 183t-164 63h-203
v-621z" />
    <glyph glyph-name="uni0156" unicode="&#x156;" horiz-adv-x="790" 
d="M82 1434h299q307 0 307 -324v-125q0 -249 -207 -297q207 -46 207 -293v-223q0 -119 35 -172h-98q-31 53 -31 172v225q0 135 -68 189.5t-200 54.5h-150v-641h-94v1434zM176 727h152q136 0 201 51.5t65 188.5v135q0 120 -51 183t-164 63h-203v-621zM336 -358l39 120h-27
v170h80v-161l-55 -129h-37z" />
    <glyph glyph-name="uni0157" unicode="&#x157;" horiz-adv-x="790" 
d="M82 1434h299q307 0 307 -324v-125q0 -249 -207 -297q207 -46 207 -293v-223q0 -119 35 -172h-98q-31 53 -31 172v225q0 135 -68 189.5t-200 54.5h-150v-641h-94v1434zM176 727h152q136 0 201 51.5t65 188.5v135q0 120 -51 183t-164 63h-203v-621zM338 -360l41 120h-29
v170h82v-161l-55 -129h-39z" />
    <glyph glyph-name="Rcaron" unicode="&#x158;" horiz-adv-x="790" 
d="M150 1712h88l124 -131l125 131h91l-175 -184h-81zM82 1434h299q307 0 307 -324v-125q0 -249 -207 -297q207 -46 207 -293v-223q0 -119 35 -172h-98q-31 53 -31 172v225q0 135 -68 189.5t-200 54.5h-150v-641h-94v1434zM176 727h152q136 0 201 51.5t65 188.5v135
q0 120 -51 183t-164 63h-203v-621z" />
    <glyph glyph-name="rcaron" unicode="&#x159;" horiz-adv-x="790" 
d="M150 1712h88l124 -131l125 131h91l-175 -184h-81zM82 1434h299q307 0 307 -324v-125q0 -249 -207 -297q207 -46 207 -293v-223q0 -119 35 -172h-98q-31 53 -31 172v225q0 135 -68 189.5t-200 54.5h-150v-641h-94v1434zM176 727h152q136 0 201 51.5t65 188.5v135
q0 120 -51 183t-164 63h-203v-621z" />
    <glyph glyph-name="Sacute" unicode="&#x15a;" horiz-adv-x="757" 
d="M461 1724h98l-172 -194h-72zM381 1446q105 0 175 -47.5t100 -126t30 -185.5v-30h-90v37q0 122 -51 194t-162 72t-162 -71t-51 -193q0 -70 28.5 -129.5t74.5 -103t101 -84t110 -83t101 -89.5t74.5 -114t28.5 -147q0 -164 -76 -261t-233 -97t-233 97t-76 261v74h90v-80
q0 -123 52 -193.5t165 -70.5t165 70.5t52 193.5q0 70 -28.5 128.5t-74.5 101.5t-101 83.5t-110 83t-101 90t-74.5 115t-28.5 148.5q0 167 75.5 261t229.5 95z" />
    <glyph glyph-name="sacute" unicode="&#x15b;" horiz-adv-x="757" 
d="M461 1724h98l-172 -194h-72zM381 1446q105 0 175 -47.5t100 -126t30 -185.5v-30h-90v37q0 122 -51 194t-162 72t-162 -71t-51 -193q0 -70 28.5 -129.5t74.5 -103t101 -84t110 -83t101 -89.5t74.5 -114t28.5 -147q0 -164 -76 -261t-233 -97t-233 97t-76 261v74h90v-80
q0 -123 52 -193.5t165 -70.5t165 70.5t52 193.5q0 70 -28.5 128.5t-74.5 101.5t-101 83.5t-110 83t-101 90t-74.5 115t-28.5 148.5q0 167 75.5 261t229.5 95z" />
    <glyph glyph-name="Scircumflex" unicode="&#x15c;" horiz-adv-x="757" 
d="M389 1657l-125 -131h-88l172 184h82l172 -184h-88zM381 1446q105 0 175 -47.5t100 -126t30 -185.5v-30h-90v37q0 122 -51 194t-162 72t-162 -71t-51 -193q0 -70 28.5 -129.5t74.5 -103t101 -84t110 -83t101 -89.5t74.5 -114t28.5 -147q0 -164 -76 -261t-233 -97t-233 97
t-76 261v74h90v-80q0 -123 52 -193.5t165 -70.5t165 70.5t52 193.5q0 70 -28.5 128.5t-74.5 101.5t-101 83.5t-110 83t-101 90t-74.5 115t-28.5 148.5q0 167 75.5 261t229.5 95z" />
    <glyph glyph-name="scircumflex" unicode="&#x15d;" horiz-adv-x="757" 
d="M389 1657l-125 -131h-88l172 184h82l172 -184h-88zM381 1446q105 0 175 -47.5t100 -126t30 -185.5v-30h-90v37q0 122 -51 194t-162 72t-162 -71t-51 -193q0 -70 28.5 -129.5t74.5 -103t101 -84t110 -83t101 -89.5t74.5 -114t28.5 -147q0 -164 -76 -261t-233 -97t-233 97
t-76 261v74h90v-80q0 -123 52 -193.5t165 -70.5t165 70.5t52 193.5q0 70 -28.5 128.5t-74.5 101.5t-101 83.5t-110 83t-101 90t-74.5 115t-28.5 148.5q0 167 75.5 261t229.5 95z" />
    <glyph glyph-name="Scedilla" unicode="&#x15e;" horiz-adv-x="757" 
d="M403 -12v-58q72 -2 113 -32t41 -82q0 -63 -48 -97.5t-134 -33.5q-85 0 -132.5 34t-47.5 95v12h65v-10q0 -34 30.5 -55.5t84.5 -24.5q55 0 86 22t31 60q0 35 -32.5 55.5t-90.5 20.5h-15v96q-145 6 -214.5 102t-69.5 254v74h90v-80q0 -123 52 -193.5t165 -70.5t165 70.5
t52 193.5q0 70 -28.5 128.5t-74.5 101.5t-101 83.5t-110 83t-101 90t-74.5 115t-28.5 148.5q0 167 75.5 261t229.5 95q105 0 175 -47.5t100 -126t30 -185.5v-30h-90v37q0 122 -51 194t-162 72t-162 -71t-51 -193q0 -70 28.5 -129.5t74.5 -103t101 -84t110 -83t101 -89.5
t74.5 -114t28.5 -147q0 -159 -70 -255t-215 -103z" />
    <glyph glyph-name="scedilla" unicode="&#x15f;" horiz-adv-x="757" 
d="M403 -12v-58q72 -2 113 -32t41 -82q0 -63 -48 -97.5t-134 -33.5q-85 0 -132.5 34t-47.5 95v12h65v-10q0 -34 30.5 -55.5t84.5 -24.5q55 0 86 22t31 60q0 35 -32.5 55.5t-90.5 20.5h-15v96q-145 6 -214.5 102t-69.5 254v74h90v-80q0 -123 52 -193.5t165 -70.5t165 70.5
t52 193.5q0 70 -28.5 128.5t-74.5 101.5t-101 83.5t-110 83t-101 90t-74.5 115t-28.5 148.5q0 167 75.5 261t229.5 95q105 0 175 -47.5t100 -126t30 -185.5v-30h-90v37q0 122 -51 194t-162 72t-162 -71t-51 -193q0 -70 28.5 -129.5t74.5 -103t101 -84t110 -83t101 -89.5
t74.5 -114t28.5 -147q0 -159 -70 -255t-215 -103z" />
    <glyph glyph-name="Scaron" unicode="&#x160;" horiz-adv-x="757" 
d="M172 1712h86l127 -131l125 131h88l-172 -184h-84zM381 1446q105 0 175 -47.5t100 -126t30 -185.5v-30h-90v37q0 122 -51 194t-162 72t-162 -71t-51 -193q0 -70 28.5 -129.5t74.5 -103t101 -84t110 -83t101 -89.5t74.5 -114t28.5 -147q0 -164 -76 -261t-233 -97t-233 97
t-76 261v74h90v-80q0 -123 52 -193.5t165 -70.5t165 70.5t52 193.5q0 70 -28.5 128.5t-74.5 101.5t-101 83.5t-110 83t-101 90t-74.5 115t-28.5 148.5q0 167 75.5 261t229.5 95z" />
    <glyph glyph-name="scaron" unicode="&#x161;" horiz-adv-x="757" 
d="M170 1712h88l125 -131l125 131h90l-174 -184h-82zM381 1446q105 0 175 -47.5t100 -126t30 -185.5v-30h-90v37q0 122 -51 194t-162 72t-162 -71t-51 -193q0 -70 28.5 -129.5t74.5 -103t101 -84t110 -83t101 -89.5t74.5 -114t28.5 -147q0 -164 -76 -261t-233 -97t-233 97
t-76 261v74h90v-80q0 -123 52 -193.5t165 -70.5t165 70.5t52 193.5q0 70 -28.5 128.5t-74.5 101.5t-101 83.5t-110 83t-101 90t-74.5 115t-28.5 148.5q0 167 75.5 261t229.5 95z" />
    <glyph glyph-name="uni0162" unicode="&#x162;" horiz-adv-x="794" 
d="M444 0h-18v-70q139 -4 139 -118q0 -70 -51.5 -105t-122.5 -35q-68 0 -120 34t-52 97v13h57v-13q0 -39 35 -57t80 -20q45 0 80 21t35 63q0 79 -123 79h-14v111h-19v1348h-293v86h680v-86h-293v-1348z" />
    <glyph glyph-name="uni0163" unicode="&#x163;" horiz-adv-x="794" 
d="M444 0h-18v-74q141 -4 141 -114q0 -69 -53.5 -104.5t-124.5 -35.5q-68 0 -119 34t-51 97v13h57v-13q0 -39 35 -57t80 -20q45 0 80 21t35 63q0 79 -125 79h-14v111h-17v1348h-293v86h680v-86h-293v-1348z" />
    <glyph glyph-name="Tcaron" unicode="&#x164;" horiz-adv-x="794" 
d="M184 1702h86l127 -129l125 129h88l-172 -184h-84zM444 0h-94v1348h-293v86h680v-86h-293v-1348z" />
    <glyph glyph-name="tcaron" unicode="&#x165;" horiz-adv-x="794" 
d="M184 1702h86l127 -129l125 129h88l-172 -184h-84zM444 0h-94v1348h-293v86h680v-86h-293v-1348z" />
    <glyph glyph-name="Tbar" unicode="&#x166;" horiz-adv-x="794" 
d="M444 952h156v-71h-156v-881h-94v881h-155v71h155v396h-293v86h680v-86h-293v-396z" />
    <glyph glyph-name="tbar" unicode="&#x167;" horiz-adv-x="794" 
d="M444 952h156v-71h-156v-881h-94v881h-155v71h155v396h-293v86h680v-86h-293v-396z" />
    <glyph glyph-name="Utilde" unicode="&#x168;" 
d="M559 1671l51 -33q-40 -95 -118 -98q-40 -1 -100 34.5t-91 35.5q-55 0 -86 -64l-51 35q46 96 129 96q41 1 101.5 -33.5t88.5 -33.5q49 3 76 61zM690 1434v-1084q0 -164 -74.5 -263t-230.5 -99t-231.5 99t-75.5 263v1084h94v-1088q0 -125 51.5 -198.5t163.5 -73.5
t163.5 73.5t51.5 198.5v1088h88z" />
    <glyph glyph-name="utilde" unicode="&#x169;" 
d="M559 1671l51 -33q-40 -95 -118 -98q-40 -1 -100 34.5t-91 35.5q-55 0 -86 -64l-51 35q46 96 129 96q41 1 101.5 -33.5t88.5 -33.5q49 3 76 61zM690 1434v-1084q0 -164 -74.5 -263t-230.5 -99t-231.5 99t-75.5 263v1084h94v-1088q0 -125 51.5 -198.5t163.5 -73.5
t163.5 73.5t51.5 198.5v1088h88z" />
    <glyph glyph-name="Umacron" unicode="&#x16a;" 
d="M205 1624h373v-68h-373v68zM690 1434v-1084q0 -164 -74.5 -263t-230.5 -99t-231.5 99t-75.5 263v1084h94v-1088q0 -125 51.5 -198.5t163.5 -73.5t163.5 73.5t51.5 198.5v1088h88z" />
    <glyph glyph-name="umacron" unicode="&#x16b;" 
d="M205 1624h373v-68h-373v68zM690 1434v-1084q0 -164 -74.5 -263t-230.5 -99t-231.5 99t-75.5 263v1084h94v-1088q0 -125 51.5 -198.5t163.5 -73.5t163.5 73.5t51.5 198.5v1088h88z" />
    <glyph glyph-name="Ubreve" unicode="&#x16c;" 
d="M526 1696h60q-1 -85 -56 -134t-143 -49q-87 0 -142.5 49t-56.5 134h62q3 -60 41 -89.5t96 -29.5t96.5 29.5t42.5 89.5zM690 1434v-1084q0 -164 -74.5 -263t-230.5 -99t-231.5 99t-75.5 263v1084h94v-1088q0 -125 51.5 -198.5t163.5 -73.5t163.5 73.5t51.5 198.5v1088h88z
" />
    <glyph glyph-name="ubreve" unicode="&#x16d;" 
d="M526 1696h60q-1 -85 -56 -134t-143 -49q-87 0 -142.5 49t-56.5 134h62q3 -60 41 -89.5t96 -29.5t96.5 29.5t42.5 89.5zM690 1434v-1084q0 -164 -74.5 -263t-230.5 -99t-231.5 99t-75.5 263v1084h94v-1088q0 -125 51.5 -198.5t163.5 -73.5t163.5 73.5t51.5 198.5v1088h88z
" />
    <glyph glyph-name="Uring" unicode="&#x16e;" 
d="M393 1778q59 0 99 -39t40 -97q0 -57 -40 -96t-99 -39q-57 0 -97 39t-40 96q0 58 40 97t97 39zM393 1729q-37 0 -61.5 -24.5t-24.5 -62.5q0 -37 24.5 -61.5t61.5 -24.5t62.5 24.5t25.5 61.5q0 38 -25.5 62.5t-62.5 24.5zM690 1434v-1084q0 -164 -74.5 -263t-230.5 -99
t-231.5 99t-75.5 263v1084h94v-1088q0 -125 51.5 -198.5t163.5 -73.5t163.5 73.5t51.5 198.5v1088h88z" />
    <glyph glyph-name="uring" unicode="&#x16f;" 
d="M393 1778q59 0 99 -39t40 -97q0 -57 -40 -96t-99 -39q-57 0 -97 39t-40 96q0 58 40 97t97 39zM393 1729q-37 0 -61.5 -24.5t-24.5 -62.5q0 -37 24.5 -61.5t61.5 -24.5t62.5 24.5t25.5 61.5q0 38 -25.5 62.5t-62.5 24.5zM690 1434v-1084q0 -164 -74.5 -263t-230.5 -99
t-231.5 99t-75.5 263v1084h94v-1088q0 -125 51.5 -198.5t163.5 -73.5t163.5 73.5t51.5 198.5v1088h88z" />
    <glyph glyph-name="Uhungarumlaut" unicode="&#x170;" 
d="M369 1720h92l-158 -194h-67zM543 1720h92l-160 -194h-65zM690 1434v-1084q0 -164 -74.5 -263t-230.5 -99t-231.5 99t-75.5 263v1084h94v-1088q0 -125 51.5 -198.5t163.5 -73.5t163.5 73.5t51.5 198.5v1088h88z" />
    <glyph glyph-name="uhungarumlaut" unicode="&#x171;" 
d="M369 1720h92l-158 -194h-67zM543 1720h92l-160 -194h-65zM690 1434v-1084q0 -164 -74.5 -263t-230.5 -99t-231.5 99t-75.5 263v1084h94v-1088q0 -125 51.5 -198.5t163.5 -73.5t163.5 73.5t51.5 198.5v1088h88z" />
    <glyph glyph-name="Uogonek" unicode="&#x172;" 
d="M690 1434v-1084q0 -273 -176 -344q-39 -30 -66.5 -80.5t-25.5 -89.5q3 -32 25.5 -48.5t56.5 -16.5q49 0 90 26v-57q-56 -27 -115 -27q-59 2 -94.5 27.5t-36.5 77.5q-1 44 26 90.5t72 83.5q-36 -4 -61 -4q-156 0 -231.5 99t-75.5 263v1084h94v-1088q0 -125 51.5 -198.5
t163.5 -73.5t163.5 73.5t51.5 198.5v1088h88z" />
    <glyph glyph-name="uogonek" unicode="&#x173;" 
d="M690 1434v-1084q0 -273 -176 -344q-39 -30 -66.5 -80.5t-25.5 -89.5q3 -32 25.5 -48.5t56.5 -16.5q49 0 90 26v-57q-56 -27 -115 -27q-59 2 -94.5 27.5t-36.5 77.5q-1 44 26 90.5t72 83.5q-36 -4 -61 -4q-156 0 -231.5 99t-75.5 263v1084h94v-1088q0 -125 51.5 -198.5
t163.5 -73.5t163.5 73.5t51.5 198.5v1088h88z" />
    <glyph glyph-name="Wcircumflex" unicode="&#x174;" horiz-adv-x="1234" 
d="M623 1653l-125 -131h-88l172 184h82l172 -184h-88zM627 1174l-201 -1174h-131l-232 1434h93l215 -1307l209 1300h100l201 -1296l206 1303h84l-229 -1434h-123z" />
    <glyph glyph-name="wcircumflex" unicode="&#x175;" horiz-adv-x="1234" 
d="M623 1653l-125 -131h-88l172 184h82l172 -184h-88zM627 1174l-201 -1174h-131l-232 1434h93l215 -1307l209 1300h100l201 -1296l206 1303h84l-229 -1434h-123z" />
    <glyph glyph-name="Ycircumflex" unicode="&#x176;" horiz-adv-x="849" 
d="M428 1651l-125 -129h-88l172 184h82l172 -184h-88zM377 0v551l-322 883h99l274 -754l274 754h93l-324 -883v-551h-94z" />
    <glyph glyph-name="ycircumflex" unicode="&#x177;" horiz-adv-x="849" 
d="M428 1651l-125 -129h-88l172 184h82l172 -184h-88zM377 0v551l-322 883h99l274 -754l274 754h93l-324 -883v-551h-94z" />
    <glyph glyph-name="Ydieresis" unicode="&#x178;" horiz-adv-x="849" 
d="M285 1690h84v-172h-84v172zM483 1690h84v-172h-84v172zM377 0v551l-322 883h99l274 -754l274 754h93l-324 -883v-551h-94z" />
    <glyph glyph-name="Zacute" unicode="&#x179;" horiz-adv-x="794" 
d="M496 1724h98l-172 -194h-72zM715 86v-86h-645v86l555 1262h-529v86h627v-88l-555 -1260h547z" />
    <glyph glyph-name="zacute" unicode="&#x17a;" horiz-adv-x="794" 
d="M496 1724h98l-172 -194h-72zM715 86v-86h-645v86l555 1262h-529v86h627v-88l-555 -1260h547z" />
    <glyph glyph-name="Zdotaccent" unicode="&#x17b;" horiz-adv-x="794" 
d="M383 1700h84v-172h-84v172zM715 86v-86h-645v86l555 1262h-529v86h627v-88l-555 -1260h547z" />
    <glyph glyph-name="zdotaccent" unicode="&#x17c;" horiz-adv-x="794" 
d="M383 1700h84v-172h-84v172zM715 86v-86h-645v86l555 1262h-529v86h627v-88l-555 -1260h547z" />
    <glyph glyph-name="Zcaron" unicode="&#x17d;" horiz-adv-x="794" 
d="M199 1710h86l127 -129l125 129h88l-172 -184h-82zM715 86v-86h-645v86l555 1262h-529v86h627v-88l-555 -1260h547z" />
    <glyph glyph-name="zcaron" unicode="&#x17e;" horiz-adv-x="794" 
d="M199 1710h86l127 -129l125 129h88l-172 -184h-82zM715 86v-86h-645v86l555 1262h-529v86h627v-88l-555 -1260h547z" />
    <glyph glyph-name="AEacute" unicode="&#x1fc;" horiz-adv-x="1206" 
d="M745 1720h99l-172 -194h-72zM715 770h346v-86h-346v-598h418v-86h-512v322h-359l-117 -322h-90l510 1434h568v-86h-418v-578zM621 1317l-334 -911h334v911z" />
    <glyph glyph-name="aeacute" unicode="&#x1fd;" horiz-adv-x="1206" 
d="M745 1720h99l-172 -194h-72zM715 770h346v-86h-346v-598h418v-86h-512v322h-359l-117 -322h-90l510 1434h568v-86h-418v-578zM621 1317l-334 -911h334v911z" />
    <glyph glyph-name="Oslashacute" unicode="&#x1fe;" horiz-adv-x="780" 
d="M326 1530l145 194h98l-172 -194h-71zM694 1448l-47 -127q60 -89 60 -238v-733q0 -165 -79.5 -263.5t-238.5 -98.5q-140 0 -219 82l-41 -105l-47 17l51 135q-57 89 -57 233v733q0 165 78.5 264t234.5 99q139 0 221 -82l39 100zM170 1090v-746q0 -49 10 -104l393 1026
q-58 94 -184 94q-113 0 -166 -72.5t-53 -197.5zM612 344v746q0 58 -12 110l-393 -1030q57 -96 182 -96q115 0 169 73t54 197z" />
    <glyph glyph-name="oslashacute" unicode="&#x1ff;" horiz-adv-x="780" 
d="M326 1530l145 194h98l-172 -194h-71zM694 1448l-47 -127q60 -89 60 -238v-733q0 -165 -79.5 -263.5t-238.5 -98.5q-140 0 -219 82l-41 -105l-47 17l51 135q-57 89 -57 233v733q0 165 78.5 264t234.5 99q139 0 221 -82l39 100zM170 1090v-746q0 -49 10 -104l393 1026
q-58 94 -184 94q-113 0 -166 -72.5t-53 -197.5zM612 344v746q0 58 -12 110l-393 -1030q57 -96 182 -96q115 0 169 73t54 197z" />
    <glyph glyph-name="uni0218" unicode="&#x218;" horiz-adv-x="757" 
d="M381 1446q105 0 175 -47.5t100 -126t30 -185.5v-30h-90v37q0 122 -51 194t-162 72t-162 -71t-51 -193q0 -70 28.5 -129.5t74.5 -103t101 -84t110 -83t101 -89.5t74.5 -114t28.5 -147q0 -164 -76 -261t-233 -97t-233 97t-76 261v74h90v-80q0 -123 52 -193.5t165 -70.5
t165 70.5t52 193.5q0 70 -28.5 128.5t-74.5 101.5t-101 83.5t-110 83t-101 90t-74.5 115t-28.5 148.5q0 167 75.5 261t229.5 95zM324 -360l41 120h-29v170h82v-161l-56 -129h-38z" />
    <glyph glyph-name="uni0219" unicode="&#x219;" horiz-adv-x="757" 
d="M381 1446q105 0 175 -47.5t100 -126t30 -185.5v-30h-90v37q0 122 -51 194t-162 72t-162 -71t-51 -193q0 -70 28.5 -129.5t74.5 -103t101 -84t110 -83t101 -89.5t74.5 -114t28.5 -147q0 -164 -76 -261t-233 -97t-233 97t-76 261v74h90v-80q0 -123 52 -193.5t165 -70.5
t165 70.5t52 193.5q0 70 -28.5 128.5t-74.5 101.5t-101 83.5t-110 83t-101 90t-74.5 115t-28.5 148.5q0 167 75.5 261t229.5 95zM324 -360l41 120h-29v170h82v-161l-56 -129h-38z" />
    <glyph glyph-name="uni021A" unicode="&#x21a;" horiz-adv-x="794" 
d="M444 0h-94v1348h-293v86h680v-86h-293v-1348zM344 -360l41 120h-29v170h82v-161l-55 -129h-39z" />
    <glyph glyph-name="uni021B" unicode="&#x21b;" horiz-adv-x="794" 
d="M444 0h-94v1348h-293v86h680v-86h-293v-1348zM344 -360l41 120h-29v170h82v-161l-55 -129h-39z" />
    <glyph glyph-name="uni0237" unicode="&#x237;" horiz-adv-x="518" 
d="M59 0v86q30 -2 84 2q104 8 153.5 68.5t49.5 189.5v1088h94v-1082q0 -181 -74 -263.5t-212 -88.5q-46 -3 -95 0z" />
    <glyph glyph-name="uni02BC" unicode="&#x2bc;" horiz-adv-x="274" 
d="M193 1262l-60 -164h-41l41 155h-31v181h91v-172z" />
    <glyph glyph-name="circumflex" unicode="&#x2c6;" horiz-adv-x="512" 
d="M256 1681l-125 -129h-88l172 185h82l172 -185h-88z" />
    <glyph glyph-name="caron" unicode="&#x2c7;" horiz-adv-x="512" 
d="M43 1737h88l125 -131l125 131h88l-172 -185h-82z" />
    <glyph glyph-name="breve" unicode="&#x2d8;" horiz-adv-x="520" 
d="M397 1681h62q-1 -83 -56.5 -131.5t-142.5 -48.5q-88 0 -143 47.5t-56 132.5h62q3 -58 41 -87t96 -29t96 29t41 87z" />
    <glyph glyph-name="dotaccent" unicode="&#x2d9;" horiz-adv-x="303" 
d="M109 1706h84v-172h-84v172z" />
    <glyph glyph-name="ring" unicode="&#x2da;" horiz-adv-x="446" 
d="M223 1802q57 0 97 -39t40 -96q0 -58 -40 -97.5t-97 -39.5t-97 39.5t-40 97.5q0 57 40 96t97 39zM223 1753q-37 0 -62.5 -24.5t-25.5 -61.5q0 -38 25.5 -62t62.5 -24q36 0 62 24.5t26 61.5q0 36 -26 61t-62 25z" />
    <glyph glyph-name="ogonek" unicode="&#x2db;" horiz-adv-x="419" 
d="M203 2h51q-40 -31 -67 -79.5t-25 -86.5q1 -32 24.5 -48.5t57.5 -16.5q51 0 88 26v-57q-52 -27 -115 -27q-57 2 -92.5 27.5t-36.5 77.5q-3 48 30 98.5t85 85.5z" />
    <glyph glyph-name="tilde" unicode="&#x2dc;" horiz-adv-x="536" 
d="M440 1669l52 -33q-42 -95 -119 -98q-40 -1 -100.5 34t-90.5 34q-54 0 -86 -62l-51 35q46 96 129 96q41 1 102 -33.5t89 -33.5q44 0 75 61z" />
    <glyph glyph-name="hungarumlaut" unicode="&#x2dd;" horiz-adv-x="481" 
d="M166 1737h92l-158 -195h-65zM340 1737h92l-158 -195h-65z" />
    <glyph glyph-name="uni0401" unicode="&#x401;" horiz-adv-x="718" 
d="M223 1700h84v-174h-84v174zM422 1700h84v-174h-84v174zM176 770h391v-86h-391v-598h471v-86h-565v1434h565v-86h-471v-578z" />
    <glyph glyph-name="uni0410" unicode="&#x410;" horiz-adv-x="892" 
d="M666 317h-447l-72 -317h-86l314 1436h137l319 -1436h-94zM440 1327l-207 -928h418z" />
    <glyph glyph-name="uni0411" unicode="&#x411;" horiz-adv-x="792" 
d="M176 823h205q169 0 251.5 -75.5t82.5 -243.5v-162q0 -342 -318 -342h-315v1434h580v-86h-486v-525zM176 86h221q117 0 170.5 62.5t53.5 187.5v174q0 127 -57 176t-183 49h-205v-649z" />
    <glyph glyph-name="uni0412" unicode="&#x412;" horiz-adv-x="774" 
d="M82 1434h301q157 0 225 -76t68 -230v-81q0 -123 -42.5 -192t-146.5 -91q215 -43 215 -307v-125q0 -332 -313 -332h-307v1434zM176 801h160q132 0 189 48t57 179v92q0 118 -45 173t-156 55h-205v-547zM176 86h213q115 0 167 62t52 186v129q0 136 -61.5 194t-192.5 58h-178
v-629z" />
    <glyph glyph-name="uni0413" unicode="&#x413;" horiz-adv-x="708" 
d="M633 1348h-457v-1348h-94v1434h551v-86z" />
    <glyph glyph-name="uni0414" unicode="&#x414;" horiz-adv-x="1001" 
d="M934 -199h-94v199h-684v-199h-93v285h99q39 40 53 94t18 135l58 1119h524v-1348h119v-285zM379 1348l-53 -1033q-5 -86 -18.5 -138t-49.5 -91h461v1262h-340z" />
    <glyph glyph-name="uni0415" unicode="&#x415;" horiz-adv-x="718" 
d="M176 770h391v-86h-391v-598h471v-86h-565v1434h565v-86h-471v-578z" />
    <glyph glyph-name="uni0416" unicode="&#x416;" horiz-adv-x="1275" 
d="M1120 0l-340 717l-96 -164v-553h-94v555l-94 162l-340 -717h-99l375 805l-358 629h96l420 -738v738h94v-738l420 738h98l-356 -627l371 -807h-97z" />
    <glyph glyph-name="uni0417" unicode="&#x417;" horiz-adv-x="774" 
d="M387 1446q157 0 233 -98.5t76 -264.5v-36q0 -107 -50.5 -186t-143.5 -109q95 -27 144.5 -105t49.5 -186v-111q0 -166 -76 -264t-233 -98t-233 98t-76 264v119h90v-125q0 -124 52 -197t165 -73q217 0 217 278v111q0 110 -59 176t-162 66h-80v86h86q94 0 154.5 68t60.5 169
v53q0 279 -217 279q-113 0 -166 -72.5t-53 -197.5v-78h-86v73q0 165 75 263t232 98z" />
    <glyph glyph-name="uni0418" unicode="&#x418;" horiz-adv-x="800" 
d="M635 1268l-215 -594l-236 -674h-102v1434h86v-1227l209 586l231 641h113v-1434h-86v1268z" />
    <glyph glyph-name="uni0419" unicode="&#x419;" horiz-adv-x="802" 
d="M555 1704h63q-1 -81 -58 -127.5t-148 -46.5q-90 0 -147 46.5t-58 127.5h65q1 -57 40.5 -85t99.5 -28q61 0 100.5 28t42.5 85zM635 1268l-205 -570l-246 -698h-102v1434h86v-1227l186 522l254 705h113v-1434h-86v1268z" />
    <glyph glyph-name="uni041A" unicode="&#x41a;" horiz-adv-x="827" 
d="M670 0l-396 674l-98 -156v-518h-94v1434h94v-758l467 758h98l-409 -668l436 -766h-98z" />
    <glyph glyph-name="uni041B" unicode="&#x41b;" horiz-adv-x="897" 
d="M717 1348h-350l-37 -998q-3 -65 -9 -111.5t-22.5 -94.5t-43 -77.5t-71 -48.5t-106.5 -20h-19v86q39 0 68.5 9t48.5 28.5t30.5 40t17.5 55t8.5 61.5t3.5 70l43 1086h534v-1434h-96v1348z" />
    <glyph glyph-name="uni041C" unicode="&#x41c;" horiz-adv-x="1034" 
d="M862 1274l-299 -1272h-94l-303 1268v-1270h-84v1434h135l301 -1268l299 1268h135v-1434h-90v1274z" />
    <glyph glyph-name="uni041D" unicode="&#x41d;" horiz-adv-x="800" 
d="M623 674h-447v-674h-94v1434h94v-674h447v674h96v-1434h-96v674z" />
    <glyph glyph-name="uni041E" unicode="&#x41e;" horiz-adv-x="780" 
d="M76 350v733q0 165 78.5 264t234.5 99q159 0 238.5 -99t79.5 -264v-733q0 -165 -79.5 -263.5t-238.5 -98.5q-156 0 -234.5 98.5t-78.5 263.5zM170 1090v-746q0 -125 53 -197.5t166 -72.5q115 0 169 73t54 197v746q0 124 -54 197t-169 73q-113 0 -166 -72.5t-53 -197.5z
" />
    <glyph glyph-name="uni041F" unicode="&#x41f;" horiz-adv-x="800" 
d="M623 1348h-447v-1348h-94v1434h637v-1434h-96v1348z" />
    <glyph glyph-name="uni0420" unicode="&#x420;" horiz-adv-x="745" 
d="M82 1434h297q159 0 233 -92t74 -257v-155q0 -171 -81.5 -255.5t-250.5 -84.5h-178v-590h-94v1434zM176 676h178q125 0 181.5 59t56.5 189v168q0 124 -49 190t-164 66h-203v-672z" />
    <glyph glyph-name="uni0421" unicode="&#x421;" horiz-adv-x="765" 
d="M385 1446q157 0 233 -99t76 -264v-118h-90v125q0 124 -52 197t-165 73t-165 -73t-52 -197v-746q0 -124 52 -196t165 -72t165 72t52 196v170h90v-164q0 -165 -76 -263.5t-233 -98.5t-233 98.5t-76 263.5v733q0 165 76 264t233 99z" />
    <glyph glyph-name="uni0422" unicode="&#x422;" horiz-adv-x="794" 
d="M444 0h-94v1348h-293v86h680v-86h-293v-1348z" />
    <glyph glyph-name="uni0423" unicode="&#x423;" horiz-adv-x="872" 
d="M815 1434l-371 -1168q-19 -71 -40 -116.5t-56 -83t-88.5 -53.5t-130.5 -13v84q94 -1 139.5 38.5t73.5 129.5l59 174l-344 1008h97l168 -506l124 -383l115 385l156 504h98z" />
    <glyph glyph-name="uni0424" unicode="&#x424;" horiz-adv-x="1138" 
d="M614 1268h117q330 0 330 -361v-391q0 -360 -330 -360h-117v-156h-92v156h-116q-172 0 -251 92t-79 268v391q0 176 79 268.5t251 92.5h116v166h92v-166zM522 1184h-116q-125 0 -181.5 -68.5t-56.5 -202.5v-403q0 -134 56.5 -202t181.5 -68h116v944zM614 240h117
q124 0 181 68.5t57 201.5v403q0 134 -56.5 202.5t-181.5 68.5h-117v-944z" />
    <glyph glyph-name="uni0425" unicode="&#x425;" horiz-adv-x="901" 
d="M737 0l-291 668l-290 -668h-93l324 743l-301 691h98l271 -617l272 617h90l-301 -691l322 -743h-101z" />
    <glyph glyph-name="uni0426" unicode="&#x426;" horiz-adv-x="931" 
d="M862 -193h-92v193h-661v1434h92v-1348h446v1348h96v-1348h119v-279z" />
    <glyph glyph-name="uni0427" unicode="&#x427;" horiz-adv-x="792" 
d="M616 0v688q-81 -141 -251 -141q-98 0 -164.5 48t-95.5 125t-29 177v537h94v-531q0 -118 55.5 -194t165.5 -76q177 0 225 186v615h95v-1434h-95z" />
    <glyph glyph-name="uni0428" unicode="&#x428;" horiz-adv-x="1155" 
d="M82 1434h94v-1348h354v1348h95v-1348h354v1348h94v-1434h-991v1434z" />
    <glyph glyph-name="uni0429" unicode="&#x429;" horiz-adv-x="1259" 
d="M1192 -193h-92v193h-1018v1434h94v-1348h352v1348h95v-1348h356l-2 1348h94v-1348h121v-279z" />
    <glyph glyph-name="uni042A" unicode="&#x42a;" horiz-adv-x="890" 
d="M309 844h178q169 0 250.5 -84.5t81.5 -255.5v-156q0 -348 -307 -348h-297v1348h-195v86h289v-590zM309 86h203q115 0 164 66t49 190v168q0 130 -57 189t-181 59h-178v-672z" />
    <glyph glyph-name="uni042B" unicode="&#x42b;" horiz-adv-x="997" 
d="M176 844h176q171 0 252.5 -84.5t81.5 -255.5v-156q0 -348 -309 -348h-295v1434h94v-590zM821 1434h94v-1434h-94v1434zM176 86h201q115 0 165 66t50 190v168q0 130 -57.5 189t-182.5 59h-176v-672z" />
    <glyph glyph-name="uni042C" unicode="&#x42c;" horiz-adv-x="757" 
d="M176 844h176q171 0 252.5 -84.5t81.5 -255.5v-156q0 -348 -309 -348h-295v1434h94v-590zM176 86h201q115 0 165 66t50 190v168q0 130 -57.5 189t-182.5 59h-176v-672z" />
    <glyph glyph-name="uni042D" unicode="&#x42d;" horiz-adv-x="765" 
d="M381 1446q156 0 232.5 -99.5t76.5 -263.5v-733q0 -164 -76.5 -263t-232.5 -99q-157 0 -233 98.5t-76 263.5v139h90v-145q0 -123 52 -195.5t163 -72.5q114 0 166.5 72t52.5 196v354h-293v86h293v306q0 124 -52.5 197t-166.5 73q-111 0 -163 -73t-52 -197v-97h-88v90
q0 165 75 264t232 99z" />
    <glyph glyph-name="uni042E" unicode="&#x42e;" horiz-adv-x="1130" 
d="M739 1446q158 0 237 -99t79 -264v-733q0 -165 -79 -263.5t-237 -98.5q-159 0 -237 98.5t-78 263.5v324h-248v-674h-94v1434h94v-674h248v323q0 166 78 264.5t237 98.5zM739 1360q-114 0 -167.5 -72.5t-53.5 -197.5v-746q0 -125 53.5 -197.5t167.5 -72.5q113 0 167.5 73
t54.5 197v746q0 124 -54.5 197t-167.5 73z" />
    <glyph glyph-name="uni042F" unicode="&#x42f;" horiz-adv-x="790" 
d="M614 641h-149q-132 0 -200 -54.5t-68 -189.5v-225q0 -119 -31 -172h-98q34 52 34 172v223q0 247 207 293q-207 48 -207 297v125q0 324 308 324h299v-1434h-95v641zM614 1348h-202q-113 0 -164 -63t-51 -183v-135q0 -137 65 -188.5t201 -51.5h151v621z" />
    <glyph glyph-name="uni0430" unicode="&#x430;" horiz-adv-x="892" 
d="M666 317h-447l-72 -317h-86l314 1436h137l319 -1436h-94zM440 1327l-207 -928h418z" />
    <glyph glyph-name="uni0431" unicode="&#x431;" horiz-adv-x="792" 
d="M176 823h205q169 0 251.5 -75.5t82.5 -243.5v-162q0 -342 -318 -342h-315v1434h580v-86h-486v-525zM176 86h221q117 0 170.5 62.5t53.5 187.5v174q0 127 -57 176t-183 49h-205v-649z" />
    <glyph glyph-name="uni0432" unicode="&#x432;" horiz-adv-x="774" 
d="M82 1434h301q157 0 225 -76t68 -230v-81q0 -123 -42.5 -192t-146.5 -91q215 -43 215 -307v-125q0 -332 -313 -332h-307v1434zM176 801h160q132 0 189 48t57 179v92q0 118 -45 173t-156 55h-205v-547zM176 86h213q115 0 167 62t52 186v129q0 136 -61.5 194t-192.5 58h-178
v-629z" />
    <glyph glyph-name="uni0433" unicode="&#x433;" horiz-adv-x="708" 
d="M633 1348h-457v-1348h-94v1434h551v-86z" />
    <glyph glyph-name="uni0434" unicode="&#x434;" horiz-adv-x="1001" 
d="M934 -199h-94v199h-684v-199h-93v285h99q39 40 53 94t18 135l58 1119h524v-1348h119v-285zM379 1348l-53 -1033q-5 -86 -18.5 -138t-49.5 -91h461v1262h-340z" />
    <glyph glyph-name="uni0435" unicode="&#x435;" horiz-adv-x="718" 
d="M176 770h391v-86h-391v-598h471v-86h-565v1434h565v-86h-471v-578z" />
    <glyph glyph-name="uni0436" unicode="&#x436;" horiz-adv-x="1275" 
d="M1120 0l-340 717l-96 -164v-553h-94v555l-94 162l-340 -717h-99l375 805l-358 629h96l420 -738v738h94v-738l420 738h98l-356 -627l371 -807h-97z" />
    <glyph glyph-name="uni0437" unicode="&#x437;" horiz-adv-x="774" 
d="M387 1446q157 0 233 -98.5t76 -264.5v-36q0 -107 -50.5 -186t-143.5 -109q95 -27 144.5 -105t49.5 -186v-111q0 -166 -76 -264t-233 -98t-233 98t-76 264v119h90v-125q0 -124 52 -197t165 -73q217 0 217 278v111q0 110 -59 176t-162 66h-80v86h86q94 0 154.5 68t60.5 169
v53q0 279 -217 279q-113 0 -166 -72.5t-53 -197.5v-78h-86v73q0 165 75 263t232 98z" />
    <glyph glyph-name="uni0438" unicode="&#x438;" horiz-adv-x="800" 
d="M635 1268l-217 -602l-234 -666h-102v1434h86v-1227l166 473l274 754h113v-1434h-86v1268z" />
    <glyph glyph-name="uni0439" unicode="&#x439;" horiz-adv-x="802" 
d="M555 1700h63q-1 -82 -58 -128t-148 -46q-90 0 -147 46.5t-58 127.5h65q1 -58 40.5 -86.5t99.5 -28.5q61 0 100.5 28.5t42.5 86.5zM635 1268l-451 -1268h-102v1434h86v-1227l180 510l260 717h113v-1434h-86v1268z" />
    <glyph glyph-name="uni043A" unicode="&#x43a;" horiz-adv-x="827" 
d="M670 0l-396 674l-98 -156v-518h-94v1434h94v-758l467 758h98l-409 -668l436 -766h-98z" />
    <glyph glyph-name="uni043B" unicode="&#x43b;" horiz-adv-x="897" 
d="M717 1348h-350l-37 -998q-3 -65 -9 -111.5t-22.5 -94.5t-43 -77.5t-71 -48.5t-106.5 -20h-19v86q39 0 68.5 9t48.5 28.5t30.5 40t17.5 55t8.5 61.5t3.5 70l43 1086h534v-1434h-96v1348z" />
    <glyph glyph-name="uni043C" unicode="&#x43c;" horiz-adv-x="1034" 
d="M862 1274l-299 -1272h-94l-303 1268v-1270h-84v1434h135l301 -1268l299 1268h135v-1434h-90v1274z" />
    <glyph glyph-name="uni043D" unicode="&#x43d;" horiz-adv-x="800" 
d="M623 674h-447v-674h-94v1434h94v-674h447v674h96v-1434h-96v674z" />
    <glyph glyph-name="uni043E" unicode="&#x43e;" horiz-adv-x="780" 
d="M76 350v733q0 165 78.5 264t234.5 99q159 0 238.5 -99t79.5 -264v-733q0 -165 -79.5 -263.5t-238.5 -98.5q-156 0 -234.5 98.5t-78.5 263.5zM170 1090v-746q0 -125 53 -197.5t166 -72.5q115 0 169 73t54 197v746q0 124 -54 197t-169 73q-113 0 -166 -72.5t-53 -197.5z
" />
    <glyph glyph-name="uni043F" unicode="&#x43f;" horiz-adv-x="800" 
d="M623 1348h-447v-1348h-94v1434h637v-1434h-96v1348z" />
    <glyph glyph-name="uni0440" unicode="&#x440;" horiz-adv-x="745" 
d="M82 1434h297q159 0 233 -92t74 -257v-155q0 -171 -81.5 -255.5t-250.5 -84.5h-178v-590h-94v1434zM176 676h178q125 0 181.5 59t56.5 189v168q0 124 -49 190t-164 66h-203v-672z" />
    <glyph glyph-name="uni0441" unicode="&#x441;" horiz-adv-x="765" 
d="M385 1446q157 0 233 -99t76 -264v-118h-90v125q0 124 -52 197t-165 73t-165 -73t-52 -197v-746q0 -124 52 -196t165 -72t165 72t52 196v170h90v-164q0 -165 -76 -263.5t-233 -98.5t-233 98.5t-76 263.5v733q0 165 76 264t233 99z" />
    <glyph glyph-name="uni0442" unicode="&#x442;" horiz-adv-x="794" 
d="M444 0h-94v1348h-293v86h680v-86h-293v-1348z" />
    <glyph glyph-name="uni0443" unicode="&#x443;" horiz-adv-x="872" 
d="M815 1434l-371 -1168q-19 -71 -40 -116.5t-56 -83t-88.5 -53.5t-130.5 -13v84q94 -1 139.5 38.5t73.5 129.5l59 174l-344 1008h97l168 -506l124 -383l115 385l156 504h98z" />
    <glyph glyph-name="uni0444" unicode="&#x444;" horiz-adv-x="1138" 
d="M614 1268h117q330 0 330 -361v-391q0 -360 -330 -360h-117v-156h-92v156h-116q-172 0 -251 92t-79 268v391q0 176 79 268.5t251 92.5h116v166h92v-166zM522 1184h-116q-125 0 -181.5 -68.5t-56.5 -202.5v-403q0 -134 56.5 -202t181.5 -68h116v944zM614 240h117
q124 0 181 68.5t57 201.5v403q0 134 -56.5 202.5t-181.5 68.5h-117v-944z" />
    <glyph glyph-name="uni0445" unicode="&#x445;" horiz-adv-x="901" 
d="M737 0l-291 668l-290 -668h-93l324 743l-301 691h98l271 -617l272 617h90l-301 -691l322 -743h-101z" />
    <glyph glyph-name="uni0446" unicode="&#x446;" horiz-adv-x="931" 
d="M862 -193h-92v193h-661v1434h92v-1348h446v1348h96v-1348h119v-279z" />
    <glyph glyph-name="uni0447" unicode="&#x447;" horiz-adv-x="792" 
d="M616 0v688q-81 -141 -251 -141q-98 0 -164.5 48t-95.5 125t-29 177v537h94v-531q0 -118 55.5 -194t165.5 -76q177 0 225 186v615h95v-1434h-95z" />
    <glyph glyph-name="uni0448" unicode="&#x448;" horiz-adv-x="1155" 
d="M82 1434h94v-1348h354v1348h95v-1348h354v1348h94v-1434h-991v1434z" />
    <glyph glyph-name="uni0449" unicode="&#x449;" horiz-adv-x="1259" 
d="M1192 -193h-92v193h-1018v1434h94v-1348h352v1348h95v-1348h356l-2 1348h94v-1348h121v-279z" />
    <glyph glyph-name="uni044A" unicode="&#x44a;" horiz-adv-x="890" 
d="M309 844h178q169 0 250.5 -84.5t81.5 -255.5v-156q0 -348 -307 -348h-297v1348h-195v86h289v-590zM309 86h203q115 0 164 66t49 190v168q0 130 -57 189t-181 59h-178v-672z" />
    <glyph glyph-name="uni044B" unicode="&#x44b;" horiz-adv-x="997" 
d="M176 844h176q171 0 252.5 -84.5t81.5 -255.5v-156q0 -348 -309 -348h-295v1434h94v-590zM821 1434h94v-1434h-94v1434zM176 86h201q115 0 165 66t50 190v168q0 130 -57.5 189t-182.5 59h-176v-672z" />
    <glyph glyph-name="uni044C" unicode="&#x44c;" horiz-adv-x="757" 
d="M176 844h176q171 0 252.5 -84.5t81.5 -255.5v-156q0 -348 -309 -348h-295v1434h94v-590zM176 86h201q115 0 165 66t50 190v168q0 130 -57.5 189t-182.5 59h-176v-672z" />
    <glyph glyph-name="uni044D" unicode="&#x44d;" horiz-adv-x="765" 
d="M381 1446q156 0 232.5 -99.5t76.5 -263.5v-733q0 -164 -76.5 -263t-232.5 -99q-157 0 -233 98.5t-76 263.5v139h90v-145q0 -123 52 -195.5t163 -72.5q114 0 166.5 72t52.5 196v354h-293v86h293v306q0 124 -52.5 197t-166.5 73q-111 0 -163 -73t-52 -197v-97h-88v90
q0 165 75 264t232 99z" />
    <glyph glyph-name="uni044E" unicode="&#x44e;" horiz-adv-x="1130" 
d="M739 1446q158 0 237 -99t79 -264v-733q0 -165 -79 -263.5t-237 -98.5q-159 0 -237 98.5t-78 263.5v324h-248v-674h-94v1434h94v-674h248v323q0 166 78 264.5t237 98.5zM739 1360q-114 0 -167.5 -72.5t-53.5 -197.5v-746q0 -125 53.5 -197.5t167.5 -72.5q113 0 167.5 73
t54.5 197v746q0 124 -54.5 197t-167.5 73z" />
    <glyph glyph-name="uni044F" unicode="&#x44f;" horiz-adv-x="790" 
d="M614 641h-149q-132 0 -200 -54.5t-68 -189.5v-225q0 -119 -31 -172h-98q34 52 34 172v223q0 247 207 293q-207 48 -207 297v125q0 324 308 324h299v-1434h-95v641zM614 1348h-202q-113 0 -164 -63t-51 -183v-135q0 -137 65 -188.5t201 -51.5h151v621z" />
    <glyph glyph-name="uni0451" unicode="&#x451;" horiz-adv-x="718" 
d="M223 1700h84v-174h-84v174zM422 1700h84v-174h-84v174zM176 770h391v-86h-391v-598h471v-86h-565v1434h565v-86h-471v-578z" />
    <glyph glyph-name="uni1E02" unicode="&#x1e02;" horiz-adv-x="774" 
d="M307 1694h82v-174h-82v174zM82 1434h301q157 0 225 -76t68 -230v-81q0 -123 -42.5 -192t-146.5 -91q215 -43 215 -307v-125q0 -332 -313 -332h-307v1434zM176 801h160q132 0 189 48t57 179v92q0 118 -45 173t-156 55h-205v-547zM176 86h213q115 0 167 62t52 186v129
q0 136 -61.5 194t-192.5 58h-178v-629z" />
    <glyph glyph-name="uni1E03" unicode="&#x1e03;" horiz-adv-x="774" 
d="M307 1694h82v-174h-82v174zM82 1434h301q157 0 225 -76t68 -230v-81q0 -123 -42.5 -192t-146.5 -91q215 -43 215 -307v-125q0 -332 -313 -332h-307v1434zM176 801h160q132 0 189 48t57 179v92q0 118 -45 173t-156 55h-205v-547zM176 86h213q115 0 167 62t52 186v129
q0 136 -61.5 194t-192.5 58h-178v-629z" />
    <glyph glyph-name="uni1E0A" unicode="&#x1e0a;" horiz-adv-x="788" 
d="M319 1694h84v-174h-84v174zM82 1434h315q160 0 239 -96t79 -261v-721q0 -165 -79 -260.5t-239 -95.5h-315v1434zM176 86h219q115 0 170.5 71t55.5 195v729q0 124 -56 195.5t-170 71.5h-219v-1262z" />
    <glyph glyph-name="uni1E0B" unicode="&#x1e0b;" horiz-adv-x="788" 
d="M319 1694h84v-174h-84v174zM82 1434h315q160 0 239 -96t79 -261v-721q0 -165 -79 -260.5t-239 -95.5h-315v1434zM176 86h219q115 0 170.5 71t55.5 195v729q0 124 -56 195.5t-170 71.5h-219v-1262z" />
    <glyph glyph-name="uni1E1E" unicode="&#x1e1e;" horiz-adv-x="688" 
d="M309 1692h84v-174h-84v174zM176 735h371v-86h-371v-649h-94v1434h545v-86h-451v-613z" />
    <glyph glyph-name="uni1E1F" unicode="&#x1e1f;" horiz-adv-x="688" 
d="M324 1694h84v-174h-84v174zM176 735h371v-86h-371v-649h-94v1434h545v-86h-451v-613z" />
    <glyph glyph-name="uni1E40" unicode="&#x1e40;" horiz-adv-x="1034" 
d="M475 1702h84v-176h-84v176zM862 1274l-299 -1272h-94l-303 1268v-1270h-84v1434h135l301 -1268l299 1268h135v-1434h-90v1274z" />
    <glyph glyph-name="uni1E41" unicode="&#x1e41;" horiz-adv-x="1034" 
d="M475 1704h84v-174h-84v174zM862 1274l-299 -1272h-94l-303 1268v-1270h-84v1434h135l301 -1268l299 1268h135v-1434h-90v1274z" />
    <glyph glyph-name="uni1E56" unicode="&#x1e56;" horiz-adv-x="745" 
d="M307 1694h84v-174h-84v174zM82 1434h297q159 0 233 -92t74 -257v-155q0 -171 -81.5 -255.5t-250.5 -84.5h-178v-590h-94v1434zM176 676h178q125 0 181.5 59t56.5 189v168q0 124 -49 190t-164 66h-203v-672z" />
    <glyph glyph-name="uni1E57" unicode="&#x1e57;" horiz-adv-x="745" 
d="M317 1694h84v-174h-84v174zM82 1434h297q159 0 233 -92t74 -257v-155q0 -171 -81.5 -255.5t-250.5 -84.5h-178v-590h-94v1434zM176 676h178q125 0 181.5 59t56.5 189v168q0 124 -49 190t-164 66h-203v-672z" />
    <glyph glyph-name="uni1E60" unicode="&#x1e60;" horiz-adv-x="757" 
d="M338 1694h84v-172h-84v172zM381 1446q105 0 175 -47.5t100 -126t30 -185.5v-30h-90v37q0 122 -51 194t-162 72t-162 -71t-51 -193q0 -70 28.5 -129.5t74.5 -103t101 -84t110 -83t101 -89.5t74.5 -114t28.5 -147q0 -164 -76 -261t-233 -97t-233 97t-76 261v74h90v-80
q0 -123 52 -193.5t165 -70.5t165 70.5t52 193.5q0 70 -28.5 128.5t-74.5 101.5t-101 83.5t-110 83t-101 90t-74.5 115t-28.5 148.5q0 167 75.5 261t229.5 95z" />
    <glyph glyph-name="uni1E61" unicode="&#x1e61;" horiz-adv-x="757" 
d="M348 1706h84v-172h-84v172zM381 1446q105 0 175 -47.5t100 -126t30 -185.5v-30h-90v37q0 122 -51 194t-162 72t-162 -71t-51 -193q0 -70 28.5 -129.5t74.5 -103t101 -84t110 -83t101 -89.5t74.5 -114t28.5 -147q0 -164 -76 -261t-233 -97t-233 97t-76 261v74h90v-80
q0 -123 52 -193.5t165 -70.5t165 70.5t52 193.5q0 70 -28.5 128.5t-74.5 101.5t-101 83.5t-110 83t-101 90t-74.5 115t-28.5 148.5q0 167 75.5 261t229.5 95z" />
    <glyph glyph-name="uni1E6A" unicode="&#x1e6a;" horiz-adv-x="794" 
d="M356 1696h82v-174h-82v174zM444 0h-94v1348h-293v86h680v-86h-293v-1348z" />
    <glyph glyph-name="uni1E6B" unicode="&#x1e6b;" horiz-adv-x="794" 
d="M350 1694h84v-174h-84v174zM438 0h-94v1348h-291v86h678v-86h-293v-1348z" />
    <glyph glyph-name="Wgrave" unicode="&#x1e80;" horiz-adv-x="1234" 
d="M469 1724h102l146 -194h-74zM627 1174l-201 -1174h-131l-232 1434h93l215 -1307l209 1300h100l201 -1296l206 1303h84l-229 -1434h-123z" />
    <glyph glyph-name="wgrave" unicode="&#x1e81;" horiz-adv-x="1234" 
d="M469 1724h102l146 -194h-74zM627 1174l-201 -1174h-131l-232 1434h93l215 -1307l209 1300h100l201 -1296l206 1303h84l-229 -1434h-123z" />
    <glyph glyph-name="Wacute" unicode="&#x1e82;" horiz-adv-x="1234" 
d="M686 1712h96l-172 -194h-71zM627 1174l-201 -1174h-131l-232 1434h93l215 -1307l209 1300h100l201 -1296l206 1303h84l-229 -1434h-123z" />
    <glyph glyph-name="wacute" unicode="&#x1e83;" horiz-adv-x="1234" 
d="M686 1712h96l-172 -194h-71zM627 1174l-201 -1174h-131l-232 1434h93l215 -1307l209 1300h100l201 -1296l206 1303h84l-229 -1434h-123z" />
    <glyph glyph-name="Wdieresis" unicode="&#x1e84;" horiz-adv-x="1234" 
d="M483 1700h84v-174h-84v174zM682 1700h84v-174h-84v174zM627 1174l-201 -1174h-131l-232 1434h93l215 -1307l209 1300h100l201 -1296l206 1303h84l-229 -1434h-123z" />
    <glyph glyph-name="wdieresis" unicode="&#x1e85;" horiz-adv-x="1234" 
d="M483 1700h84v-174h-84v174zM682 1700h84v-174h-84v174zM627 1174l-201 -1174h-131l-232 1434h93l215 -1307l209 1300h100l201 -1296l206 1303h84l-229 -1434h-123z" />
    <glyph glyph-name="Ygrave" unicode="&#x1ef2;" horiz-adv-x="849" 
d="M260 1724h100l148 -194h-76zM377 0v551l-322 883h99l274 -754l274 754h93l-324 -883v-551h-94z" />
    <glyph glyph-name="ygrave" unicode="&#x1ef3;" horiz-adv-x="849" 
d="M260 1724h100l148 -194h-76zM377 0v551l-322 883h99l274 -754l274 754h93l-324 -883v-551h-94z" />
    <glyph glyph-name="figuredash" unicode="&#x2012;" horiz-adv-x="927" 
d="M53 678v78h821v-78h-821z" />
    <glyph glyph-name="endash" unicode="&#x2013;" horiz-adv-x="854" 
d="M53 678v78h750v-78h-750z" />
    <glyph glyph-name="emdash" unicode="&#x2014;" horiz-adv-x="1372" 
d="M53 678v78h1268v-78h-1268z" />
    <glyph glyph-name="quoteleft" unicode="&#x2018;" horiz-adv-x="274" 
d="M82 1270l59 164h41l-41 -156h33v-180h-92v172z" />
    <glyph glyph-name="quoteright" unicode="&#x2019;" horiz-adv-x="274" 
d="M193 1262l-60 -164h-41l41 155h-31v181h91v-172z" />
    <glyph glyph-name="quotesinglbase" unicode="&#x201a;" horiz-adv-x="274" 
d="M193 8l-60 -164h-41l41 156h-31v180h91v-172z" />
    <glyph glyph-name="quotedblleft" unicode="&#x201c;" horiz-adv-x="434" 
d="M82 1270l59 164h41l-41 -156h33v-180h-92v172zM242 1270l59 164h43l-43 -156h33v-180h-92v172z" />
    <glyph glyph-name="quotedblright" unicode="&#x201d;" horiz-adv-x="434" 
d="M184 1262l-59 -164h-43l43 155h-33v181h92v-172zM344 1262l-59 -164h-41l41 155h-33v181h92v-172z" />
    <glyph glyph-name="quotedblbase" unicode="&#x201e;" horiz-adv-x="444" 
d="M193 8l-60 -164h-41l41 156h-31v180h91v-172zM362 8l-57 -164h-43l43 156h-33v180h90v-172z" />
    <glyph glyph-name="dagger" unicode="&#x2020;" horiz-adv-x="804" 
d="M442 1434v-408h291v-76h-291v-1083h-80v1083h-290v76h290v408h80z" />
    <glyph glyph-name="daggerdbl" unicode="&#x2021;" horiz-adv-x="804" 
d="M442 1434v-408h291v-76h-291v-596h291v-78h-291v-409h-80v409h-290v78h290v596h-290v76h290v408h80z" />
    <glyph glyph-name="bullet" unicode="&#x2022;" horiz-adv-x="538" 
d="M268 864q62 0 105 -43t43 -104t-43 -104.5t-105 -43.5q-60 0 -102.5 43.5t-42.5 104.5t42.5 104t102.5 43z" />
    <glyph glyph-name="ellipsis" unicode="&#x2026;" horiz-adv-x="579" 
d="M82 180h92v-180h-92v180zM244 180h90v-180h-90v180zM408 180h90v-180h-90v180z" />
    <glyph glyph-name="perthousand" unicode="&#x2030;" horiz-adv-x="1744" 
d="M270 1438q99 0 147 -64t48 -168v-436q0 -104 -48 -167.5t-147 -63.5q-98 0 -145 63.5t-47 167.5v436q0 104 47 168t145 64zM868 1436h62l-565 -1436h-62zM270 1378q-129 0 -129 -170v-442q0 -75 30 -121.5t99 -46.5q67 0 98 47t31 121v442q0 76 -30.5 123t-98.5 47z
M969 893q99 0 145.5 -64.5t46.5 -169.5v-430q0 -105 -46.5 -169t-145.5 -64t-147 64.5t-48 168.5v430q0 104 48 169t147 65zM1475 893q99 0 145.5 -64.5t46.5 -169.5v-430q0 -105 -46.5 -169t-145.5 -64t-147 64.5t-48 168.5v430q0 104 48 169t147 65zM969 831
q-68 0 -98.5 -46t-30.5 -121v-439q0 -75 31 -122.5t98 -47.5q68 0 98.5 47.5t30.5 122.5v439q0 167 -129 167zM1475 831q-68 0 -98.5 -46t-30.5 -121v-439q0 -75 31 -122.5t98 -47.5q68 0 98.5 47.5t30.5 122.5v439q0 167 -129 167z" />
    <glyph glyph-name="guilsinglleft" unicode="&#x2039;" horiz-adv-x="350" 
d="M197 199l-134 518l134 508h90l-131 -508l131 -518h-90z" />
    <glyph glyph-name="guilsinglright" unicode="&#x203a;" horiz-adv-x="350" 
d="M63 201l132 518l-132 508h91l133 -508l-133 -518h-91z" />
    <glyph glyph-name="fraction" unicode="&#x2044;" horiz-adv-x="528" 
d="M516 1434h62l-566 -1434h-61z" />
    <glyph glyph-name="zerosuperior" unicode="&#x2070;" horiz-adv-x="561" 
d="M78 940v467q0 105 50.5 168t152.5 63q101 0 151.5 -63t50.5 -168v-467q0 -105 -50.5 -168t-151.5 -63q-102 0 -152.5 63t-50.5 168zM141 1411v-475q0 -77 34.5 -122.5t105.5 -45.5q70 0 103.5 45.5t33.5 122.5v475q0 77 -33.5 122.5t-103.5 45.5q-71 0 -105.5 -45.5
t-34.5 -122.5z" />
    <glyph glyph-name="foursuperior" unicode="&#x2074;" horiz-adv-x="585" 
d="M520 915h-76v-196h-63v196h-311v60l303 653h71v-653h76v-60zM381 1505l-250 -530h250v530z" />
    <glyph glyph-name="fivesuperior" unicode="&#x2075;" horiz-adv-x="555" 
d="M141 985v-51q0 -77 33 -122.5t102 -45.5q70 0 103 45.5t33 122.5v153q0 77 -33 122.5t-103 45.5q-46 0 -81.5 -26.5t-42.5 -73.5v-16h-64l25 489h342v-61h-285l-14 -328q47 78 143 78q90 0 134 -61.5t44 -163.5v-156q0 -104 -49 -167.5t-149 -63.5t-149.5 63.5
t-49.5 167.5v49h61z" />
    <glyph glyph-name="sixsuperior" unicode="&#x2076;" horiz-adv-x="561" 
d="M283 1638q101 0 149.5 -61.5t48.5 -167.5v-10h-61v14q0 166 -135 166q-142 0 -142 -176v-229q43 102 160 102q91 0 135.5 -61.5t44.5 -163.5v-111q0 -106 -49.5 -168.5t-150.5 -62.5q-102 0 -152.5 63t-50.5 168v465q0 107 49.5 170t153.5 63zM283 1217q-72 0 -106 -46
t-34 -124v-111q0 -77 34.5 -122.5t105.5 -45.5q70 0 103.5 45.5t33.5 122.5v111q0 78 -33.5 124t-103.5 46z" />
    <glyph glyph-name="sevensuperior" unicode="&#x2077;" horiz-adv-x="552" 
d="M154 719l256 850h-332v59h397v-57l-256 -852h-65z" />
    <glyph glyph-name="eightsuperior" unicode="&#x2078;" horiz-adv-x="567" 
d="M285 1638q101 0 155 -60.5t54 -162.5v-29q0 -148 -111 -192q111 -40 111 -195v-63q0 -104 -53.5 -165.5t-155.5 -61.5q-103 0 -156 61t-53 166v63q0 156 110 195q-110 43 -110 192v29q0 103 53.5 163t155.5 60zM285 1579q-71 0 -108.5 -43.5t-37.5 -122.5v-37
q0 -153 146 -153q143 0 143 153v37q0 79 -36.5 122.5t-106.5 43.5zM285 1163q-146 0 -146 -157v-70q0 -80 37 -124t109 -44q71 0 107 44t36 124v70q0 157 -143 157z" />
    <glyph glyph-name="ninesuperior" unicode="&#x2079;" horiz-adv-x="561" 
d="M279 1638q101 0 151.5 -63t50.5 -168v-465q0 -107 -49.5 -170t-152.5 -63q-101 0 -152 62.5t-51 166.5v12h63v-16q0 -76 33.5 -121t103.5 -45q72 0 106 47t34 129v227q-40 -100 -158 -100q-93 0 -137.5 60.5t-44.5 162.5v113q0 105 50.5 168t152.5 63zM279 1579
q-70 0 -104 -45.5t-34 -122.5v-113q0 -77 34 -122.5t104 -45.5t103.5 45.5t33.5 122.5v113q0 77 -33.5 122.5t-103.5 45.5z" />
    <glyph glyph-name="zeroinferior" unicode="&#x2080;" horiz-adv-x="561" 
d="M78 88v467q0 105 50.5 168t152.5 63q101 0 151.5 -63t50.5 -168v-467q0 -105 -50.5 -168t-151.5 -63q-102 0 -152.5 63t-50.5 168zM141 559v-475q0 -77 34.5 -122.5t105.5 -45.5q70 0 103.5 45.5t33.5 122.5v475q0 77 -33.5 122.5t-103.5 45.5q-71 0 -105.5 -45.5
t-34.5 -122.5z" />
    <glyph glyph-name="oneinferior" unicode="&#x2081;" horiz-adv-x="364" 
d="M209 -133v805q-55 -61 -137 -70v51q108 5 151 123h51v-909h-65z" />
    <glyph glyph-name="twoinferior" unicode="&#x2082;" horiz-adv-x="555" 
d="M283 786q102 0 150 -63t48 -170q0 -53 -18.5 -103t-47.5 -89.5t-64.5 -78l-71 -77t-65 -78t-48.5 -89.5t-19 -104v-8h324v-59h-387v47q0 65 18.5 122.5t47.5 100.5t64.5 82.5t71 76.5t64.5 74.5t47.5 84t18.5 96.5q0 176 -135 176q-71 0 -103.5 -47.5t-32.5 -126.5v-61
h-61v59q0 107 48.5 171t150.5 64z" />
    <glyph glyph-name="threeinferior" unicode="&#x2083;" horiz-adv-x="555" 
d="M279 786q100 0 148 -62.5t48 -168.5v-23q0 -68 -29 -118.5t-86 -71.5q57 -18 86 -66.5t29 -115.5v-72q0 -106 -48 -168.5t-148 -62.5q-101 0 -150 62.5t-49 168.5v51h61v-55q0 -77 32.5 -122.5t102.5 -45.5q136 0 136 174v70q0 69 -35 109t-98 40h-62v60h64q59 0 96 44
t35 107v33q0 174 -136 174q-70 0 -102.5 -46t-32.5 -122v-37h-61v33q0 106 49 168.5t150 62.5z" />
    <glyph glyph-name="fourinferior" unicode="&#x2084;" horiz-adv-x="585" 
d="M520 57h-76v-196h-63v196h-311v60l303 653h71v-653h76v-60zM381 647l-250 -530h250v530z" />
    <glyph glyph-name="fiveinferior" unicode="&#x2085;" horiz-adv-x="555" 
d="M141 141v-53q0 -77 33 -122.5t102 -45.5q70 0 103 45.5t33 122.5v154q0 77 -33 123.5t-103 46.5q-45 0 -81 -28t-43 -75v-14h-64l25 487h342v-61h-285l-14 -326q48 76 143 76q90 0 134 -61.5t44 -163.5v-156q0 -104 -49 -167.5t-149 -63.5t-149.5 63.5t-49.5 167.5v51h61
z" />
    <glyph glyph-name="sixinferior" unicode="&#x2086;" horiz-adv-x="561" 
d="M283 786q101 0 149.5 -61.5t48.5 -167.5v-10h-61v14q0 166 -135 166q-142 0 -142 -176v-229q43 102 160 102q91 0 135.5 -61.5t44.5 -163.5v-111q0 -106 -49.5 -168.5t-150.5 -62.5q-102 0 -152.5 63t-50.5 168v465q0 107 49.5 170t153.5 63zM283 365q-72 0 -106 -46
t-34 -124v-111q0 -77 34.5 -122.5t105.5 -45.5q70 0 103.5 45.5t33.5 122.5v111q0 78 -33.5 124t-103.5 46z" />
    <glyph glyph-name="seveninferior" unicode="&#x2087;" horiz-adv-x="552" 
d="M154 -127l256 850h-332v59h397v-57l-256 -852h-65z" />
    <glyph glyph-name="eightinferior" unicode="&#x2088;" horiz-adv-x="567" 
d="M285 786q101 0 155 -60.5t54 -162.5v-28q0 -149 -111 -193q111 -40 111 -195v-63q0 -104 -53.5 -165.5t-155.5 -61.5q-103 0 -156 61t-53 166v63q0 156 110 195q-110 43 -110 193v28q0 103 53.5 163t155.5 60zM285 727q-71 0 -108.5 -43.5t-37.5 -122.5v-37
q0 -153 146 -153q143 0 143 153v37q0 79 -36.5 122.5t-106.5 43.5zM285 311q-146 0 -146 -157v-70q0 -80 37 -124t109 -44q71 0 107 44t36 124v70q0 157 -143 157z" />
    <glyph glyph-name="nineinferior" unicode="&#x2089;" horiz-adv-x="561" 
d="M279 786q101 0 151.5 -63t50.5 -168v-465q0 -107 -49.5 -170t-152.5 -63q-101 0 -152 62.5t-51 166.5v12h63v-16q0 -76 33.5 -121t103.5 -45q72 0 106 47t34 129v227q-40 -100 -158 -100q-93 0 -137.5 60.5t-44.5 162.5v113q0 105 50.5 168t152.5 63zM279 727
q-70 0 -104 -45.5t-34 -122.5v-113q0 -76 34 -121.5t104 -45.5t103.5 45t33.5 122v113q0 77 -33.5 122.5t-103.5 45.5z" />
    <glyph glyph-name="Euro" unicode="&#x20ac;" horiz-adv-x="813" 
d="M135 860v223q0 164 74 263.5t229 99.5t229 -99.5t74 -263.5v-77h-90v84q0 123 -50 196.5t-161 73.5q-109 0 -160 -73.5t-51 -196.5v-230h396v-55h-396v-168h396v-53h-396v-240q0 -123 50 -195.5t161 -72.5t161 72.5t50 195.5v94h90v-88q0 -164 -74 -263t-229 -99t-229 99
t-74 263v234h-82v53h82v168h-82v55h82z" />
    <glyph glyph-name="uni20B9" unicode="&#x20b9;" horiz-adv-x="778" 
d="M707 1358h-287q79 -35 117.5 -111.5t40.5 -171.5h129v-76h-129q-8 -145 -95.5 -232t-246.5 -87h-60l512 -680h-102l-514 682v74h143q134 0 200.5 64.5t69.5 178.5h-407v76h407q0 130 -69.5 206.5t-200.5 76.5h-137v76h629v-76z" />
    <glyph glyph-name="uni2117" unicode="&#x2117;" horiz-adv-x="1531" 
d="M766 1436q150 0 280 -55t221.5 -150t144 -228t52.5 -284q0 -203 -89 -367t-249 -258t-360 -94t-360 94t-249 258t-89 367q0 151 52.5 284t144 228t221.5 150t280 55zM766 1370q-182 0 -327 -85t-225.5 -233.5t-80.5 -332.5t80.5 -333.5t226 -236t326.5 -86.5t326 86.5
t225 236t80 333.5t-80 332.5t-225 233.5t-326 85zM598 1139h211q213 0 213 -238v-72q0 -118 -55 -174.5t-174 -56.5h-125v-336h-70v877zM668 662h120q87 0 125.5 41.5t38.5 132.5v59q0 86 -33.5 132t-113.5 46h-137v-411z" />
    <glyph glyph-name="trademark" unicode="&#x2122;" horiz-adv-x="1187" 
d="M279 705h-66v669h-184v60h432v-60h-182v-669zM1055 1333l-187 -620h-63l-189 620v-628h-59v729h90l191 -623l188 623h90v-729h-61v628z" />
    <glyph glyph-name="uni2153" unicode="&#x2153;" horiz-adv-x="1159" 
d="M238 524v805q-54 -60 -136 -69l-2 51q112 5 152 123h51v-910h-65zM774 1434h62l-566 -1434h-61zM883 920q100 0 149 -63t49 -169v-22q0 -68 -29 -118t-85 -71q57 -21 85.5 -69t28.5 -115v-72q0 -105 -49 -168t-149 -63q-101 0 -150 62.5t-49 168.5v51h61v-55
q0 -77 33 -122.5t103 -45.5q135 0 135 174v70q0 69 -35 109t-98 40h-62v60h64q59 0 96 44t35 107v33q0 174 -135 174q-70 0 -103 -46t-33 -122v-37h-61v33q0 106 49 169t150 63z" />
    <glyph glyph-name="uni2154" unicode="&#x2154;" horiz-adv-x="1249" 
d="M283 1444q102 0 150 -63.5t48 -170.5q0 -53 -18 -103t-47.5 -89.5t-64.5 -78t-70.5 -77t-65 -78t-48.5 -89.5t-20 -103v-8h324v-60h-387v45q0 65 18.5 123t47.5 101.5t64.5 83t71 77t64.5 74.5t47.5 83.5t18.5 96.5q0 176 -135 176q-71 0 -103.5 -48t-32.5 -126v-61h-61
v59q0 107 48.5 171.5t150.5 64.5zM940 1434l-565 -1434h-60l566 1434h59zM971 920q101 0 149.5 -63t48.5 -169v-22q0 -68 -29 -118t-85 -71q114 -41 114 -184v-72q0 -106 -48.5 -168.5t-149.5 -62.5t-150 62.5t-49 168.5v51h62v-55q0 -77 32.5 -122.5t102.5 -45.5
q137 0 137 174v70q0 69 -35 109t-98 40h-62v60h64q58 0 94.5 44t36.5 107v33q0 174 -137 174q-70 0 -102.5 -46t-32.5 -122v-37h-62v33q0 106 49 169t150 63z" />
    <glyph glyph-name="oneeighth" unicode="&#x215b;" horiz-adv-x="1179" 
d="M238 524v805q-54 -60 -136 -69l-2 51q112 5 152 123h51v-910h-65zM270 0h-61l565 1434h62zM895 920q102 0 155.5 -60.5t53.5 -163.5v-28q0 -150 -111 -193q111 -39 111 -194v-64q0 -105 -53 -166t-156 -61t-156 61t-53 166v64q0 155 111 194q-111 43 -111 193v28
q0 102 54.5 163t154.5 61zM895 860q-70 0 -106.5 -43.5t-36.5 -122.5v-37q0 -153 143 -153t143 153v37q0 79 -36.5 122.5t-106.5 43.5zM895 444q-143 0 -143 -157v-70q0 -80 35.5 -124t107.5 -44t107.5 44t35.5 124v70q0 157 -143 157z" />
    <glyph glyph-name="threeeighths" unicode="&#x215c;" horiz-adv-x="1282" 
d="M279 1444q100 0 148 -63t48 -169v-22q0 -68 -29 -118t-86 -71q115 -42 115 -184v-72q0 -106 -48 -168.5t-148 -62.5q-101 0 -150 62.5t-49 168.5v52h61v-56q0 -77 32.5 -122.5t102.5 -45.5t103 47t33 128v69q0 69 -35 109.5t-98 40.5h-62v59h64q59 0 96 44.5t35 107.5v32
q0 174 -136 174q-70 0 -102.5 -45.5t-32.5 -121.5v-37h-61v32q0 106 49 169t150 63zM885 1434h61l-565 -1434h-62zM997 920q100 0 154.5 -61t54.5 -163v-28q0 -150 -110 -193q110 -39 110 -194v-64q0 -105 -53 -166t-156 -61t-156 61t-53 166v64q0 155 111 194
q-111 43 -111 193v28q0 102 54.5 163t154.5 61zM997 860q-70 0 -106.5 -43.5t-36.5 -122.5v-37q0 -153 143 -153q144 0 144 153v37q0 79 -37 122.5t-107 43.5zM997 444q-143 0 -143 -157v-70q0 -80 35.5 -124t107.5 -44t108 44t36 124v70q0 157 -144 157z" />
    <glyph glyph-name="fiveeighths" unicode="&#x215d;" horiz-adv-x="1277" 
d="M170 1372l-14 -328q47 78 143 78q90 0 134 -61.5t44 -163.5v-156q0 -104 -49 -167.5t-149 -63.5t-149.5 63.5t-49.5 167.5v50h61v-52q0 -77 33 -122.5t102 -45.5q70 0 103 45.5t33 122.5v154q0 77 -33 122.5t-103 45.5q-46 0 -81.5 -26.5t-42.5 -73.5v-17h-64l25 490h342
v-62h-285zM317 0l566 1434h61l-565 -1434h-62zM995 920q100 0 154.5 -61t54.5 -163v-28q0 -149 -110 -193q110 -40 110 -194v-64q0 -104 -53.5 -165.5t-155.5 -61.5q-103 0 -156 61t-53 166v64q0 155 111 194q-111 43 -111 193v28q0 103 53.5 163.5t155.5 60.5zM995 860
q-71 0 -108 -43.5t-37 -122.5v-37q0 -153 145 -153q70 0 107 38.5t37 114.5v37q0 79 -37 122.5t-107 43.5zM995 444q-145 0 -145 -157v-70q0 -80 36.5 -124t108.5 -44q71 0 107.5 44.5t36.5 123.5v70q0 157 -144 157z" />
    <glyph glyph-name="seveneighths" unicode="&#x215e;" horiz-adv-x="1148" 
d="M154 524l256 850h-332v60h397v-58l-256 -852h-65zM793 1434l-566 -1434h-61l565 1434h62zM864 920q102 0 155.5 -60.5t53.5 -163.5v-28q0 -150 -110 -193q110 -39 110 -194v-64q0 -105 -53 -166t-156 -61q-102 0 -155.5 61.5t-53.5 165.5v64q0 154 111 194
q-111 44 -111 193v28q0 102 54.5 163t154.5 61zM864 860q-70 0 -106.5 -43.5t-36.5 -122.5v-37q0 -153 143 -153q146 0 146 153v37q0 79 -37.5 122.5t-108.5 43.5zM864 444q-143 0 -143 -157v-70q0 -80 36 -124t107 -44q72 0 109 44t37 124v70q0 157 -146 157z" />
    <glyph glyph-name="minus" unicode="&#x2212;" horiz-adv-x="794" 
d="M72 752h653v-70h-653v70z" />
    <glyph glyph-name="infinity" unicode="&#x221e;" horiz-adv-x="1159" 
d="M803 985h28q118 0 186 -60t68 -175q0 -116 -67.5 -176t-186.5 -60h-28q-175 0 -217 123q-47 -123 -224 -123h-26q-119 0 -187.5 60t-68.5 176q0 114 69 174.5t187 60.5h26q176 0 224 -123q42 123 217 123zM371 918h-35q-91 0 -138.5 -43t-47.5 -125q0 -81 47.5 -123.5
t138.5 -44.5h35q89 0 134.5 43t45.5 125t-45.5 125t-134.5 43zM827 918h-34q-179 0 -179 -168q0 -165 179 -168h34q89 0 139 43t50 125t-50 125t-139 43z" />
    <glyph glyph-name="approxequal" unicode="&#x2248;" horiz-adv-x="813" 
d="M254 981q41 1 87.5 -19.5t81 -45t76.5 -44t76 -18.5q38 1 67 29t63 82l49 -45q-41 -70 -83 -104.5t-96 -35.5q-39 -1 -84 18.5t-79.5 44t-78 44t-79.5 18.5q-43 0 -76.5 -27t-68.5 -81l-52 43q47 71 93.5 105.5t103.5 35.5zM254 651q41 1 87.5 -19.5t81 -45t76.5 -44
t76 -18.5q38 1 67 29t63 82l49 -45q-42 -69 -84 -103.5t-95 -35.5q-49 -2 -106.5 30t-113.5 64.5t-101 32.5q-43 -1 -76.5 -28.5t-68.5 -82.5l-52 43q47 71 93.5 105.5t103.5 35.5z" />
    <glyph glyph-name="commaaccentcomb" unicode="&#xf6c3;" horiz-adv-x="0" 
d="M211 -231l-55 -129h-37l39 120h-27v170h80v-161z" />
    <glyph glyph-name="NULL" horiz-adv-x="0" 
 />
    <glyph glyph-name="CR" horiz-adv-x="317" 
 />
    <glyph glyph-name="zero.alt" horiz-adv-x="780" 
d="M76 350v733q0 166 78.5 264.5t236.5 98.5t237 -98.5t79 -264.5v-733q0 -165 -79 -263.5t-237 -98.5t-236.5 98.5t-78.5 263.5zM170 1090v-744q0 -126 54 -199t167 -73t167 73t54 199v744q0 124 -54 197t-167 73t-167 -73t-54 -197z" />
    <glyph glyph-name="one.alt" horiz-adv-x="575" 
d="M281 0v1274q-82 -109 -224 -121v82q99 7 156 60t88 141h74v-1436h-94z" />
    <glyph glyph-name="two.alt" horiz-adv-x="753" 
d="M381 1446q159 0 234 -99t75 -266q0 -84 -28.5 -162t-74.5 -140.5t-101.5 -123.5t-111 -122.5t-102 -124.5t-76 -143t-30.5 -167v-12h512v-86h-606v70q0 103 29 194t75 159t102 131t112 121.5t102 117.5t75 132t29 152q0 283 -219 283q-112 0 -163.5 -76t-51.5 -201v-98
h-90v92q0 166 76 267.5t233 101.5z" />
    <glyph glyph-name="three.alt" horiz-adv-x="763" 
d="M383 1446q157 0 233 -98.5t76 -264.5v-34q0 -107 -50.5 -186t-141.5 -111q94 -29 143 -105.5t49 -185.5v-111q0 -166 -76 -264t-233 -98q-158 0 -234.5 98t-76.5 264v82h90v-86q0 -125 52 -198.5t165 -73.5q219 0 219 278v111q0 113 -54.5 175.5t-158.5 66.5h-98v86h102
q96 6 152.5 71t56.5 168v51q0 279 -219 279q-113 0 -165 -72.5t-52 -197.5v-58h-90v51q0 166 76.5 264.5t234.5 98.5z" />
    <glyph glyph-name="four.alt" horiz-adv-x="825" 
d="M766 317h-121v-317h-94v317h-488v89l476 1030h106v-1033h121v-86zM551 1257l-401 -854h401v854z" />
    <glyph glyph-name="five.alt" horiz-adv-x="763" 
d="M209 1348l-27 -514q72 112 232 112q142 0 210 -95.5t68 -254.5v-246q0 -165 -76 -263.5t-233 -98.5t-233 98.5t-76 263.5v78h90v-82q0 -124 52 -197t165 -73q111 0 164 73.5t53 196.5v242q0 123 -53 196.5t-164 73.5q-78 0 -131.5 -42.5t-73.5 -121.5v-24h-90l39 766h537
v-88h-453z" />
    <glyph glyph-name="six.alt" horiz-adv-x="782" 
d="M393 1446q158 0 233.5 -95.5t75.5 -260.5v-17h-90v23q0 123 -52 193.5t-165 70.5q-116 0 -170.5 -75t-54.5 -208v-332q78 132 256 132q144 0 213.5 -95.5t69.5 -255.5v-176q0 -165 -79 -263.5t-237 -98.5q-159 0 -238 98.5t-79 263.5v729q0 170 78 268.5t239 98.5z
M393 788q-114 0 -168.5 -72.5t-54.5 -195.5v-174q0 -125 54 -197.5t169 -72.5q113 0 167 72.5t54 197.5v174q0 123 -54 195.5t-167 72.5z" />
    <glyph glyph-name="seven.alt" horiz-adv-x="733" 
d="M182 0l396 1348h-519v88h615v-86l-395 -1350h-97z" />
    <glyph glyph-name="eight.alt" horiz-adv-x="794" 
d="M397 1446q160 0 243 -92.5t83 -255.5v-45q0 -116 -46 -195t-142 -106q188 -55 188 -308v-102q0 -164 -82.5 -259t-243.5 -95q-160 0 -242.5 95.5t-82.5 258.5v102q0 249 192 308q-192 55 -192 301v45q0 163 83.5 255.5t241.5 92.5zM397 1360q-113 0 -172 -68.5
t-59 -195.5v-60q0 -245 231 -245q114 0 173 62t59 183v60q0 127 -59 195.5t-173 68.5zM397 705q-231 0 -231 -252v-109q0 -128 58.5 -199t172.5 -71q115 0 173.5 71.5t58.5 198.5v109q0 252 -232 252z" />
    <glyph glyph-name="nine.alt" horiz-adv-x="782" 
d="M389 1448q159 0 237.5 -99t78.5 -266v-729q0 -168 -78 -267t-238 -99q-158 0 -235.5 96.5t-77.5 261.5v19h90v-23q0 -124 54 -196t167 -72q223 0 223 284v353q-33 -79 -95.5 -115.5t-158.5 -36.5q-144 0 -213 94.5t-69 255.5v174q0 166 78.5 265.5t236.5 99.5zM389 1360
q-113 0 -167 -73t-54 -197v-175q0 -124 54 -197t167 -73t167 73t54 197v175q0 124 -54 197t-167 73z" />
    <glyph glyph-name="Edotaaccent" horiz-adv-x="442" 
 />
    <glyph glyph-name="edotaaccent" horiz-adv-x="442" 
 />
    <glyph glyph-name="lcute" horiz-adv-x="442" 
 />
    </font>
</defs>
</svg>
