<?xml version="1.0" standalone="no"?>
<!DOCTYPE svg PUBLIC "-//W3C//DTD SVG 1.1//EN" "http://www.w3.org/Graphics/SVG/1.1/DTD/svg11.dtd" >
<svg xmlns="http://www.w3.org/2000/svg" xmlns:xlink="http://www.w3.org/1999/xlink" version="1.1">
<metadata>
Created by FontForge 20170731 at Wed Apr  1 20:40:57 1953
 By Aleksey,,,
Copyright (c) 2019 by deFharo. All rights reserved.
</metadata>
<defs>
<font id="JaneRoe-Light" horiz-adv-x="222" >
  <font-face 
    font-family="Jane Roe Light"
    font-weight="300"
    font-stretch="normal"
    units-per-em="1000"
    panose-1="0 0 0 0 0 0 0 0 0 0"
    ascent="800"
    descent="-200"
    x-height="537"
    cap-height="687"
    bbox="-119 -184 885 889"
    underline-thickness="50"
    underline-position="-175"
    unicode-range="U+000D-F8FF"
  />
<missing-glyph horiz-adv-x="500" 
d="M115 228h78v195h114v-79h80v-116h-194v-80zM264 367v32h-27v-32h27z" />
    <glyph glyph-name="uniF8FF" unicode="a&#x23;" horiz-adv-x="900" 
d="M65 336q0 96 85 121q-13 27 -13 62q0 57 34 92t91 35q35 0 63 -14q12 38 43.5 59.5t75.5 21.5q92 0 119 -79q26 12 57 12q58 0 93 -34.5t35 -91.5q0 -35 -14 -63q86 -25 86 -123q0 -76 -58 -108q9 -24 9 -50q0 -57 -34.5 -92t-91.5 -35q-69 0 -105 50q99 35 134 123
t12 182q-40 -31 -77 -44t-70 -13q-49 0 -88.5 24t-68 58t-45 72.5t-18.5 66.5q-64 -41 -97 -109.5t-32 -139t39 -132t116 -88.5q-36 -50 -105 -50q-56 0 -90 34.5t-34 92.5q0 28 8 50q-59 31 -59 110zM442 33q92 0 172.5 -15.5t140.5 -44t95 -68t35 -88.5h-885q0 49 35 88.5
t95 68t140.5 44t171.5 15.5zM267 380q0 33 59 33q61 0 61 -35q0 -20 -22 -26t-39 -6q-59 0 -59 34z" />
    <glyph glyph-name=".notdef" horiz-adv-x="500" 
d="M115 228h78v195h114v-79h80v-116h-194v-80zM264 367v32h-27v-32h27z" />
    <glyph glyph-name="uni0000" horiz-adv-x="0" 
 />
    <glyph glyph-name="uni0000" horiz-adv-x="0" 
 />
    <glyph glyph-name="uni000D" unicode="&#xd;" 
 />
    <glyph glyph-name="space" unicode=" " 
 />
    <glyph glyph-name="exclam" unicode="!" horiz-adv-x="333" 
d="M182 151h-33l-17 536h67zM166 -10q-20 0 -34 13.5t-14 34.5t14 35t34 14t34 -14t14 -35t-14 -34.5t-34 -13.5z" />
    <glyph glyph-name="quotedbl" unicode="&#x22;" horiz-adv-x="309" 
d="M184 537v193h52v-193h-52zM73 537v193h52v-193h-52z" />
    <glyph glyph-name="numbersign" unicode="#" horiz-adv-x="472" 
d="M21 281h107l37 123h-109l17 48h105l72 236h52l-72 -236h77l71 236h52l-71 -236h105l-16 -48h-102l-37 -123h103l-16 -48h-100l-68 -233h-55l70 233h-77l-70 -233h-52l70 233h-110zM179 281h77l38 123h-76z" />
    <glyph glyph-name="dollar" unicode="$" horiz-adv-x="462" 
d="M76 531q0 102 71 145v100h54v-134q-67 -19 -67 -107q0 -69 40.5 -105.5t91.5 -68.5q52 -32 96 -78t44 -126q0 -109 -88 -150v-94h-54v130q38 10 61 40.5t23 77.5q0 62 -37 96t-85 63q-85 52 -117.5 100t-32.5 111zM111 218q0 -75 26 -121t74 -55v-129h-54v91
q-102 46 -102 214h56zM308 776v-96q97 -46 97 -213h-55q0 75 -25 121t-71 56v132h54z" />
    <glyph glyph-name="percent" unicode="%" horiz-adv-x="662" 
d="M471 687l-265 -687h-48l265 687h48zM25 486q0 38 2.5 76t13.5 68t33.5 49t61.5 19q41 0 63.5 -20t33 -51t12.5 -68.5t2 -72.5q0 -39 -2.5 -77.5t-13.5 -69t-33.5 -50t-61.5 -19.5q-41 0 -63.5 20.5t-33 52t-12.5 69.5t-2 74zM70 484q0 -111 18 -144t48 -33t48.5 33
t18.5 144t-18.5 143.5t-48.5 32.5t-48 -32.5t-18 -143.5zM380 206q0 38 2.5 76t13.5 68t33.5 49t61.5 19q41 0 63.5 -20t33 -51t12.5 -68.5t2 -72.5q0 -39 -2.5 -77.5t-13.5 -69t-33.5 -50t-61.5 -19.5q-41 0 -63.5 20.5t-33 52t-12.5 69.5t-2 74zM425 204q0 -111 18 -144
t48 -33t48.5 33t18.5 144t-18.5 143.5t-48.5 32.5t-48 -32.5t-18 -143.5z" />
    <glyph glyph-name="ampersand" unicode="&#x26;" horiz-adv-x="514" 
d="M63 135q0 53 31 109t100 134q-42 72 -59.5 116.5t-17.5 79.5q0 54 32.5 87.5t88.5 33.5q57 0 90 -34t33 -90q0 -83 -103 -198l103 -184l47 91l45 -26l-63 -115l51 -92h26v-47h-60l-47 85q-64 -95 -155 -95q-64 0 -103 41t-39 104zM121 135q0 -45 22.5 -70t60.5 -25
q74 0 129 97l-112 197q-54 -63 -77 -110t-23 -89zM174 573q0 -26 13 -62.5t45 -93.5q41 45 56.5 78t15.5 68q0 83 -64 83q-31 0 -48.5 -20.5t-17.5 -52.5z" />
    <glyph glyph-name="quotesingle" unicode="'" horiz-adv-x="198" 
d="M73 536v194h52v-194h-52z" />
    <glyph glyph-name="parenleft" unicode="(" 
d="M31 563q0 90 34.5 127t89.5 47l18 -32q-44 -11 -65.5 -41.5t-21.5 -99.5v-570q0 -69 21.5 -99.5t65.5 -41.5l-18 -32q-55 10 -89.5 46.5t-34.5 126.5v569z" />
    <glyph glyph-name="parenright" unicode=")" 
d="M190 -6q0 -90 -34.5 -126.5t-89.5 -46.5l-18 32q44 11 65.5 41.5t21.5 99.5v570q0 69 -21.5 99.5t-65.5 41.5l18 32q55 -10 89.5 -47t34.5 -127v-569z" />
    <glyph glyph-name="asterisk" unicode="*" horiz-adv-x="392" 
d="M196 551l-65 -90l-36 26l65 90l-105 34l13 42l106 -34v111h44v-111l106 34l13 -42l-105 -34l65 -90l-36 -26z" />
    <glyph glyph-name="plus" unicode="+" horiz-adv-x="388" 
d="M34 369h134v158h52v-158h134v-52h-134v-158h-52v158h-134v52z" />
    <glyph glyph-name="comma" unicode="," 
d="M63 -72q19 8 33 24t14 38q-17 1 -31.5 12.5t-14.5 34.5q0 21 14 34.5t34 13.5q19 0 33.5 -14t14.5 -50q0 -37 -19 -74t-67 -50z" />
    <glyph glyph-name="hyphen" unicode="-" horiz-adv-x="266" 
d="M228 295v-54h-190v54h190z" />
    <glyph glyph-name="period" unicode="." 
d="M107 -10q-20 0 -34 13.5t-14 34.5t14 35t34 14t34 -14t14 -35t-14 -34.5t-34 -13.5z" />
    <glyph glyph-name="slash" unicode="/" horiz-adv-x="252" 
d="M9 0l180 730h54l-180 -730h-54z" />
    <glyph glyph-name="zero" unicode="0" horiz-adv-x="500" 
d="M2 180h144v357h208v-145h146v-212h-354v-146zM274 435v57h-49v-57h49z" />
    <glyph glyph-name="one" unicode="1" horiz-adv-x="900" 
d="M65 336q0 96 85 121q-13 27 -13 62q0 57 34 92t91 35q35 0 63 -14q12 38 43.5 59.5t75.5 21.5q92 0 119 -79q26 12 57 12q58 0 93 -34.5t35 -91.5q0 -35 -14 -63q86 -25 86 -123q0 -76 -58 -108q9 -24 9 -50q0 -57 -34.5 -92t-91.5 -35q-69 0 -105 50q99 35 134 123
t12 182q-40 -31 -77 -44t-70 -13q-49 0 -88.5 24t-68 58t-45 72.5t-18.5 66.5q-64 -41 -97 -109.5t-32 -139t39 -132t116 -88.5q-36 -50 -105 -50q-56 0 -90 34.5t-34 92.5q0 28 8 50q-59 31 -59 110zM442 33q92 0 172.5 -15.5t140.5 -44t95 -68t35 -88.5h-885q0 49 35 88.5
t95 68t140.5 44t171.5 15.5zM267 380q0 33 59 33q61 0 61 -35q0 -20 -22 -26t-39 -6q-59 0 -59 34z" />
    <glyph glyph-name="two" unicode="2" horiz-adv-x="500" 
d="M2 180h144v357h208v-145h146v-212h-354v-146zM274 435v57h-49v-57h49z" />
    <glyph glyph-name="three" unicode="3" horiz-adv-x="900" 
d="M65 336q0 96 85 121q-13 27 -13 62q0 57 34 92t91 35q35 0 63 -14q12 38 43.5 59.5t75.5 21.5q92 0 119 -79q26 12 57 12q58 0 93 -34.5t35 -91.5q0 -35 -14 -63q86 -25 86 -123q0 -76 -58 -108q9 -24 9 -50q0 -57 -34.5 -92t-91.5 -35q-69 0 -105 50q99 35 134 123
t12 182q-40 -31 -77 -44t-70 -13q-49 0 -88.5 24t-68 58t-45 72.5t-18.5 66.5q-64 -41 -97 -109.5t-32 -139t39 -132t116 -88.5q-36 -50 -105 -50q-56 0 -90 34.5t-34 92.5q0 28 8 50q-59 31 -59 110zM442 33q92 0 172.5 -15.5t140.5 -44t95 -68t35 -88.5h-885q0 49 35 88.5
t95 68t140.5 44t171.5 15.5zM267 380q0 33 59 33q61 0 61 -35q0 -20 -22 -26t-39 -6q-59 0 -59 34z" />
    <glyph glyph-name="four" unicode="4" horiz-adv-x="500" 
d="M2 180h144v357h208v-145h146v-212h-354v-146zM274 435v57h-49v-57h49z" />
    <glyph glyph-name="five" unicode="5" horiz-adv-x="900" 
d="M65 336q0 96 85 121q-13 27 -13 62q0 57 34 92t91 35q35 0 63 -14q12 38 43.5 59.5t75.5 21.5q92 0 119 -79q26 12 57 12q58 0 93 -34.5t35 -91.5q0 -35 -14 -63q86 -25 86 -123q0 -76 -58 -108q9 -24 9 -50q0 -57 -34.5 -92t-91.5 -35q-69 0 -105 50q99 35 134 123
t12 182q-40 -31 -77 -44t-70 -13q-49 0 -88.5 24t-68 58t-45 72.5t-18.5 66.5q-64 -41 -97 -109.5t-32 -139t39 -132t116 -88.5q-36 -50 -105 -50q-56 0 -90 34.5t-34 92.5q0 28 8 50q-59 31 -59 110zM442 33q92 0 172.5 -15.5t140.5 -44t95 -68t35 -88.5h-885q0 49 35 88.5
t95 68t140.5 44t171.5 15.5zM267 380q0 33 59 33q61 0 61 -35q0 -20 -22 -26t-39 -6q-59 0 -59 34z" />
    <glyph glyph-name="six" unicode="6" horiz-adv-x="500" 
d="M2 180h144v357h208v-145h146v-212h-354v-146zM274 435v57h-49v-57h49z" />
    <glyph glyph-name="seven" unicode="7" horiz-adv-x="900" 
d="M65 336q0 96 85 121q-13 27 -13 62q0 57 34 92t91 35q35 0 63 -14q12 38 43.5 59.5t75.5 21.5q92 0 119 -79q26 12 57 12q58 0 93 -34.5t35 -91.5q0 -35 -14 -63q86 -25 86 -123q0 -76 -58 -108q9 -24 9 -50q0 -57 -34.5 -92t-91.5 -35q-69 0 -105 50q99 35 134 123
t12 182q-40 -31 -77 -44t-70 -13q-49 0 -88.5 24t-68 58t-45 72.5t-18.5 66.5q-64 -41 -97 -109.5t-32 -139t39 -132t116 -88.5q-36 -50 -105 -50q-56 0 -90 34.5t-34 92.5q0 28 8 50q-59 31 -59 110zM442 33q92 0 172.5 -15.5t140.5 -44t95 -68t35 -88.5h-885q0 49 35 88.5
t95 68t140.5 44t171.5 15.5zM267 380q0 33 59 33q61 0 61 -35q0 -20 -22 -26t-39 -6q-59 0 -59 34z" />
    <glyph glyph-name="eight" unicode="8" horiz-adv-x="500" 
d="M2 180h144v357h208v-145h146v-212h-354v-146zM274 435v57h-49v-57h49z" />
    <glyph glyph-name="nine" unicode="9" horiz-adv-x="900" 
d="M65 336q0 96 85 121q-13 27 -13 62q0 57 34 92t91 35q35 0 63 -14q12 38 43.5 59.5t75.5 21.5q92 0 119 -79q26 12 57 12q58 0 93 -34.5t35 -91.5q0 -35 -14 -63q86 -25 86 -123q0 -76 -58 -108q9 -24 9 -50q0 -57 -34.5 -92t-91.5 -35q-69 0 -105 50q99 35 134 123
t12 182q-40 -31 -77 -44t-70 -13q-49 0 -88.5 24t-68 58t-45 72.5t-18.5 66.5q-64 -41 -97 -109.5t-32 -139t39 -132t116 -88.5q-36 -50 -105 -50q-56 0 -90 34.5t-34 92.5q0 28 8 50q-59 31 -59 110zM442 33q92 0 172.5 -15.5t140.5 -44t95 -68t35 -88.5h-885q0 49 35 88.5
t95 68t140.5 44t171.5 15.5zM267 380q0 33 59 33q61 0 61 -35q0 -20 -22 -26t-39 -6q-59 0 -59 34z" />
    <glyph glyph-name="colon" unicode=":" 
d="M111 -10q-20 0 -34 13.5t-14 34.5t14 35t34 14t34 -14t14 -35t-14 -34.5t-34 -13.5zM111 428q-20 0 -34 13.5t-14 34.5t14 35t34 14t34 -14t14 -35t-14 -34.5t-34 -13.5z" />
    <glyph glyph-name="semicolon" unicode=";" 
d="M112 428q-21 0 -35 14t-14 34t14 34.5t34 14.5t34 -14t14 -35q0 -20 -13.5 -34t-33.5 -14zM62 -70q47 18 47 62q-20 1 -33 14.5t-13 33.5t13.5 33.5t35.5 13.5q47 0 47 -68q0 -89 -86 -120z" />
    <glyph glyph-name="less" unicode="&#x3c;" horiz-adv-x="266" 
d="M19 255v25l193 196l36 -37l-168 -171l168 -172l-36 -37z" />
    <glyph glyph-name="equal" unicode="=" horiz-adv-x="436" 
d="M34 458h368v-52h-368v52zM34 280h368v-52h-368v52z" />
    <glyph glyph-name="greater" unicode="&#x3e;" horiz-adv-x="266" 
d="M54 59l-36 37l168 172l-168 171l36 37l193 -196v-25z" />
    <glyph glyph-name="question" unicode="?" horiz-adv-x="373" 
d="M157 263q-2 39 14 57.5t35.5 40t36.5 58t17 112.5q0 16 -2 36.5t-10 38.5t-23.5 30.5t-43.5 12.5q-51 0 -69 -45t-18 -137h-55q0 125 33.5 178.5t107.5 53.5q81 0 109.5 -51.5t28.5 -127.5q0 -73 -18.5 -114t-40.5 -66t-40.5 -40.5t-19.5 -37.5l-4 -111h-33zM179 -10
q-20 0 -34 13.5t-14 34.5t14 35t34 14t34 -14t14 -35t-14 -34.5t-34 -13.5z" />
    <glyph glyph-name="at" unicode="@" horiz-adv-x="835" 
d="M607 537l-75 -432q-2 -12 -2 -19q0 -51 57 -51q34 0 60 26t44 69t27.5 97t9.5 111q0 140 -61.5 226t-203.5 86q-85 0 -151 -32.5t-111 -88.5t-68.5 -131.5t-23.5 -161.5q0 -64 14.5 -124.5t46.5 -107.5t83.5 -75t126.5 -28v-47q-91 3 -153.5 37t-100.5 88t-54.5 123
t-16.5 144q0 92 28 174t80.5 143.5t127.5 97.5t170 36q165 0 242 -103t77 -264q0 -60 -11 -120.5t-34.5 -109t-61 -79.5t-90.5 -31q-80 0 -96 75q-40 -45 -79.5 -60t-69.5 -15q-58 0 -84.5 43t-26.5 121q0 68 13 137.5t38.5 126.5t65 93t91.5 36q32 0 64 -16.5t44 -55.5
l10 62h54zM353 37q52 0 84.5 38t50.5 91t24.5 110t6.5 96q0 58 -15 93t-59 35q-45 0 -76.5 -36t-51.5 -88.5t-29 -112.5t-9 -108q0 -59 15.5 -88.5t58.5 -29.5z" />
    <glyph glyph-name="A" unicode="A" horiz-adv-x="461" 
d="M201 687h58l188 -687h-58l-54 200h-211l-55 -200h-56zM138 250h183l-35 139q-16 64 -27.5 120.5t-25.5 127.5h-5q-14 -71 -25.5 -127.5t-28.5 -120.5z" />
    <glyph glyph-name="B" unicode="B" horiz-adv-x="458" 
d="M68 687h142q94 0 143.5 -34.5t49.5 -133.5q0 -43 -13.5 -86.5t-55.5 -79.5q39 -24 59 -69t20 -102q0 -182 -193 -182h-152v687zM220 50q26 0 50.5 4t43 18.5t30 42t11.5 73.5q0 90 -39.5 117.5t-95.5 27.5h-94v-283h94zM216 383q26 0 49.5 2.5t41 14.5t28 37.5t10.5 71.5
q0 47 -11 73t-29.5 38t-43 14.5t-51.5 2.5h-84v-254h90z" />
    <glyph glyph-name="C" unicode="C" horiz-adv-x="488" 
d="M446 218q-5 -71 -20.5 -115.5t-39.5 -69.5t-56.5 -34t-72.5 -9q-49 0 -86 13.5t-62.5 52t-38.5 107.5t-13 180t13 180t38 107.5t62 52t85 13.5q41 0 73.5 -9t57 -34.5t40 -70t20.5 -115.5h-56q-5 65 -18 101t-31 53t-39.5 21t-43.5 4q-29 0 -55 -6.5t-45.5 -36t-31 -90
t-11.5 -169.5t11.5 -170t30.5 -91t43.5 -36.5t51.5 -6.5q26 0 49 4.5t41 22.5t30.5 53.5t17.5 97.5h56z" />
    <glyph glyph-name="D" unicode="D" horiz-adv-x="501" 
d="M75 687h162q55 0 93.5 -12.5t62.5 -49.5t34.5 -104.5t10.5 -177.5t-10.5 -177.5t-34.5 -104t-62.5 -49t-93.5 -12.5h-162v687zM237 50q35 0 61.5 5t44.5 33t27.5 87.5t9.5 167.5q0 109 -9.5 168.5t-27.5 87.5t-44.5 33t-61.5 5h-104v-587h104z" />
    <glyph glyph-name="E" unicode="E" horiz-adv-x="413" 
d="M75 687h297v-50h-239v-252h223v-48h-223v-287h245v-50h-303v687z" />
    <glyph glyph-name="F" unicode="F" horiz-adv-x="373" 
d="M68 687h289v-50h-231v-252h215v-48h-215v-337h-58v687z" />
    <glyph glyph-name="G" unicode="G" horiz-adv-x="514" 
d="M239 343h204v-27q0 -101 -13 -164.5t-37.5 -99.5t-60 -49t-80.5 -13q-46 0 -81.5 14t-60.5 52.5t-38 107.5t-13 179q0 111 13 180t37.5 107.5t60.5 52.5t81 14q77 0 125.5 -45t61.5 -185h-58q-6 64 -18.5 100t-30 54t-38 22t-42.5 4q-25 0 -49.5 -6.5t-43 -36.5t-30 -91
t-11.5 -170q0 -108 11.5 -169t30.5 -91t43.5 -36.5t51.5 -6.5q25 0 47.5 6t40.5 31t29.5 76t14.5 141h-147v49z" />
    <glyph glyph-name="H" unicode="H" horiz-adv-x="503" 
d="M72 687h58v-301h243v301h58v-687h-58v336h-243v-336h-58v687z" />
    <glyph glyph-name="I" unicode="I" horiz-adv-x="216" 
d="M79 687h58v-687h-58v687z" />
    <glyph glyph-name="J" unicode="J" horiz-adv-x="347" 
d="M273 687v-363q0 -105 -9.5 -169.5t-31.5 -99.5t-58 -46.5t-89 -11.5q-16 0 -34 0.5t-29 2.5v50q11 -2 28.5 -2.5t31.5 -0.5q35 0 60 4.5t41 31.5t24 84.5t8 162.5v357h58z" />
    <glyph glyph-name="K" unicode="K" horiz-adv-x="449" 
d="M136 687v-309l221 309h67l-238 -334l248 -353h-67l-231 329v-329h-58v687h58z" />
    <glyph glyph-name="L" unicode="L" horiz-adv-x="371" 
d="M67 687h58v-637h227v-50h-285v687z" />
    <glyph glyph-name="M" unicode="M" horiz-adv-x="622" 
d="M477 687h74v-687h-56v479q0 30 1 66.5t3 53.5h-2q-2 -17 -7.5 -45.5t-12.5 -53.5l-139 -500h-54l-139 500q-7 26 -12.5 54t-7.5 45h-2q2 -17 3 -53.5t1 -66.5v-479h-56v687h74l146 -533q10 -35 13.5 -55.5t5.5 -48.5h2q2 28 5.5 48.5t13.5 55.5z" />
    <glyph glyph-name="N" unicode="N" horiz-adv-x="522" 
d="M133 0h-56v687h47l218 -450l55 -126h1q-9 32 -9 126v450h56v-687h-48l-217 450l-55 126h-2q3 -16 6.5 -48t3.5 -78v-450z" />
    <glyph glyph-name="O" unicode="O" horiz-adv-x="514" 
d="M60 343q0 111 13 180t38 107.5t61.5 52.5t84.5 14q49 0 86 -14t61.5 -53t37 -108t12.5 -179q0 -109 -12.5 -178t-37 -108t-61.5 -53t-86 -14q-48 0 -84.5 14t-61.5 52.5t-38 107.5t-13 179zM118 343q0 -108 11.5 -169t30.5 -91t44.5 -36.5t52.5 -6.5q29 0 54.5 7t44 36.5
t29.5 90.5t11 169t-11 169t-29.5 91t-44 37t-54.5 7q-27 0 -52.5 -6.5t-44.5 -36.5t-30.5 -91t-11.5 -170z" />
    <glyph glyph-name="P" unicode="P" horiz-adv-x="410" 
d="M64 687h130q95 0 144 -41.5t49 -144.5q0 -99 -48 -143.5t-145 -44.5h-72v-313h-58v687zM194 363q27 0 51 3.5t43 17t30 41t11 75.5q0 47 -11 74t-29.5 41t-43 18t-51.5 4h-72v-274h72z" />
    <glyph glyph-name="Q" unicode="Q" horiz-adv-x="522" 
d="M262 -10q-49 0 -87 14t-63.5 52.5t-38.5 107.5t-13 179q0 111 13 180t38.5 107.5t63.5 52.5t87 14q50 0 87.5 -14t62.5 -53t37.5 -108t12.5 -179q0 -112 -12.5 -181t-38.5 -107l63 -59l-43 -43l-57 64q-40 -27 -112 -27zM118 343q0 -108 11.5 -169t31 -91t45.5 -36.5
t55 -6.5q22 0 41.5 3t36.5 14l-92 104l22 25l100 -92q17 32 26 90.5t9 158.5q0 108 -11 169t-30 91t-45.5 37t-56.5 7q-29 0 -55 -6.5t-45.5 -36.5t-31 -91t-11.5 -170z" />
    <glyph glyph-name="R" unicode="R" horiz-adv-x="451" 
d="M68 687h128q89 0 141 -38.5t52 -144.5q0 -67 -24.5 -115.5t-84.5 -65.5l119 -323h-61l-115 314h-97v-314h-58v687zM196 363q27 0 51 3.5t43 17t30 41t11 75.5q0 47 -11 74t-29.5 41t-43 18t-51.5 4h-70v-274h70z" />
    <glyph glyph-name="S" unicode="S" horiz-adv-x="462" 
d="M114 218q10 -101 36.5 -139.5t86.5 -38.5q114 0 111 142q-1 48 -33.5 82t-107.5 83q-84 54 -111 98.5t-27 95.5q0 75 41.5 115.5t118.5 40.5q84 0 125 -53.5t52 -176.5h-57q-9 100 -36 140t-85 40q-101 0 -101 -104q0 -41 22.5 -74.5t96.5 -79.5q27 -17 55.5 -36.5
t52 -43.5t38 -55t14.5 -70q0 -194 -170 -194q-85 0 -126 52t-54 176h58z" />
    <glyph glyph-name="T" unicode="T" horiz-adv-x="388" 
d="M374 687v-50h-151v-637h-58v637h-151v50h360z" />
    <glyph glyph-name="U" unicode="U" horiz-adv-x="496" 
d="M125 687v-356q0 -100 8.5 -158t24.5 -87.5t39 -37.5t53 -8q29 0 51.5 7.5t38 37t23.5 87t8 156.5v359h58v-359q0 -61 -3 -121.5t-20 -108.5t-54.5 -78t-105.5 -30q-66 0 -102.5 28t-53.5 75.5t-20 108.5t-3 127v358h58z" />
    <glyph glyph-name="V" unicode="V" horiz-adv-x="428" 
d="M361 687h57l-176 -687h-57l-176 687h58l116 -462q17 -69 22 -90t8 -37h2q3 17 8.5 41t22.5 93z" />
    <glyph glyph-name="W" unicode="W" horiz-adv-x="638" 
d="M205 0h-59l-136 687h57l80 -408q8 -43 14 -88.5t16 -141.5h2q4 43 7 72t5.5 51t5.5 40.5t7 41.5l80 438h69l79 -438q4 -22 7 -40.5t6 -40.5t6.5 -51t8.5 -71h2q12 95 17 139.5t13 88.5l80 408h56l-136 -687h-64l-75 413q-6 35 -14 95.5t-18 132.5h-3q-11 -72 -21 -133
t-16 -95z" />
    <glyph glyph-name="X" unicode="X" horiz-adv-x="423" 
d="M70 0h-61l171 354l-161 333h62l85 -177q10 -20 19.5 -41.5t23.5 -54.5h2q14 33 24 54.5t20 41.5l86 177h61l-161 -333l171 -354h-61l-96 196q-17 36 -24.5 52.5t-20.5 45.5h-2q-12 -29 -19 -45t-23 -49z" />
    <glyph glyph-name="Y" unicode="Y" horiz-adv-x="417" 
d="M346 687h58l-166 -400v-287h-58v287l-167 400h61l74 -184q8 -18 18.5 -45.5t41.5 -108.5h2q15 40 24.5 64.5t15.5 40t10.5 26t9.5 23.5z" />
    <glyph glyph-name="Z" unicode="Z" horiz-adv-x="390" 
d="M363 687v-38l-274 -599h277v-50h-342v39l274 598h-264v50h329z" />
    <glyph glyph-name="bracketleft" unicode="[" 
d="M50 730h139v-48h-82v-806h82v-48h-139v902z" />
    <glyph glyph-name="backslash" unicode="\" 
d="M174 0l-180 730h54l180 -730h-54z" />
    <glyph glyph-name="bracketright" unicode="]" 
d="M172 -172h-139v48h82v806h-82v48h139v-902z" />
    <glyph glyph-name="asciicircum" unicode="^" horiz-adv-x="444" 
d="M243 708l135 -410h-53l-104 322l-102 -322h-53l135 410h42z" />
    <glyph glyph-name="underscore" unicode="_" horiz-adv-x="416" 
d="M0 -122v47h416v-47h-416z" />
    <glyph glyph-name="grave" unicode="`" horiz-adv-x="278" 
d="M185 602l-176 98l30 50l166 -118z" />
    <glyph glyph-name="a" unicode="a" horiz-adv-x="406" 
d="M37 152q0 97 43.5 133.5t108.5 36.5h96q1 101 -21 139.5t-69 38.5q-38 0 -60 -25t-30 -88h-52q13 85 48 122.5t95 37.5q73 0 108.5 -55t35.5 -203v-214l9 -75h-53l-8 50q-52 -60 -127 -60q-51 0 -87.5 36t-36.5 126zM190 275q-39 0 -69 -22.5t-30 -103.5q0 -66 20.5 -89
t54.5 -23q47 0 84 33t37 96v109h-97z" />
    <glyph glyph-name="b" unicode="b" horiz-adv-x="427" 
d="M62 730h53v-243q40 60 113 60q80 0 115.5 -65.5t35.5 -213.5q0 -147 -35.5 -212.5t-115.5 -65.5q-75 0 -115 60l-10 -50h-41v730zM113 268q0 -129 24 -180t85 -51q60 0 82.5 49.5t22.5 181.5q0 133 -22.5 182.5t-82.5 49.5q-61 0 -85 -51t-24 -181z" />
    <glyph glyph-name="c" unicode="c" horiz-adv-x="384" 
d="M343 151q-8 -85 -42.5 -123t-104.5 -38q-84 0 -116 59.5t-32 214.5q0 158 33 220.5t118 62.5q69 0 102.5 -38t41.5 -123h-50q-7 64 -27 89t-66 25q-60 0 -80 -47.5t-20 -184.5q0 -136 20.5 -183.5t79.5 -47.5q47 0 67.5 25.5t25.5 88.5h50z" />
    <glyph glyph-name="d" unicode="d" horiz-adv-x="428" 
d="M365 730v-656l9 -74h-50l-10 47q-42 -57 -114 -57q-81 0 -116.5 65.5t-35.5 212.5q0 148 35.5 213.5t115.5 65.5q73 0 113 -60v243h53zM314 268q0 130 -24 181t-85 51q-60 0 -82.5 -49.5t-22.5 -180.5q0 -134 22.5 -183.5t82.5 -49.5q61 0 85 51t24 180z" />
    <glyph glyph-name="e" unicode="e" horiz-adv-x="412" 
d="M207 37q44 0 66.5 24.5t30.5 89.5h53q-13 -86 -49 -123.5t-102 -37.5q-85 0 -121.5 63.5t-36.5 214.5t36.5 215t122.5 64q85 0 121 -64t36 -214v-15h-262q1 -125 23.5 -171t81.5 -46zM206 500q-56 0 -79 -42.5t-25 -157.5h208q-2 115 -25 157.5t-79 42.5z" />
    <glyph glyph-name="f" unicode="f" horiz-adv-x="250" 
d="M90 0v490h-71v47h71v19q0 60 9.5 94.5t28 52t46 22.5t62.5 5v-47q-28 0 -46 -3t-28.5 -15t-14.5 -37.5t-4 -70.5v-20h92v-47h-92v-490h-53z" />
    <glyph glyph-name="g" unicode="g" horiz-adv-x="423" 
d="M201 -183q-115 0 -137 99h53q16 -52 78 -52q59 0 86 41.5t28 143.5q-40 -59 -114 -59q-78 0 -112.5 65t-34.5 214q0 147 34 212.5t110 65.5q41 0 73 -16.5t46 -43.5l8 50h49l-8 -84v-358q0 -154 -35.5 -216t-123.5 -62zM200 500q-58 0 -79 -48.5t-21 -180.5
q0 -135 21.5 -184.5t78.5 -49.5q60 0 84 51t24 181t-24 180.5t-84 50.5z" />
    <glyph glyph-name="h" unicode="h" horiz-adv-x="416" 
d="M115 730v-243q47 60 120 60q70 0 98 -51.5t28 -179.5v-316h-54v304q0 120 -15 158t-62 38q-63 0 -89 -53.5t-26 -178.5v-268h-53v730h53z" />
    <glyph glyph-name="i" unicode="i" horiz-adv-x="184" 
d="M65 0v537h54v-537h-54zM52 657q0 17 11.5 28.5t28.5 11.5q39 0 39 -40t-39 -40q-17 0 -28.5 11t-11.5 29z" />
    <glyph glyph-name="j" unicode="j" horiz-adv-x="216" 
d="M139 537v-448q0 -91 -7 -143.5t-23.5 -79t-42 -33.5t-63.5 -7v47q22 0 37.5 4t25.5 24.5t15 64t5 122.5v449h53zM72 657q0 17 11.5 28.5t28.5 11.5q39 0 39 -40t-39 -40q-17 0 -28.5 11t-11.5 29z" />
    <glyph glyph-name="k" unicode="k" horiz-adv-x="370" 
d="M62 730h53v-437h2l186 244h60l-147 -192l147 -345h-55l-127 304l-66 -87v-217h-53v730z" />
    <glyph glyph-name="l" unicode="l" horiz-adv-x="215" 
d="M134 730v-730h-53v730h53z" />
    <glyph glyph-name="m" unicode="m" horiz-adv-x="629" 
d="M60 537h40l12 -50q48 60 120 60q66 0 93 -65q26 36 56.5 50.5t78.5 14.5q66 0 90 -48.5t24 -182.5v-316h-54v304q0 62 -2.5 100.5t-10 59.5t-21 28.5t-34.5 7.5q-57 0 -82.5 -33.5t-25.5 -118.5v-348h-54v304q0 120 -13 158t-57 38q-107 0 -107 -184v-316h-53v537z" />
    <glyph glyph-name="n" unicode="n" horiz-adv-x="415" 
d="M60 537h40l12 -50q50 60 124 60q70 0 97 -48.5t27 -176.5v-322h-54v304q0 121 -14 158.5t-63 37.5q-116 0 -116 -156v-344h-53v537z" />
    <glyph glyph-name="o" unicode="o" horiz-adv-x="428" 
d="M48 268q0 151 38 215t128 64t128 -64t38 -215t-38 -214.5t-128 -63.5t-128 63.5t-38 214.5zM102 269q0 -134 24 -183t88 -49t88 49t24 183q0 133 -24 182t-88 49t-88 -49t-24 -182z" />
    <glyph glyph-name="p" unicode="p" horiz-adv-x="429" 
d="M64 453l-8 84h49l8 -50q42 60 116 60q81 0 116.5 -65t35.5 -213t-35.5 -213.5t-115.5 -65.5q-73 0 -113 60v-223h-53v626zM115 269q0 -130 24 -181t86 -51q60 0 82 49.5t22 182.5q0 132 -22 181.5t-82 49.5q-62 0 -86 -50.5t-24 -180.5z" />
    <glyph glyph-name="q" unicode="q" horiz-adv-x="427" 
d="M312 50q-40 -60 -113 -60q-80 0 -115.5 65.5t-35.5 213.5t35.5 213t116.5 65q74 0 114 -60l12 50h39v-710h-53v223zM314 269q0 129 -24 180t-85 51q-60 0 -82.5 -50t-22.5 -183q0 -131 22 -180.5t82 -49.5q62 0 86 51t24 181z" />
    <glyph glyph-name="r" unicode="r" horiz-adv-x="267" 
d="M60 537h40l11 -50q22 33 49.5 45t60.5 12q10 0 34 -2v-53q-13 4 -32 4q-43 0 -76.5 -26.5t-33.5 -98.5v-368h-53v537z" />
    <glyph glyph-name="s" unicode="s" horiz-adv-x="360" 
d="M315 123q0 -57 -33 -95t-107 -38q-78 0 -107 46t-34 115h53q3 -58 23.5 -86t66.5 -28q84 0 84 86q0 51 -30.5 79.5t-68.5 52.5q-44 28 -80 62t-36 99q0 60 34.5 95.5t95.5 35.5q66 0 98 -40.5t39 -120.5h-53q-10 114 -84 114q-76 0 -76 -85q0 -35 20 -60.5t74 -60.5
q45 -29 83 -64.5t38 -106.5z" />
    <glyph glyph-name="t" unicode="t" horiz-adv-x="259" 
d="M89 537v112l53 29v-141h83v-47h-83v-228q0 -77 4 -120t14 -64t25.5 -26t39.5 -5v-47q-37 0 -63 7t-42.5 33t-23.5 78.5t-7 143.5v228h-73v47h73z" />
    <glyph glyph-name="u" unicode="u" horiz-adv-x="405" 
d="M102 233q0 -117 16 -156.5t64 -39.5q110 0 110 181v319h53v-537h-40l-11 50q-48 -60 -124 -60q-69 0 -95.5 47t-26.5 172v328h54v-304z" />
    <glyph glyph-name="v" unicode="v" horiz-adv-x="354" 
d="M290 537h51l-140 -537h-51l-140 537h54l63 -256q10 -39 21 -89t28 -131h2q17 81 28.5 130.5t21.5 89.5z" />
    <glyph glyph-name="w" unicode="w" horiz-adv-x="551" 
d="M189 0h-48l-131 537h52l71 -311q5 -24 11.5 -55t19.5 -96h2q11 64 16.5 94.5t10.5 56.5l61 315h42l61 -315q5 -24 10.5 -55t16.5 -96h2q13 64 19.5 94.5t12.5 56.5l70 311h49l-131 -537h-45l-54 273q-5 27 -12 64.5t-19 106.5h-2q-11 -69 -18 -107t-12 -64z" />
    <glyph glyph-name="x" unicode="x" horiz-adv-x="351" 
d="M62 0h-51l135 283l-121 254h53l58 -128q7 -15 13 -30t25 -63h2q21 48 27.5 63t13.5 30l59 128h50l-122 -254l136 -283h-55l-65 144q-8 19 -14.5 35t-29.5 72h-2q-24 -57 -31 -72.5t-15 -34.5z" />
    <glyph glyph-name="y" unicode="y" horiz-adv-x="352" 
d="M289 537h52l-112 -486q-16 -70 -31 -115t-31.5 -71t-36 -36t-45.5 -10q-8 0 -20 1.5t-28 6.5l10 45q8 -2 19 -4.5t20 -2.5q23 0 42 27t41 108h-34l-125 537h52l65 -289q10 -42 19.5 -85t26.5 -116h8q17 73 27 116t19 85z" />
    <glyph glyph-name="z" unicode="z" horiz-adv-x="322" 
d="M299 0h-278v37l219 453h-210v47h271v-37l-220 -453h218v-47z" />
    <glyph glyph-name="braceleft" unicode="{" horiz-adv-x="375" 
d="M315 681h-60q-32 0 -44 -16.5t-12 -51.5v-225q0 -59 -20.5 -78.5t-49.5 -26.5v-4q29 -7 49.5 -27.5t20.5 -78.5v-230q0 -35 12 -51.5t44 -16.5h60v-48h-59q-49 0 -80.5 25.5t-31.5 84.5v235q0 48 -21 66t-72 18v49q50 0 71.5 18t21.5 66v230q0 59 31.5 85t80.5 26h59v-49
z" />
    <glyph glyph-name="bar" unicode="|" horiz-adv-x="224" 
d="M85 730h54v-903h-54v903z" />
    <glyph glyph-name="braceright" unicode="}" horiz-adv-x="386" 
d="M62 730h59q49 0 80.5 -26t31.5 -85v-230q0 -48 21.5 -66t71.5 -18v-49q-51 0 -72 -18t-21 -66v-235q0 -59 -31.5 -84.5t-80.5 -25.5h-59v48h60q32 0 44 16.5t12 51.5v230q0 58 20.5 78.5t49.5 27.5v4q-29 7 -49.5 26.5t-20.5 78.5v225q0 35 -12 51.5t-44 16.5h-60v49z
" />
    <glyph glyph-name="asciitilde" unicode="~" horiz-adv-x="422" 
d="M34 232q40 86 110 86q23 0 40.5 -7.5t33 -17t30 -17t32.5 -7.5q23 0 38.5 14.5t30.5 41.5l39 -20q-39 -86 -109 -86q-24 0 -41.5 8t-33 17t-30 17t-32.5 8q-24 0 -39.5 -16t-29.5 -41z" />
    <glyph glyph-name="exclamdown" unicode="&#xa1;" horiz-adv-x="333" 
d="M199 -173h-67l17 536h33zM167 524q20 0 34 -13.5t14 -34.5t-14 -35t-34 -14t-34 14t-14 35t14 34.5t34 13.5z" />
    <glyph glyph-name="cent" unicode="&#xa2;" horiz-adv-x="374" 
d="M90 268q0 -75 5.5 -120t17.5 -70t31 -33t45 -8q41 0 64.5 21t29.5 93h50q-8 -87 -39.5 -121t-82.5 -39v-89h-46v89q-66 7 -96.5 64t-30.5 210q0 158 31 216t96 65v91h46v-91q51 -5 82.5 -39t39.5 -121h-50q-8 72 -30.5 93t-63.5 21q-26 0 -45 -8t-31 -33t-17.5 -70.5
t-5.5 -120.5z" />
    <glyph glyph-name="sterling" unicode="&#xa3;" horiz-adv-x="444" 
d="M409 50v-50h-390v50h75v286h-83v50h83v168q0 72 47.5 107t110.5 35q67 0 117 -41t51 -125h-54q0 57 -30.5 86.5t-83.5 29.5q-43 0 -72 -21t-29 -66v-173h151v-50h-151v-286h258z" />
    <glyph glyph-name="currency" unicode="&#xa4;" horiz-adv-x="444" 
d="M64 213q-43 62 -43 133q0 76 43 136l-39 39l47 47l40 -38q21 23 52.5 33.5t57.5 10.5t57.5 -10.5t52.5 -33.5l40 38l47 -47l-39 -39q43 -60 43 -136q0 -71 -43 -133l39 -38l-47 -48l-40 39q-43 -45 -110 -45t-110 45l-40 -39l-47 48zM222 528q-54 0 -100.5 -49
t-46.5 -133q0 -32 11.5 -63.5t31.5 -57t47 -41.5t57 -16t56.5 15.5t46.5 41t31.5 57t11.5 62.5q0 85 -45.5 134.5t-100.5 49.5z" />
    <glyph glyph-name="yen" unicode="&#xa5;" horiz-adv-x="417" 
d="M337 248v-50h-99v-198h-58v198h-103v50h260zM65 286v50h112l-164 351h58l138 -301l137 301h58l-163 -351h108v-50h-284z" />
    <glyph glyph-name="brokenbar" unicode="&#xa6;" 
d="M85 343v387h54v-387h-54zM85 -174v387h54v-387h-54z" />
    <glyph glyph-name="section" unicode="&#xa7;" horiz-adv-x="411" 
d="M346 315q0 -59 -29 -94q13 -18 21 -42t8 -58q0 -74 -37.5 -102.5t-97.5 -28.5q-69 0 -107.5 36.5t-38.5 124.5h53q0 -114 92 -114q82 0 82 83q0 56 -33.5 85t-74 54t-74 58.5t-33.5 99.5q0 60 33 93q-33 40 -33 98q0 72 40.5 102t91.5 30q73 0 104 -47.5t31 -113.5h-53
q-2 47 -20 80.5t-63 33.5q-35 0 -56 -23t-21 -61q0 -49 33.5 -76t74 -52.5t74 -61.5t33.5 -104zM292 313q0 34 -13.5 57t-34.5 40.5t-46 32t-49 31.5q-18 -21 -18 -57q0 -31 14 -52.5t36 -38.5t47.5 -32t49.5 -34q14 20 14 53z" />
    <glyph glyph-name="dieresis" unicode="&#xa8;" horiz-adv-x="278" 
d="M68 605q-17 0 -28.5 11t-11.5 29q0 17 11.5 28.5t28.5 11.5q39 0 39 -40t-39 -40zM211 605q-17 0 -28.5 11t-11.5 29q0 17 11.5 28.5t28.5 11.5q39 0 39 -40t-39 -40z" />
    <glyph glyph-name="copyright" unicode="&#xa9;" horiz-adv-x="598" 
d="M565 366q0 -81 -19 -150t-54.5 -119t-84.5 -78.5t-109 -28.5t-109 28.5t-83.5 78.5t-53.5 119t-19 150t19 149.5t53.5 119t83.5 78.5t109 28t109 -28t84.5 -78.5t54.5 -119t19 -149.5zM520 366q0 70 -15.5 131t-44.5 106t-70 70.5t-92 25.5t-92 -25.5t-69.5 -70.5
t-44 -106t-15.5 -131t15.5 -131t44 -106t69.5 -71t92 -26t92 26t70 71t44.5 106t15.5 131zM218 365q0 -64 5 -102.5t15.5 -59.5t26.5 -28t39 -7q34 0 54 17.5t25 79.5h42q-7 -81 -39.5 -109.5t-85.5 -28.5q-66 0 -96.5 46.5t-30.5 189.5q0 146 32 193t96 47q52 0 84.5 -28
t39.5 -109h-42q-7 62 -26 79.5t-53 17.5q-23 0 -39 -7t-26.5 -28t-15.5 -60t-5 -103z" />
    <glyph glyph-name="ordfeminine" unicode="&#xaa;" horiz-adv-x="253" 
d="M221 268h-193v34h193v-34zM23 449q0 59 27.5 81t68.5 22h53q0 57 -11.5 78t-37.5 21q-20 0 -31 -13.5t-16 -48.5h-43q8 53 30.5 75.5t60.5 22.5q48 0 69.5 -33.5t21.5 -117.5v-129l6 -49h-41l-5 31q-32 -37 -78 -37q-30 0 -52 21.5t-22 75.5zM120 519q-21 0 -37.5 -12
t-16.5 -57q0 -36 11 -49t30 -13q26 0 46 18t20 53v60h-53z" />
    <glyph glyph-name="guillemotleft" unicode="&#xab;" horiz-adv-x="362" 
d="M52 268l79 194h44l-65 -194l63 -194h-45zM187 268l79 194h44l-65 -194l63 -194h-45z" />
    <glyph glyph-name="logicalnot" unicode="&#xac;" horiz-adv-x="384" 
d="M314 318h-294v50h344v-218h-50v168z" />
    <glyph glyph-name="registered" unicode="&#xae;" horiz-adv-x="472" 
d="M448 467q0 -114 -57 -193.5t-144 -79.5t-143 79.5t-56 193.5t56 193t143 79t144 -79t57 -193zM403 467q0 99 -42 164.5t-114 65.5t-114 -65.5t-42 -164.5t42 -165t114 -66t114 66t42 165zM165 646h72q54 0 81 -21t27 -78q0 -35 -12.5 -60.5t-43.5 -36.5l61 -161h-45
l-58 155h-39v-155h-43v357zM235 480q28 0 47.5 9t19.5 57q0 45 -19 54.5t-48 9.5h-27v-130h27z" />
    <glyph glyph-name="macron" unicode="&#xaf;" horiz-adv-x="280" 
d="M25 661h230v-46h-230v46z" />
    <glyph glyph-name="degree" unicode="&#xb0;" horiz-adv-x="400" 
d="M350 590q0 -63 -44 -106.5t-106 -43.5t-106 44t-44 107q0 62 44 105.5t106 43.5t106 -44t44 -106zM98 590q0 -42 30 -72t72 -30t71.5 30t29.5 72t-30 71.5t-72 29.5t-71.5 -29.5t-29.5 -71.5z" />
    <glyph glyph-name="plusminus" unicode="&#xb1;" horiz-adv-x="388" 
d="M34 52h320v-52h-320v52zM34 369h134v158h52v-158h134v-52h-134v-158h-52v158h-134v52z" />
    <glyph glyph-name="twosuperior" unicode="&#xb2;" horiz-adv-x="250" 
d="M22 479q0 48 24 79.5t53.5 58.5t53.5 55.5t24 70.5q0 33 -15 47t-35 14q-23 0 -41 -21.5t-18 -79.5h-43q0 74 27.5 107t73.5 33q42 0 69.5 -26t27.5 -77q0 -49 -24 -81.5t-53 -59.5t-53.5 -54.5t-24.5 -66.5v-14h156v-39h-202v54z" />
    <glyph glyph-name="threesuperior" unicode="&#xb3;" horiz-adv-x="250" 
d="M96 658h4q41 0 57 15.5t16 53.5q0 77 -55 77q-28 0 -39.5 -22.5t-11.5 -78.5h-45q0 141 97 141q45 0 72 -27t27 -81q0 -67 -40 -98q46 -31 46 -103q0 -57 -29 -86.5t-79 -29.5q-99 0 -99 139h45q0 -54 12 -76.5t42 -22.5q63 0 63 82q0 80 -78 80h-5v37z" />
    <glyph glyph-name="acute" unicode="&#xb4;" horiz-adv-x="278" 
d="M66 632l166 118l30 -50l-176 -98z" />
    <glyph glyph-name="mu" unicode="&#xb5;" horiz-adv-x="428" 
d="M119 537v-319q0 -109 32.5 -145t82.5 -36q20 0 34 6.5t23 27t13.5 59t4.5 103.5v304h54v-328q0 -72 -8 -115.5t-23 -66.5t-37 -30t-49 -7q-38 0 -69.5 12.5t-57.5 47.5v-223h-53v710h53z" />
    <glyph glyph-name="paragraph" unicode="&#xb6;" horiz-adv-x="519" 
d="M346 633h-61v-633h-52v322q-78 0 -120 53.5t-42 126.5q0 99 46.5 142t129.5 43h151v-687h-52v633z" />
    <glyph glyph-name="periodcentered" unicode="&#xb7;" 
d="M111 220q-20 0 -34 13.5t-14 34.5t14 35t34 14t34 -14t14 -35t-14 -34.5t-34 -13.5z" />
    <glyph glyph-name="cedilla" unicode="&#xb8;" horiz-adv-x="278" 
d="M167 0l-14 -31q75 -6 75 -74q0 -35 -24 -56.5t-65 -21.5q-42 0 -77 26l20 32q29 -18 52 -18q44 0 44 41q0 40 -48 40q-10 0 -18 -2l-9 9l21 55h43z" />
    <glyph glyph-name="onesuperior" unicode="&#xb9;" horiz-adv-x="273" 
d="M130 778q-28 -26 -52 -37t-29 -12v46q52 25 81 62h46v-412h-46v353z" />
    <glyph glyph-name="ordmasculine" unicode="&#xba;" horiz-adv-x="253" 
d="M234 268h-205v34h205v-34zM28 524q0 91 24 129.5t81 38.5t81 -38.5t24 -129.5t-24 -129t-81 -38t-81 38t-24 129zM71 525q0 -77 13.5 -105t48.5 -28t48 28t13 105q0 76 -13 103.5t-48 27.5t-48.5 -27.5t-13.5 -103.5z" />
    <glyph glyph-name="guillemotright" unicode="&#xbb;" horiz-adv-x="362" 
d="M234 74h-45l63 194l-65 194h44l79 -194zM99 74h-45l63 194l-65 194h44l79 -194z" />
    <glyph glyph-name="onequarter" unicode="&#xbc;" horiz-adv-x="626" 
d="M155 0l265 687h48l-265 -687h-48zM367 96v39l102 278h43l-102 -278h98v103h45v-103h49v-39h-49v-96h-45v96h-141zM130 628q-28 -26 -52 -37t-29 -12v46q52 25 81 62h46v-412h-46v353z" />
    <glyph glyph-name="onehalf" unicode="&#xbd;" horiz-adv-x="599" 
d="M373 54q0 48 24 79.5t53.5 58.5t53.5 55.5t24 70.5q0 33 -15 47t-35 14q-23 0 -41 -21.5t-18 -79.5h-43q0 74 27.5 107t73.5 33q42 0 69.5 -26t27.5 -77q0 -49 -24 -81.5t-53 -59.5t-53.5 -54.5t-24.5 -66.5v-14h156v-39h-202v54zM400 687h48l-265 -687h-48zM49 625
q52 25 81 62h46v-412h-46v353q-28 -26 -52 -37t-29 -12v46z" />
    <glyph glyph-name="threequarters" unicode="&#xbe;" horiz-adv-x="602" 
d="M116 269q-99 0 -99 139h45q0 -54 12 -76.5t42 -22.5q63 0 63 82q0 80 -78 80h-5v37h4q41 0 57 15.5t16 53.5q0 77 -55 77q-28 0 -39.5 -22.5t-11.5 -78.5h-45q0 141 97 141q45 0 72 -27t27 -81q0 -67 -40 -98q46 -31 46 -103q0 -57 -29 -86.5t-79 -29.5zM420 687h48
l-265 -687h-48zM343 96v39l102 278h43l-102 -278h98v103h45v-103h49v-39h-49v-96h-45v96h-141z" />
    <glyph glyph-name="questiondown" unicode="&#xbf;" horiz-adv-x="373" 
d="M194 526q20 0 34 -13.5t14 -34.5t-14 -35t-34 -14t-34 14t-14 35t14 34.5t34 13.5zM216 252q2 -39 -14 -57.5t-35.5 -40t-36.5 -58t-17 -112.5q0 -16 2 -36.5t10 -38.5t23.5 -30.5t43.5 -12.5q51 0 69 45t18 137h55q0 -125 -33.5 -178.5t-107.5 -53.5q-81 0 -109.5 51.5
t-28.5 127.5q0 73 18.5 114t40.5 66t40.5 40.5t19.5 37.5l4 111h33z" />
    <glyph glyph-name="Aacute" unicode="&#xc1;" horiz-adv-x="461" 
d="M201 687h58l188 -687h-58l-54 200h-211l-55 -200h-56zM138 250h183l-35 139q-16 64 -27.5 120.5t-25.5 127.5h-5q-14 -71 -25.5 -127.5t-28.5 -120.5zM172 769l166 118l30 -50l-176 -98z" />
    <glyph glyph-name="Aring" unicode="&#xc5;" horiz-adv-x="461" 
d="M201 687h58l188 -687h-58l-54 200h-211l-55 -200h-56zM138 250h183l-35 139q-16 64 -27.5 120.5t-25.5 127.5h-5q-14 -71 -25.5 -127.5t-28.5 -120.5zM229 723q-41 0 -61 23.5t-20 59.5t20 59.5t61 23.5q42 0 62 -23.5t20 -59.5t-20 -59.5t-62 -23.5zM229 760q39 0 39 46
t-39 46q-38 0 -38 -46t38 -46z" />
    <glyph glyph-name="AE" unicode="&#xc6;" horiz-adv-x="646" 
d="M201 687h313v-50h-242l71 -260h155v-50h-141l76 -277h201v-50h-245l-55 200h-208l-55 -200h-58zM321 250l-35 139q-16 64 -27.5 120.5t-25.5 127.5h-5q-14 -71 -25.5 -127.5t-28.5 -120.5l-36 -139h183z" />
    <glyph glyph-name="Ccedilla" unicode="&#xc7;" horiz-adv-x="488" 
d="M220 -8q-40 4 -70.5 22.5t-51 58t-31 105t-10.5 165.5q0 111 13 180t38 107.5t62 52t85 13.5q41 0 73.5 -9t57 -34.5t40 -70t20.5 -115.5h-56q-5 65 -18 101t-31 53t-39.5 21t-43.5 4q-29 0 -55 -6.5t-45.5 -36t-31 -90t-11.5 -169.5t11.5 -170t30.5 -91t43.5 -36.5
t51.5 -6.5q26 0 49 4.5t41 22.5t30.5 53.5t17.5 97.5h56q-5 -70 -20 -114.5t-38.5 -69.5t-55.5 -34.5t-71 -9.5l-9 -21q75 -6 75 -74q0 -35 -24 -56.5t-65 -21.5q-42 0 -77 26l20 32q29 -18 52 -18q44 0 44 41q0 40 -48 40q-10 0 -18 -2l-9 9z" />
    <glyph glyph-name="Eacute" unicode="&#xc9;" horiz-adv-x="413" 
d="M75 687h297v-50h-239v-252h223v-48h-223v-287h245v-50h-303v687zM169 769l166 118l30 -50l-176 -98z" />
    <glyph glyph-name="Iacute" unicode="&#xcd;" horiz-adv-x="216" 
d="M79 687h58v-687h-58v687zM50 769l166 118l30 -50l-176 -98z" />
    <glyph glyph-name="Eth" unicode="&#xd0;" horiz-adv-x="509" 
d="M237 687q55 0 93.5 -12.5t62.5 -49.5t34.5 -104.5t10.5 -177.5t-10.5 -177.5t-34.5 -104t-62.5 -49t-93.5 -12.5h-162v687h162zM133 336v-286h104q35 0 61.5 5t44.5 33t27.5 87.5t9.5 167.5q0 109 -9.5 168.5t-27.5 87.5t-44.5 33t-61.5 5h-104v-251h112v-50h-112z" />
    <glyph glyph-name="Ntilde" unicode="&#xd1;" horiz-adv-x="522" 
d="M133 0h-56v687h47l218 -450l55 -126h1q-9 32 -9 126v450h56v-687h-48l-217 450l-55 126h-2q3 -16 6.5 -48t3.5 -78v-450zM121 758q31 70 85 70q35 0 60 -18.5t52 -18.5q18 0 29 11.5t19 28.5l35 -19q-30 -69 -85 -69q-35 0 -60 18t-52 18q-18 0 -28 -10.5t-20 -29.5z" />
    <glyph glyph-name="Ograve" unicode="&#xd2;" horiz-adv-x="514" 
d="M60 343q0 111 13 180t38 107.5t61.5 52.5t84.5 14q49 0 86 -14t61.5 -53t37 -108t12.5 -179q0 -109 -12.5 -178t-37 -108t-61.5 -53t-86 -14q-48 0 -84.5 14t-61.5 52.5t-38 107.5t-13 179zM118 343q0 -108 11.5 -169t30.5 -91t44.5 -36.5t52.5 -6.5q29 0 54.5 7t44 36.5
t29.5 90.5t11 169t-11 169t-29.5 91t-44 37t-54.5 7q-27 0 -52.5 -6.5t-44.5 -36.5t-30.5 -91t-11.5 -170zM304 740l-176 98l30 50l166 -118z" />
    <glyph glyph-name="Oacute" unicode="&#xd3;" horiz-adv-x="514" 
d="M60 343q0 111 13 180t38 107.5t61.5 52.5t84.5 14q49 0 86 -14t61.5 -53t37 -108t12.5 -179q0 -109 -12.5 -178t-37 -108t-61.5 -53t-86 -14q-48 0 -84.5 14t-61.5 52.5t-38 107.5t-13 179zM118 343q0 -108 11.5 -169t30.5 -91t44.5 -36.5t52.5 -6.5q29 0 54.5 7t44 36.5
t29.5 90.5t11 169t-11 169t-29.5 91t-44 37t-54.5 7q-27 0 -52.5 -6.5t-44.5 -36.5t-30.5 -91t-11.5 -170zM199 769l166 118l30 -50l-176 -98z" />
    <glyph glyph-name="multiply" unicode="&#xd7;" horiz-adv-x="364" 
d="M70 491l112 -111l112 111l36 -36l-111 -112l111 -112l-36 -36l-112 111l-112 -111l-36 36l111 112l-111 112z" />
    <glyph glyph-name="Oslash" unicode="&#xd8;" horiz-adv-x="522" 
d="M403 643q29 -38 44 -109t15 -192q0 -109 -12.5 -177.5t-37 -107.5t-61.5 -53t-87 -14q-64 0 -105 21l-11 -30h-54l25 65q-29 37 -44 107.5t-15 189.5q0 111 13 180t38.5 107.5t62.5 52.5t86 14q62 0 102 -20l13 34h54zM261 647q-29 0 -55 -6.5t-45.5 -36.5t-31 -91
t-11.5 -170q0 -86 7 -141t20 -88l197 512q-17 14 -37.5 17.5t-43.5 3.5zM261 40q30 0 56.5 7t45.5 36.5t30 90.5t11 169q0 88 -7 143.5t-20 88.5l-198 -513q17 -15 38 -18.5t44 -3.5z" />
    <glyph glyph-name="Uacute" unicode="&#xda;" horiz-adv-x="496" 
d="M125 687v-356q0 -100 8.5 -158t24.5 -87.5t39 -37.5t53 -8q29 0 51.5 7.5t38 37t23.5 87t8 156.5v359h58v-359q0 -61 -3 -121.5t-20 -108.5t-54.5 -78t-105.5 -30q-66 0 -102.5 28t-53.5 75.5t-20 108.5t-3 127v358h58zM190 769l166 118l30 -50l-176 -98z" />
    <glyph glyph-name="Udieresis" unicode="&#xdc;" horiz-adv-x="496" 
d="M125 687v-356q0 -100 8.5 -158t24.5 -87.5t39 -37.5t53 -8q29 0 51.5 7.5t38 37t23.5 87t8 156.5v359h58v-359q0 -61 -3 -121.5t-20 -108.5t-54.5 -78t-105.5 -30q-66 0 -102.5 28t-53.5 75.5t-20 108.5t-3 127v358h58zM177 743q-17 0 -28.5 11t-11.5 29q0 17 11.5 28.5
t28.5 11.5q39 0 39 -40t-39 -40zM320 743q-17 0 -28.5 11t-11.5 29q0 17 11.5 28.5t28.5 11.5q39 0 39 -40t-39 -40z" />
    <glyph glyph-name="Thorn" unicode="&#xde;" horiz-adv-x="420" 
d="M64 0v687h54v-157h86q95 0 144 -41.5t49 -144.5q0 -99 -48 -143.5t-145 -44.5h-86v-156h-54zM118 480v-274h86q27 0 51 3.5t43 17t30 41t11 75.5q0 47 -11 74t-29.5 41t-43 18t-51.5 4h-86z" />
    <glyph glyph-name="germandbls" unicode="&#xdf;" horiz-adv-x="456" 
d="M68 386v156q0 71 41 113t112 42q76 0 124.5 -46t48.5 -118q0 -48 -22 -89t-57 -64q45 -22 71.5 -75.5t26.5 -122.5q0 -101 -39.5 -149t-127.5 -48q-29 0 -62 5v50q29 -3 51 -3q66 0 93 32.5t27 107.5q0 180 -156 180v50q63 0 100 31.5t37 88.5q0 54 -32 87t-83 33
q-45 0 -70 -27t-25 -73v-547h-58v336h-68v50h68z" />
    <glyph glyph-name="aacute" unicode="&#xe1;" horiz-adv-x="406" 
d="M37 152q0 97 43.5 133.5t108.5 36.5h96q1 101 -21 139.5t-69 38.5q-38 0 -60 -25t-30 -88h-52q13 85 48 122.5t95 37.5q73 0 108.5 -55t35.5 -203v-214l9 -75h-53l-8 50q-52 -60 -127 -60q-51 0 -87.5 36t-36.5 126zM190 275q-39 0 -69 -22.5t-30 -103.5q0 -66 20.5 -89
t54.5 -23q47 0 84 33t37 96v109h-97zM138 619l166 118l30 -50l-176 -98z" />
    <glyph glyph-name="aring" unicode="&#xe5;" horiz-adv-x="406" 
d="M37 152q0 97 43.5 133.5t108.5 36.5h96q1 101 -21 139.5t-69 38.5q-38 0 -60 -25t-30 -88h-52q13 85 48 122.5t95 37.5q73 0 108.5 -55t35.5 -203v-214l9 -75h-53l-8 50q-52 -60 -127 -60q-51 0 -87.5 36t-36.5 126zM190 275q-39 0 -69 -22.5t-30 -103.5q0 -66 20.5 -89
t54.5 -23q47 0 84 33t37 96v109h-97zM195 573q-41 0 -61 23.5t-20 59.5t20 59.5t61 23.5q42 0 62 -23.5t20 -59.5t-20 -59.5t-62 -23.5zM195 610q39 0 39 46t-39 46q-38 0 -38 -46t38 -46z" />
    <glyph glyph-name="ae" unicode="&#xe6;" horiz-adv-x="648" 
d="M167 -10q-55 0 -92.5 36t-37.5 126q0 97 43.5 133.5t108.5 36.5h97q6 101 -21.5 139.5t-76.5 38.5q-40 0 -62.5 -25t-30.5 -88h-52q13 85 48 122.5t97 37.5q90 0 124 -83q36 83 131 83q85 0 121 -61.5t36 -196.5v-15h-262v-17q0 -129 24 -174.5t81 -45.5q44 0 66.5 24.5
t30.5 89.5h53q-13 -86 -49 -123.5t-102 -37.5q-96 0 -132 81q-54 -81 -143 -81zM189 275q-38 0 -68 -22.5t-30 -103.5q0 -66 20.5 -89t54.5 -23q46 0 83 33t37 96v109h-97zM442 500q-56 0 -79 -40t-25 -140h208q-2 100 -25 140t-79 40z" />
    <glyph glyph-name="ccedilla" unicode="&#xe7;" horiz-adv-x="384" 
d="M168 -8q-67 9 -93.5 70t-26.5 202q0 158 33 220.5t118 62.5q69 0 102.5 -38t41.5 -123h-50q-7 64 -27 89t-66 25q-60 0 -80 -47.5t-20 -184.5q0 -136 20.5 -183.5t79.5 -47.5q47 0 67.5 25.5t25.5 88.5h50q-13 -154 -133 -161l-10 -21q75 -6 75 -74q0 -35 -24 -56.5
t-65 -21.5q-42 0 -77 26l20 32q29 -18 52 -18q44 0 44 41q0 40 -48 40q-10 0 -18 -2l-9 9z" />
    <glyph glyph-name="eacute" unicode="&#xe9;" horiz-adv-x="412" 
d="M207 37q44 0 66.5 24.5t30.5 89.5h53q-13 -86 -49 -123.5t-102 -37.5q-85 0 -121.5 63.5t-36.5 214.5t36.5 215t122.5 64q85 0 121 -64t36 -214v-15h-262q1 -125 23.5 -171t81.5 -46zM206 500q-56 0 -79 -42.5t-25 -157.5h208q-2 115 -25 157.5t-79 42.5zM148 619
l166 118l30 -50l-176 -98z" />
    <glyph glyph-name="edieresis" unicode="&#xeb;" horiz-adv-x="412" 
d="M207 37q44 0 66.5 24.5t30.5 89.5h53q-13 -86 -49 -123.5t-102 -37.5q-85 0 -121.5 63.5t-36.5 214.5t36.5 215t122.5 64q85 0 121 -64t36 -214v-15h-262q1 -125 23.5 -171t81.5 -46zM206 500q-56 0 -79 -42.5t-25 -157.5h208q-2 115 -25 157.5t-79 42.5zM135 593
q-17 0 -28.5 11t-11.5 29q0 17 11.5 28.5t28.5 11.5q39 0 39 -40t-39 -40zM278 593q-17 0 -28.5 11t-11.5 29q0 17 11.5 28.5t28.5 11.5q39 0 39 -40t-39 -40z" />
    <glyph glyph-name="iacute" unicode="&#xed;" horiz-adv-x="184" 
d="M65 0v537h54v-537h-54zM34 619l166 118l30 -50l-176 -98z" />
    <glyph glyph-name="eth" unicode="&#xf0;" horiz-adv-x="429" 
d="M282 604q-16 26 -35 34t-39 8v50q36 0 67 -15t54 -51l82 46l31 -30l-94 -52q17 -42 26.5 -102t9.5 -147q0 -57 -3 -119.5t-19.5 -115t-52 -86.5t-100.5 -34q-95 0 -135 68t-40 159q0 94 41 158.5t128 64.5q77 0 124 -67q-2 69 -9 116t-18 78l-89 -50l-32 30zM322 222
q0 53 -10.5 86t-26.5 51t-36 24t-39 6q-71 0 -95.5 -52t-24.5 -116q0 -32 5.5 -64.5t18.5 -58.5t35 -42t55 -16q45 0 81.5 38t36.5 144z" />
    <glyph glyph-name="ntilde" unicode="&#xf1;" horiz-adv-x="415" 
d="M60 537h40l12 -50q50 60 124 60q70 0 97 -48.5t27 -176.5v-322h-54v304q0 121 -14 158.5t-63 37.5q-116 0 -116 -156v-344h-53v537zM67 608q31 70 85 70q35 0 60 -18.5t52 -18.5q18 0 29 11.5t19 28.5l35 -19q-30 -69 -85 -69q-35 0 -60 18t-52 18q-18 0 -28 -10.5
t-20 -29.5z" />
    <glyph glyph-name="ograve" unicode="&#xf2;" horiz-adv-x="428" 
d="M48 268q0 151 38 215t128 64t128 -64t38 -215t-38 -214.5t-128 -63.5t-128 63.5t-38 214.5zM102 269q0 -134 24 -183t88 -49t88 49t24 183q0 133 -24 182t-88 49t-88 -49t-24 -182zM231 590l-176 98l30 50l166 -118z" />
    <glyph glyph-name="oacute" unicode="&#xf3;" horiz-adv-x="428" 
d="M48 268q0 151 38 215t128 64t128 -64t38 -215t-38 -214.5t-128 -63.5t-128 63.5t-38 214.5zM102 269q0 -134 24 -183t88 -49t88 49t24 183q0 133 -24 182t-88 49t-88 -49t-24 -182zM156 619l166 118l30 -50l-176 -98z" />
    <glyph glyph-name="divide" unicode="&#xf7;" horiz-adv-x="436" 
d="M218 76q-20 0 -34 13.5t-14 34.5t14 35t34 14t34 -14t14 -35t-14 -34.5t-34 -13.5zM218 514q-20 0 -34 13.5t-14 34.5t14 35t34 14t34 -14t14 -35t-14 -34.5t-34 -13.5zM34 369h368v-52h-368v52z" />
    <glyph glyph-name="oslash" unicode="&#xf8;" horiz-adv-x="428" 
d="M97 38q-24 30 -36.5 85t-12.5 145q0 85 11.5 139t32.5 85t51.5 43t69.5 12q44 0 75 -14l10 27h54l-23 -59q25 -30 38 -86t13 -147q0 -84 -11.5 -138t-32.5 -85t-52 -43t-70 -12q-45 0 -76 14l-10 -25h-54zM155 50q21 -13 59 -13q28 0 49 8t35 33t21 70t7 120q0 63 -5 105
t-15 68zM270 488q-20 12 -56 12q-28 0 -49 -8t-35 -33t-21 -71t-7 -121q0 -115 18 -168z" />
    <glyph glyph-name="uacute" unicode="&#xfa;" horiz-adv-x="405" 
d="M102 233q0 -117 16 -156.5t64 -39.5q110 0 110 181v319h53v-537h-40l-11 50q-48 -60 -124 -60q-69 0 -95.5 47t-26.5 172v328h54v-304zM139 619l166 118l30 -50l-176 -98z" />
    <glyph glyph-name="udieresis" unicode="&#xfc;" horiz-adv-x="405" 
d="M102 233q0 -117 16 -156.5t64 -39.5q110 0 110 181v319h53v-537h-40l-11 50q-48 -60 -124 -60q-69 0 -95.5 47t-26.5 172v328h54v-304zM126 593q-17 0 -28.5 11t-11.5 29q0 17 11.5 28.5t28.5 11.5q39 0 39 -40t-39 -40zM269 593q-17 0 -28.5 11t-11.5 29q0 17 11.5 28.5
t28.5 11.5q39 0 39 -40t-39 -40z" />
    <glyph glyph-name="thorn" unicode="&#xfe;" horiz-adv-x="434" 
d="M62 730h54v-225q38 42 112 42q39 0 70 -12t52 -43t32.5 -85t11.5 -139q0 -84 -11.5 -138t-33 -85t-52.5 -43t-70 -12q-35 0 -62.5 9t-48.5 33v-205h-54v903zM116 268q0 -75 7 -120t21 -70t35 -33t49 -8t49 8t35 33t21 70t7 120t-7 120.5t-21 70.5t-35 33t-49 8t-49 -8
t-35 -33t-21 -70.5t-7 -120.5z" />
    <glyph glyph-name="dotlessi" unicode="&#x131;" horiz-adv-x="184" 
d="M65 0v537h54v-537h-54z" />
    <glyph glyph-name="OE" unicode="&#x152;" horiz-adv-x="676" 
d="M264 697q45 0 76 -10h295v-50h-239v-260h223v-50h-223v-277h245v-50h-303q-30 -10 -74 -10q-114 0 -159 78.5t-45 274.5q0 198 44.5 276t159.5 78zM261 40q55 0 77 17v573q-25 17 -69 17q-87 0 -119 -66.5t-32 -237.5q0 -169 31.5 -236t111.5 -67z" />
    <glyph glyph-name="oe" unicode="&#x153;" horiz-adv-x="676" 
d="M208 -10q-90 0 -128 63.5t-38 214.5t38 215t128 64q102 0 138 -86q36 86 133 86q85 0 121 -64t36 -214v-15h-263q1 -125 24 -171t82 -46q44 0 66.5 24.5t30.5 89.5h53q-13 -86 -49 -123.5t-102 -37.5q-96 0 -132 85q-36 -85 -138 -85zM208 500q-64 0 -88 -49t-24 -182
q0 -134 24 -183t88 -49t88.5 49t24.5 183q0 133 -24.5 182t-88.5 49zM582 300q-2 115 -25 157.5t-79 42.5t-79.5 -42.5t-25.5 -157.5h209z" />
    <glyph glyph-name="Ydieresis" unicode="&#x178;" horiz-adv-x="417" 
d="M346 687h58l-166 -400v-287h-58v287l-167 400h61l74 -184q8 -18 18.5 -45.5t41.5 -108.5h2q15 40 24.5 64.5t15.5 40t10.5 26t9.5 23.5zM138 743q-17 0 -28.5 11t-11.5 29q0 17 11.5 28.5t28.5 11.5q39 0 39 -40t-39 -40zM281 743q-17 0 -28.5 11t-11.5 29
q0 17 11.5 28.5t28.5 11.5q39 0 39 -40t-39 -40z" />
    <glyph glyph-name="Zcaron" unicode="&#x17d;" horiz-adv-x="390" 
d="M363 687v-38l-274 -599h277v-50h-342v39l274 598h-264v50h329zM180 745l-124 84l23 35l118 -68l118 68l23 -35l-124 -84h-34z" />
    <glyph glyph-name="florin" unicode="&#x192;" horiz-adv-x="444" 
d="M41 -183q-11 0 -21 2l8 46q2 0 7 -0.5t7 -0.5h8q35 0 50 28t23 90l55 421h-83l7 47h82q5 47 11.5 91.5t21 79.5t39.5 56t67 21q13 0 28 -2.5t28 -8.5v-42q-11 4 -27.5 5t-23.5 1q-47 0 -61 -43t-29 -158h96l-8 -47h-94l-54 -418q-3 -27 -9 -56.5t-20 -54.5t-39.5 -41
t-68.5 -16z" />
    <glyph glyph-name="circumflex" unicode="&#x2c6;" horiz-adv-x="278" 
d="M156 722l118 -84l-23 -35l-112 67l-112 -67l-23 35l118 84h34z" />
    <glyph glyph-name="caron" unicode="&#x2c7;" horiz-adv-x="278" 
d="M122 607l-124 84l23 35l118 -68l118 68l23 -35l-124 -84h-34z" />
    <glyph glyph-name="breve" unicode="&#x2d8;" horiz-adv-x="267" 
d="M134 605q-51 0 -81.5 32.5t-39.5 72.5l42 12q11 -29 27 -47.5t51 -18.5t51.5 18.5t27.5 47.5l42 -12q-9 -40 -40 -72.5t-80 -32.5z" />
    <glyph glyph-name="dotaccent" unicode="&#x2d9;" horiz-adv-x="279" 
d="M140 605q-17 0 -28.5 11t-11.5 29q0 17 11.5 28.5t28.5 11.5q39 0 39 -40t-39 -40z" />
    <glyph glyph-name="ring" unicode="&#x2da;" horiz-adv-x="278" 
d="M138 585q-41 0 -61 23.5t-20 59.5t20 59.5t61 23.5q42 0 62 -23.5t20 -59.5t-20 -59.5t-62 -23.5zM138 622q39 0 39 46t-39 46q-38 0 -38 -46t38 -46z" />
    <glyph glyph-name="ogonek" unicode="&#x2db;" horiz-adv-x="278" 
d="M214 0q-35 -34 -47.5 -58t-12.5 -44q0 -39 40 -39q19 0 46 12l18 -35q-31 -19 -67 -19q-38 0 -61 20.5t-23 55.5q0 53 60 107h47z" />
    <glyph glyph-name="tilde" unicode="&#x2dc;" horiz-adv-x="276" 
d="M-2 620q31 70 85 70q35 0 60 -18.5t52 -18.5q18 0 29 11.5t19 28.5l35 -19q-30 -69 -85 -69q-35 0 -60 18t-52 18q-18 0 -28 -10.5t-20 -29.5z" />
    <glyph glyph-name="hungarumlaut" unicode="&#x2dd;" horiz-adv-x="278" 
d="M28 625l72 137l52 -32l-90 -125zM175 625l72 137l52 -32l-90 -125z" />
    <glyph glyph-name="endash" unicode="&#x2013;" horiz-adv-x="344" 
d="M344 241h-344v54h344v-54z" />
    <glyph glyph-name="emdash" unicode="&#x2014;" horiz-adv-x="687" 
d="M0 295h687v-54h-687v54z" />
    <glyph glyph-name="quoteleft" unicode="&#x2018;" horiz-adv-x="202" 
d="M127 538h-63l31 192h32v-192z" />
    <glyph glyph-name="quoteright" unicode="&#x2019;" horiz-adv-x="202" 
d="M55 730h63l-31 -192h-32v192z" />
    <glyph glyph-name="quotesinglbase" unicode="&#x201a;" 
d="M62 75h63l-31 -192h-32v192z" />
    <glyph glyph-name="quotedblleft" unicode="&#x201c;" horiz-adv-x="368" 
d="M133 538h-63l31 192h32v-192zM281 538h-63l31 192h32v-192z" />
    <glyph glyph-name="quotedblright" unicode="&#x201d;" horiz-adv-x="358" 
d="M61 730h63l-31 -192h-32v192zM198 730h63l-31 -192h-32v192z" />
    <glyph glyph-name="quotedblbase" unicode="&#x201e;" horiz-adv-x="356" 
d="M62 75h63l-31 -192h-32v192zM199 75h63l-31 -192h-32v192z" />
    <glyph glyph-name="dagger" unicode="&#x2020;" horiz-adv-x="316" 
d="M131 537v150h54v-150h84v-47h-84v-490h-54v490h-84v47h84z" />
    <glyph glyph-name="daggerdbl" unicode="&#x2021;" horiz-adv-x="316" 
d="M131 537v150h54v-150h84v-47h-84v-292h84v-47h-84v-151h-54v151h-84v47h84v292h-84v47h84z" />
    <glyph glyph-name="bullet" unicode="&#x2022;" horiz-adv-x="421" 
d="M305 268q0 -42 -26 -72t-68 -30q-43 0 -69 30t-26 72t26 72.5t69 30.5q42 0 68 -30.5t26 -72.5z" />
    <glyph glyph-name="ellipsis" unicode="&#x2026;" horiz-adv-x="666" 
d="M107 -10q-20 0 -34 13.5t-14 34.5t14 35t34 14t34 -14t14 -35t-14 -34.5t-34 -13.5zM329 -10q-20 0 -34 13.5t-14 34.5t14 35t34 14t34 -14t14 -35t-14 -34.5t-34 -13.5zM551 -10q-20 0 -34 13.5t-14 34.5t14 35t34 14t34 -14t14 -35t-14 -34.5t-34 -13.5z" />
    <glyph glyph-name="perthousand" unicode="&#x2030;" horiz-adv-x="854" 
d="M380 206q0 38 2.5 76t13.5 68t33.5 49t61.5 19q64 0 89 -54q26 54 89 54q41 0 63.5 -20t33 -51t12.5 -68.5t2 -72.5q0 -39 -2.5 -77.5t-13.5 -69t-33.5 -50t-61.5 -19.5q-64 0 -89 54q-12 -24 -33 -39t-56 -15q-41 0 -63.5 20.5t-33 52t-12.5 69.5t-2 74zM136 270
q-41 0 -63.5 20.5t-33 52t-12.5 69.5t-2 74q0 38 2.5 76t13.5 68t33.5 49t61.5 19q41 0 63.5 -20t33 -51t12.5 -68.5t2 -72.5q0 -39 -2.5 -77.5t-13.5 -69t-33.5 -50t-61.5 -19.5zM491 380q-30 0 -48 -32.5t-18 -143.5t18 -144t48 -33t48.5 33t18.5 144t-18.5 143.5
t-48.5 32.5zM603 204q0 -111 18 -144t48 -33t48.5 33t18.5 144t-18.5 143.5t-48.5 32.5t-48 -32.5t-18 -143.5zM136 660q-30 0 -48 -32.5t-18 -143.5t18 -144t48 -33t48.5 33t18.5 144t-18.5 143.5t-48.5 32.5zM158 0l265 687h48l-265 -687h-48z" />
    <glyph glyph-name="guilsinglleft" unicode="&#x2039;" horiz-adv-x="198" 
d="M40 268l79 194h44l-65 -194l63 -194h-45z" />
    <glyph glyph-name="guilsinglright" unicode="&#x203a;" horiz-adv-x="198" 
d="M82 74h-45l63 194l-65 194h44l79 -194z" />
    <glyph glyph-name="fraction" unicode="&#x2044;" horiz-adv-x="77" 
d="M194 687l-265 -687h-48l265 687h48z" />
    <glyph glyph-name="Euro" unicode="&#x20ac;" horiz-adv-x="496" 
d="M1 268l12 50h292l-12 -50h-176q4 -81 16.5 -127t31.5 -68.5t42.5 -27.5t48.5 -5q27 0 51 4.5t42.5 22.5t31 53.5t17.5 97.5h56q-5 -71 -20.5 -115.5t-40 -69.5t-57.5 -34t-74 -9q-46 0 -82 11t-61.5 41.5t-40.5 85t-20 140.5h-57zM1 387l12 50h47q5 80 20.5 130.5
t40.5 79t60 39t79 10.5q42 0 75.5 -9t58 -34.5t40 -70t20.5 -115.5h-56q-5 65 -18 101t-31 53t-40 21t-45 4q-27 0 -51.5 -4.5t-44 -25t-32.5 -62.5t-18 -117h212l-11 -50h-318z" />
    <glyph glyph-name="trademark" unicode="&#x2122;" horiz-adv-x="623" 
d="M328 730l103 -313l103 313h47v-387h-44v252l-85 -252h-42l-86 253v-253h-44v387h48zM8 693v37h222v-37h-89v-350h-44v350h-89z" />
    <glyph glyph-name="minus" unicode="&#x2212;" horiz-adv-x="436" 
d="M34 369h368v-52h-368v52z" />
    </font>
</defs>
</svg>
